<?xml version="1.0" encoding="UTF-8"?>
<svg xmlns="http://www.w3.org/2000/svg" xmlns:xlink="http://www.w3.org/1999/xlink" width="252pt" height="252pt" viewBox="0 0 252 252" version="1.1">
<g id="surface1">
<path style=" stroke:none;fill-rule:evenodd;fill:rgb(0%,26.666667%,66.666667%);fill-opacity:1;" d="M 35.144531 99.597656 L 37.816406 106.410156 L 44.496094 103.472656 L 41.554688 110.152344 L 48.371094 112.824219 L 41.554688 115.496094 L 44.496094 122.175781 L 37.816406 119.234375 L 35.144531 126.050781 L 32.472656 119.234375 L 25.792969 122.175781 L 28.730469 115.496094 L 21.917969 112.824219 L 28.730469 110.152344 L 25.792969 103.472656 L 32.472656 106.410156 Z M 217.230469 99.597656 L 219.902344 106.410156 L 226.582031 103.472656 L 223.644531 110.152344 L 230.457031 112.824219 L 223.644531 115.496094 L 226.582031 122.175781 L 219.902344 119.234375 L 217.230469 126.050781 L 214.558594 119.234375 L 207.878906 122.175781 L 210.820312 115.496094 L 204.003906 112.824219 L 210.820312 110.152344 L 207.878906 103.472656 L 214.558594 106.410156 Z M 217.230469 99.597656 "/>
<path style=" stroke:none;fill-rule:evenodd;fill:rgb(0%,26.666667%,66.666667%);fill-opacity:1;" d="M 205.074219 58.117188 C 205.074219 57.648438 205.074219 57.183594 204.941406 56.582031 C 204.875 56.113281 204.742188 55.777344 204.472656 55.578125 C 204.207031 55.445312 203.9375 55.511719 203.804688 55.847656 C 203.738281 56.113281 203.605469 56.378906 203.335938 56.714844 C 203.203125 56.980469 202.9375 57.25 202.601562 57.515625 C 202 57.917969 201.402344 58.316406 200.664062 58.71875 C 198.996094 59.785156 197.394531 60.65625 195.789062 61.390625 C 194.1875 62.125 192.648438 62.726562 191.179688 63.125 C 189.175781 63.660156 187.238281 63.996094 185.4375 64.0625 C 184.367188 64.195312 183.367188 64.261719 182.363281 64.328125 C 182.164062 64.328125 181.960938 64.328125 181.828125 64.394531 C 181.628906 64.460938 181.5625 64.597656 181.761719 64.796875 C 181.894531 64.929688 182.230469 65.0625 182.699219 65.128906 C 183.230469 65.199219 183.765625 65.265625 184.234375 65.265625 C 185.902344 65.53125 187.707031 65.464844 189.777344 65.0625 C 191.515625 64.730469 193.316406 64.261719 195.1875 63.527344 C 197.191406 62.726562 199.128906 61.789062 201 60.722656 C 201.734375 60.253906 202.402344 59.921875 203.070312 59.585938 C 203.472656 59.386719 203.804688 59.1875 204.273438 59.050781 C 204.40625 59.050781 204.539062 58.984375 204.605469 58.984375 C 204.671875 59.1875 204.742188 59.386719 204.808594 59.585938 C 205.074219 60.121094 205.410156 60.589844 205.941406 61.054688 C 208.148438 63.125 210.417969 65.199219 212.757812 67.402344 C 213.824219 68.335938 214.492188 68.871094 214.828125 68.9375 C 215.09375 69.003906 215.226562 68.9375 215.292969 68.738281 C 215.429688 68.46875 215.359375 68.070312 215.160156 67.535156 C 214.894531 67 214.492188 66.464844 213.957031 66.132812 C 212.554688 65.128906 211.152344 64.0625 209.75 62.859375 C 208.28125 61.523438 206.746094 59.988281 205.207031 58.316406 C 205.140625 58.25 205.140625 58.25 205.074219 58.25 Z M 145.023438 33.402344 C 145.089844 33.402344 145.222656 33.46875 145.359375 33.46875 C 146.160156 33.46875 147.429688 33.667969 149.097656 34.003906 C 149.097656 34.070312 149.164062 34.269531 149.230469 34.472656 C 149.5 35.273438 149.96875 35.472656 150.566406 35.003906 C 151.035156 34.671875 151.371094 34.335938 151.503906 33.871094 C 151.902344 32.734375 152.304688 31.597656 152.773438 30.394531 C 153.171875 29.328125 153.707031 28.527344 154.308594 27.925781 C 154.710938 27.589844 154.777344 27.257812 154.574219 26.855469 C 154.242188 26.386719 153.839844 25.921875 153.238281 25.386719 C 152.90625 25.121094 152.570312 25.050781 152.238281 25.121094 C 150.703125 25.253906 149.164062 25.253906 147.496094 25.050781 C 147.496094 25.050781 147.429688 24.984375 147.363281 24.917969 C 146.960938 24.316406 146.425781 23.851562 145.890625 23.449219 C 145.691406 23.316406 145.492188 23.316406 145.292969 23.515625 C 145.15625 23.648438 145.15625 23.851562 145.292969 24.117188 C 145.425781 24.917969 145.425781 25.789062 145.292969 26.523438 C 145.292969 27.191406 145.089844 28.058594 144.824219 29.058594 C 143.886719 32.734375 142.953125 35.539062 142.152344 37.476562 C 141.417969 39.414062 140.480469 41.285156 139.347656 42.953125 C 138.945312 43.488281 138.746094 44.023438 138.679688 44.558594 C 138.679688 45.425781 138.746094 46.027344 138.878906 46.425781 C 139.078125 46.828125 139.347656 46.894531 139.613281 46.628906 C 140.015625 46.359375 140.414062 45.960938 140.75 45.226562 C 141.484375 43.824219 142.152344 42.285156 142.621094 40.75 C 143.21875 38.746094 143.820312 36.808594 144.421875 34.871094 C 144.554688 34.335938 144.757812 33.804688 144.890625 33.269531 Z M 149.03125 32.667969 C 148.765625 32.398438 148.296875 32.265625 147.628906 32.265625 C 146.828125 32.265625 146.09375 32.265625 145.359375 32.265625 C 145.625 31.398438 145.890625 30.597656 146.160156 29.996094 C 147.296875 30.0625 148.296875 30.195312 149.097656 30.328125 C 149.632812 30.328125 149.765625 30.195312 149.632812 29.863281 C 149.5 29.527344 149.164062 29.261719 148.632812 28.992188 C 148.164062 28.859375 147.496094 28.792969 146.558594 28.792969 C 146.558594 28.792969 146.492188 28.859375 146.492188 28.859375 C 146.960938 27.457031 147.363281 26.523438 147.628906 25.988281 C 147.695312 25.988281 147.828125 25.988281 147.964844 25.988281 C 148.832031 26.054688 149.566406 26.054688 150.167969 26.121094 C 151.035156 26.1875 151.570312 26.320312 151.835938 26.589844 C 151.972656 26.789062 151.972656 27.191406 151.769531 27.859375 C 151.167969 29.660156 150.566406 31.332031 149.96875 32.867188 C 149.898438 33.066406 149.765625 33.269531 149.632812 33.402344 C 149.5 33.203125 149.367188 33 149.03125 32.734375 Z M 157.78125 35.472656 C 157.914062 35.539062 158.117188 35.605469 158.382812 35.671875 C 159.453125 35.738281 161.054688 36.074219 163.257812 36.675781 C 161.855469 41.886719 160.519531 46.226562 159.25 49.699219 C 159.050781 50.300781 158.851562 50.703125 158.652344 50.902344 C 158.515625 50.96875 158.183594 50.902344 157.847656 50.703125 C 157.316406 50.367188 156.78125 50.101562 156.179688 49.765625 C 155.777344 49.5 155.511719 49.433594 155.511719 49.699219 C 156.445312 51.171875 157.113281 52.4375 157.582031 53.507812 C 157.714844 54.042969 157.984375 54.441406 158.316406 54.644531 C 158.515625 54.777344 158.71875 54.777344 158.984375 54.644531 C 159.386719 54.375 159.851562 53.976562 160.453125 53.375 C 160.921875 52.839844 161.253906 52.238281 161.390625 51.503906 C 162.457031 46.695312 164.128906 40.414062 166.265625 32.734375 C 166.597656 31.398438 167.066406 30.464844 167.535156 29.929688 C 167.933594 29.59375 168.070312 29.261719 167.800781 28.925781 C 167.46875 28.390625 166.867188 27.792969 166.132812 27.191406 C 165.730469 26.921875 165.398438 26.789062 164.996094 26.855469 C 163.996094 27.054688 163.191406 27.191406 162.660156 27.191406 C 161.992188 27.191406 161.054688 27.054688 159.851562 26.921875 C 159.519531 26.386719 159.050781 25.921875 158.582031 25.585938 C 158.449219 25.453125 158.316406 25.453125 158.183594 25.519531 C 157.984375 25.585938 157.984375 25.71875 158.050781 26.054688 C 158.183594 26.921875 158.183594 27.792969 157.984375 28.792969 C 157.648438 30.195312 157.246094 31.664062 156.78125 33.066406 C 156.578125 33.734375 156.511719 34.472656 156.578125 35.207031 C 156.648438 35.738281 156.78125 36.140625 156.914062 36.273438 C 157.246094 36.542969 157.515625 36.339844 157.78125 35.738281 C 157.78125 35.671875 157.847656 35.605469 157.847656 35.605469 Z M 163.191406 35.273438 C 162.925781 34.9375 162.390625 34.804688 161.65625 34.738281 C 160.386719 34.671875 159.183594 34.539062 158.117188 34.402344 C 158.183594 34.136719 158.25 33.804688 158.316406 33.46875 C 158.449219 32.933594 158.652344 32.398438 158.785156 31.800781 C 158.785156 31.800781 158.851562 31.800781 158.984375 31.867188 C 160.320312 32.066406 161.523438 32.265625 162.457031 32.398438 C 162.992188 32.46875 163.191406 32.332031 163.058594 32 C 162.925781 31.664062 162.589844 31.332031 162.125 31.132812 C 161.65625 30.929688 160.988281 30.796875 160.054688 30.796875 C 159.652344 30.863281 159.320312 30.863281 159.050781 30.929688 C 159.386719 29.863281 159.652344 28.925781 159.988281 28.058594 C 160.121094 28.058594 160.320312 28.058594 160.585938 28.125 C 161.789062 28.257812 162.992188 28.324219 164.195312 28.324219 C 164.730469 28.390625 164.996094 28.527344 164.996094 28.792969 C 165.0625 29.394531 164.996094 30.0625 164.863281 30.929688 C 164.460938 32.601562 163.996094 34.203125 163.59375 35.808594 C 163.460938 35.671875 163.394531 35.539062 163.257812 35.339844 Z M 93.191406 41.015625 C 93.925781 41.683594 95.527344 42.953125 97.933594 44.824219 C 100.605469 46.828125 102.808594 48.296875 104.679688 49.367188 C 105.546875 49.902344 106.28125 50.035156 106.882812 49.835938 C 108.621094 49.097656 110.222656 48.429688 111.757812 47.761719 C 112.425781 47.496094 112.695312 47.296875 112.628906 47.164062 C 112.5625 46.960938 112.160156 46.828125 111.292969 46.695312 C 110.222656 46.628906 109.085938 46.496094 107.886719 46.425781 C 106.484375 46.359375 105.347656 46.226562 104.410156 45.894531 C 103.210938 45.492188 101.40625 44.691406 99.136719 43.355469 C 96.53125 41.953125 94.460938 40.683594 92.988281 39.613281 C 92.921875 39.148438 92.855469 38.746094 92.789062 38.277344 C 94.726562 37.210938 97.398438 36.007812 100.738281 34.671875 C 101.273438 34.472656 101.738281 34.335938 102.207031 34.136719 C 102.675781 33.9375 102.941406 33.734375 102.941406 33.46875 C 102.941406 33.136719 102.675781 32.933594 102.207031 32.734375 C 101.339844 32.535156 100.605469 32.398438 100.003906 32.46875 C 99.535156 32.46875 99.066406 32.667969 98.601562 32.933594 C 97.132812 33.9375 95.058594 35.207031 92.457031 36.742188 C 92.1875 35.875 91.988281 35.003906 91.71875 34.136719 C 91.519531 33.402344 91.320312 32.734375 91.1875 32.066406 C 90.851562 31.0625 90.71875 29.929688 90.71875 28.660156 C 90.71875 28.324219 90.585938 28.125 90.316406 27.992188 C 89.714844 27.722656 88.914062 27.589844 87.847656 27.523438 C 87.246094 27.523438 86.710938 27.65625 86.375 27.925781 C 85.910156 28.324219 85.976562 28.59375 86.578125 28.925781 C 87.578125 29.394531 88.179688 29.996094 88.449219 30.796875 C 89.382812 33.46875 90.117188 35.808594 90.585938 37.878906 C 88.449219 39.078125 86.242188 40.347656 83.839844 41.617188 C 83.371094 41.886719 83.371094 42.152344 83.90625 42.351562 C 84.371094 42.488281 84.773438 42.554688 85.308594 42.554688 C 85.84375 42.488281 86.308594 42.285156 86.644531 42.085938 C 87.914062 41.082031 89.382812 40.214844 90.984375 39.28125 C 91.050781 39.480469 91.050781 39.679688 91.121094 39.949219 C 91.585938 42.285156 91.652344 44.355469 91.320312 46.292969 C 91.121094 47.695312 90.71875 49.097656 89.984375 50.503906 C 89.382812 51.90625 88.179688 53.640625 86.375 55.710938 C 86.109375 55.980469 85.976562 56.179688 85.910156 56.3125 C 85.84375 56.515625 86.042969 56.582031 86.445312 56.445312 C 86.777344 56.3125 87.511719 55.777344 88.714844 54.710938 C 89.515625 53.976562 90.453125 52.839844 91.519531 51.304688 C 92.253906 50.101562 92.855469 48.832031 93.125 47.496094 C 93.457031 45.960938 93.589844 44.222656 93.390625 42.152344 C 93.324219 41.75 93.324219 41.417969 93.257812 41.015625 Z M 41.757812 66.667969 C 42.222656 66.464844 42.757812 66.199219 43.292969 65.933594 C 43.558594 65.796875 43.761719 65.664062 43.894531 65.53125 C 43.960938 65.464844 43.894531 65.332031 43.828125 65.199219 C 43.761719 65.0625 43.425781 64.929688 42.824219 64.863281 C 42.492188 64.863281 42.222656 64.929688 42.023438 65.0625 C 41.890625 65.128906 41.757812 65.199219 41.621094 65.332031 C 41.554688 64.929688 41.421875 64.53125 41.355469 64.128906 C 41.222656 63.726562 41.15625 63.328125 41.15625 63.125 C 41.15625 62.925781 41.023438 62.792969 40.820312 62.726562 C 40.6875 62.660156 40.355469 62.660156 39.820312 62.726562 C 39.417969 62.859375 39.085938 63.058594 38.882812 63.195312 C 38.75 63.394531 38.816406 63.59375 39.085938 63.660156 C 39.351562 63.726562 39.550781 63.863281 39.6875 64.128906 C 40.019531 64.796875 40.355469 65.464844 40.554688 66.132812 C 40.488281 66.199219 40.421875 66.199219 40.355469 66.265625 C 39.617188 66.933594 39.019531 67.46875 38.617188 67.871094 C 38.550781 68.003906 38.550781 68.070312 38.683594 68.136719 C 38.816406 68.203125 39.019531 68.203125 39.152344 68.070312 C 39.6875 67.734375 40.285156 67.46875 40.886719 67.132812 C 41.089844 67.667969 41.222656 68.269531 41.289062 68.871094 C 41.289062 69.070312 41.289062 69.207031 41.355469 69.273438 C 41.421875 69.40625 41.554688 69.40625 41.621094 69.273438 C 41.691406 69.136719 41.757812 68.804688 41.757812 68.335938 C 41.757812 67.9375 41.757812 67.402344 41.691406 66.734375 Z M 46.097656 69.136719 C 46.632812 68.9375 47.167969 68.738281 47.835938 68.46875 C 48.101562 68.402344 48.371094 68.269531 48.503906 68.070312 C 48.570312 68.003906 48.570312 67.871094 48.503906 67.734375 C 48.4375 67.535156 48.101562 67.402344 47.5 67.335938 C 47.234375 67.269531 46.964844 67.269531 46.632812 67.402344 C 46.433594 67.46875 46.164062 67.601562 45.832031 67.871094 C 45.765625 67.734375 45.699219 67.535156 45.699219 67.402344 C 45.5625 67 45.496094 66.667969 45.496094 66.398438 C 45.429688 66.199219 45.363281 66.066406 45.164062 66.066406 C 45.03125 66 44.695312 66 44.226562 66.066406 C 43.828125 66.199219 43.558594 66.332031 43.425781 66.535156 C 43.292969 66.734375 43.359375 66.867188 43.625 67 C 43.894531 67.066406 44.09375 67.203125 44.226562 67.402344 C 44.429688 67.800781 44.628906 68.203125 44.894531 68.671875 C 44.160156 69.207031 43.625 69.605469 43.226562 69.941406 C 43.160156 70.007812 43.160156 70.074219 43.292969 70.207031 C 43.425781 70.273438 43.558594 70.273438 43.761719 70.207031 C 44.226562 70.007812 44.695312 69.738281 45.230469 69.539062 C 45.230469 69.539062 45.230469 69.605469 45.296875 69.671875 C 45.5625 70.40625 45.832031 71.277344 46.03125 72.210938 C 46.03125 72.410156 46.03125 72.546875 46.097656 72.613281 C 46.164062 72.746094 46.296875 72.746094 46.367188 72.546875 C 46.433594 72.410156 46.5 72.144531 46.433594 71.675781 C 46.433594 71.210938 46.433594 70.609375 46.296875 69.941406 C 46.230469 69.738281 46.164062 69.472656 46.164062 69.207031 Z M 44.5625 79.824219 C 45.296875 79.558594 45.832031 79.023438 46.097656 78.355469 C 46.632812 76.621094 47.234375 74.816406 47.96875 73.078125 C 48.769531 71.140625 49.90625 68.671875 51.375 65.730469 C 52.242188 63.929688 52.84375 62.792969 53.246094 62.457031 C 53.578125 62.257812 53.847656 62.191406 53.980469 62.324219 C 54.046875 62.324219 54.179688 62.527344 54.382812 62.792969 C 54.714844 63.328125 55.050781 63.863281 55.449219 64.460938 C 55.648438 64.730469 55.785156 64.863281 55.917969 64.796875 C 56.050781 64.730469 56.183594 64.460938 56.183594 63.996094 C 56.25 62.59375 56.386719 61.390625 56.785156 60.386719 C 57.054688 59.585938 57.054688 59.117188 56.917969 59.050781 C 56.71875 58.984375 55.648438 59.253906 53.714844 59.988281 C 53.179688 60.1875 52.777344 60.523438 52.511719 61.054688 C 52.109375 61.925781 51.710938 62.859375 51.308594 63.792969 C 48.703125 61.191406 47.035156 59.1875 46.367188 57.714844 C 46.296875 57.382812 46.164062 57.25 45.898438 57.183594 C 45.496094 57.113281 44.761719 57.449219 43.625 58.117188 C 43.292969 58.316406 43.09375 58.585938 43.027344 58.851562 C 42.625 59.921875 42.15625 61.054688 41.621094 62.257812 C 41.421875 62.660156 41.421875 62.792969 41.757812 62.859375 C 42.089844 62.792969 42.425781 62.660156 42.691406 62.390625 C 43.027344 62.125 43.292969 61.789062 43.359375 61.390625 C 43.558594 60.921875 43.761719 60.386719 43.894531 59.855469 C 43.960938 59.71875 44.027344 59.652344 44.09375 59.652344 C 44.292969 59.519531 44.628906 59.652344 45.097656 59.988281 C 45.429688 60.320312 45.832031 60.65625 46.230469 61.054688 C 46.03125 61.121094 45.832031 61.191406 45.5625 61.457031 C 45.296875 61.789062 44.960938 62.324219 44.695312 63.125 C 44.5625 63.59375 44.496094 63.996094 44.363281 64.460938 C 44.226562 64.730469 44.363281 64.796875 44.894531 64.664062 C 45.03125 64.664062 45.164062 64.53125 45.296875 64.261719 C 45.898438 63.261719 46.433594 62.324219 46.832031 61.589844 C 47.234375 61.992188 47.703125 62.527344 48.234375 62.992188 C 48.101562 63.058594 47.902344 63.195312 47.769531 63.394531 C 47.5 63.726562 47.234375 64.261719 46.964844 65.0625 C 46.832031 65.53125 46.765625 66 46.699219 66.464844 C 46.632812 66.734375 46.765625 66.800781 47.167969 66.667969 C 47.300781 66.601562 47.433594 66.464844 47.566406 66.265625 C 48.035156 65.265625 48.503906 64.394531 48.835938 63.660156 C 49.371094 64.261719 49.972656 64.929688 50.640625 65.597656 C 50.375 66.066406 50.171875 66.535156 49.972656 67 C 48.902344 69.136719 47.632812 72.011719 46.097656 75.484375 C 46.03125 75.550781 46.03125 75.617188 46.03125 75.75 C 45.03125 75.417969 44.09375 75.082031 43.292969 74.75 C 43.695312 73.746094 44.09375 72.878906 44.363281 72.144531 C 44.496094 71.742188 44.429688 71.542969 44.09375 71.542969 C 43.761719 71.609375 43.492188 71.808594 43.160156 72.210938 C 42.890625 72.546875 42.691406 73.144531 42.558594 73.949219 C 42.558594 74.148438 42.492188 74.347656 42.558594 74.480469 C 42.15625 74.347656 41.757812 74.214844 41.488281 74.082031 C 41.222656 74.015625 40.953125 73.882812 40.6875 73.746094 C 41.023438 72.546875 41.355469 71.609375 41.691406 70.742188 C 41.824219 70.339844 41.757812 70.140625 41.421875 70.207031 C 41.089844 70.273438 40.820312 70.472656 40.554688 70.808594 C 40.285156 71.140625 40.152344 71.742188 40.019531 72.476562 C 39.953125 72.8125 39.953125 73.078125 39.953125 73.414062 C 39.550781 73.214844 39.285156 73.078125 39.152344 73.011719 C 38.949219 72.878906 38.683594 72.8125 38.550781 72.8125 C 38.550781 72.277344 38.550781 71.878906 38.484375 71.476562 C 38.484375 71.140625 38.484375 70.742188 38.417969 70.339844 C 38.28125 69.941406 38.28125 69.472656 38.351562 69.070312 C 38.417969 68.671875 38.214844 68.46875 37.882812 68.46875 C 37.480469 68.539062 37.082031 68.671875 36.679688 68.9375 C 36.277344 69.207031 36.011719 69.40625 35.945312 69.605469 C 35.878906 69.804688 35.945312 69.941406 36.144531 70.007812 C 36.414062 70.074219 36.679688 70.339844 36.878906 70.742188 C 37.082031 71.074219 37.28125 71.410156 37.480469 71.808594 C 37.613281 72.144531 37.75 72.546875 37.882812 72.878906 C 37.347656 73.144531 36.945312 73.480469 36.613281 73.949219 C 36.414062 74.148438 36.347656 74.414062 36.347656 74.617188 C 36.414062 74.816406 36.613281 74.949219 36.945312 74.882812 C 37.816406 74.816406 38.683594 74.882812 39.550781 75.015625 C 40.355469 75.21875 42.359375 75.816406 45.496094 76.886719 C 45.03125 77.753906 44.628906 78.625 44.226562 79.425781 C 44.160156 79.492188 44.160156 79.558594 44.160156 79.625 C 44.160156 79.625 44.09375 79.625 44.027344 79.558594 C 43.492188 79.492188 43.027344 79.558594 42.757812 79.691406 C 42.289062 79.824219 42.289062 80.09375 42.757812 80.425781 C 42.890625 80.492188 43.027344 80.5625 43.160156 80.628906 C 43.492188 80.894531 43.761719 81.160156 43.894531 81.496094 C 44.160156 82.097656 44.429688 82.832031 44.628906 83.632812 C 44.695312 83.902344 44.960938 84.167969 45.429688 84.300781 C 46.03125 84.566406 46.5 84.636719 46.898438 84.636719 C 47.566406 84.703125 47.703125 84.367188 47.433594 83.699219 C 47.167969 83.164062 46.765625 82.566406 46.230469 81.898438 C 45.5625 81.160156 45.097656 80.492188 44.695312 80.027344 Z M 57.453125 73.8125 C 58.523438 71.808594 59.859375 69.40625 61.59375 66.800781 C 61.996094 66.199219 62.328125 65.664062 62.597656 65.199219 C 62.863281 64.796875 62.929688 64.53125 62.796875 64.261719 C 62.597656 63.996094 62.261719 63.929688 61.796875 64.0625 C 60.992188 64.394531 60.394531 64.730469 59.925781 65.0625 C 59.523438 65.398438 59.257812 65.796875 59.058594 66.265625 C 58.390625 68.136719 57.386719 70.542969 56.117188 73.480469 C 56.050781 73.480469 55.917969 73.414062 55.785156 73.414062 C 55.382812 73.347656 55.050781 73.414062 54.714844 73.480469 C 54.648438 72.613281 54.582031 71.675781 54.515625 70.742188 C 54.449219 69.671875 54.449219 68.871094 54.648438 68.335938 C 54.78125 67.871094 54.648438 67.601562 54.3125 67.535156 C 53.980469 67.402344 53.046875 67.734375 51.574219 68.46875 C 51.175781 68.671875 50.90625 69.070312 50.773438 69.539062 C 50.441406 70.941406 49.90625 72.746094 49.304688 74.816406 C 49.171875 75.417969 48.703125 76.21875 47.902344 77.21875 C 47.632812 77.621094 47.703125 77.890625 48.167969 77.957031 C 48.503906 77.957031 48.902344 77.890625 49.304688 77.6875 C 50.039062 77.289062 50.375 76.6875 50.441406 75.886719 C 50.574219 75.351562 50.972656 73.746094 51.640625 71.007812 C 51.710938 70.675781 51.910156 70.472656 52.175781 70.339844 C 52.445312 70.207031 52.710938 70.273438 52.84375 70.542969 C 53.246094 71.476562 53.644531 72.546875 54.179688 73.613281 C 53.914062 73.746094 53.644531 73.882812 53.445312 74.148438 C 53.046875 74.480469 52.84375 74.75 52.910156 75.082031 C 52.910156 75.417969 53.113281 75.550781 53.511719 75.417969 C 54.113281 75.148438 54.714844 75.082031 55.382812 75.082031 C 53.847656 78.289062 52.242188 81.695312 50.507812 85.4375 C 50.238281 85.902344 50.441406 86.039062 50.972656 85.972656 C 51.441406 85.835938 51.84375 85.636719 52.175781 85.371094 C 52.578125 85.035156 52.84375 84.636719 52.910156 84.234375 C 53.644531 81.828125 54.648438 79.425781 55.851562 76.953125 C 56.050781 76.484375 56.316406 76.019531 56.585938 75.484375 C 57.519531 75.886719 58.390625 76.285156 59.191406 76.886719 C 60.058594 77.488281 60.660156 78.089844 60.992188 78.691406 C 61.328125 79.226562 61.261719 79.824219 60.726562 80.425781 C 60.257812 80.960938 59.792969 81.496094 59.390625 82.03125 C 59.191406 82.230469 59.257812 82.363281 59.523438 82.363281 C 59.726562 82.363281 60.058594 82.230469 60.460938 82.03125 C 61.59375 81.628906 62.53125 81.429688 63.132812 81.429688 C 63.597656 81.429688 63.933594 81.296875 64.066406 80.960938 C 64.199219 80.695312 64.132812 80.160156 63.933594 79.292969 C 63.734375 78.488281 63.332031 77.753906 62.597656 77.085938 C 61.796875 76.285156 60.726562 75.484375 59.324219 74.75 C 58.65625 74.414062 57.988281 74.148438 57.453125 73.882812 Z M 196.65625 69.941406 C 196.792969 70.140625 196.925781 70.339844 197.125 70.542969 C 198.796875 72.210938 200.265625 73.746094 201.402344 75.082031 C 201.132812 75.617188 201.066406 75.886719 201.199219 76.019531 C 201.402344 76.21875 201.800781 76.285156 202.402344 76.152344 C 202.9375 76.085938 203.335938 75.953125 203.605469 75.683594 C 204.40625 74.949219 205.476562 74.082031 206.878906 73.078125 C 207.277344 72.746094 207.746094 72.613281 208.214844 72.613281 C 208.613281 72.546875 208.816406 72.410156 208.882812 72.210938 C 208.949219 71.476562 208.816406 70.609375 208.546875 69.605469 C 208.414062 69.339844 208.148438 69.003906 207.746094 68.738281 C 206.878906 68.269531 206.007812 67.734375 205.074219 67 C 204.671875 66.601562 204.273438 66.265625 203.871094 65.933594 C 203.9375 65.933594 204.074219 65.933594 204.140625 65.933594 C 204.539062 66 204.941406 66.066406 205.410156 66.066406 C 205.609375 66.066406 205.875 66.132812 206.144531 66.199219 C 206.410156 66.332031 206.609375 66.265625 206.675781 66.132812 C 206.746094 66 206.8125 65.867188 206.878906 65.664062 C 207.546875 66.265625 208.28125 66.933594 209.082031 67.667969 C 210.015625 68.605469 210.820312 69.40625 211.554688 70.140625 C 211.6875 70.339844 211.886719 70.40625 212.15625 70.40625 C 212.355469 70.273438 212.421875 70.007812 212.289062 69.472656 C 212.289062 69.339844 212.222656 69.070312 212.089844 68.738281 C 211.953125 68.402344 211.753906 68.070312 211.421875 67.800781 C 210.484375 67.066406 209.550781 66.332031 208.613281 65.53125 C 207.480469 64.597656 206.476562 63.726562 205.542969 62.792969 C 204.941406 62.125 204.273438 61.457031 203.539062 60.789062 C 203.136719 60.386719 202.9375 60.453125 202.9375 60.988281 C 202.9375 61.257812 202.9375 61.589844 203.003906 61.925781 C 203.070312 62.257812 203.269531 62.527344 203.605469 62.792969 C 204.207031 63.328125 204.941406 63.996094 205.742188 64.664062 C 205.207031 64.796875 204.539062 64.929688 203.738281 65.128906 C 203.539062 65.128906 203.335938 65.128906 203.203125 65.265625 C 203.136719 65.128906 203.003906 65.0625 202.9375 64.996094 C 202.9375 64.597656 202.804688 64.195312 202.667969 63.863281 C 202.601562 63.726562 202.46875 63.660156 202.335938 63.660156 C 202.269531 63.726562 202.136719 63.792969 202.070312 63.996094 C 201.933594 64.195312 201.800781 64.394531 201.667969 64.664062 C 201.535156 64.863281 201.332031 65.0625 201.066406 65.265625 C 200.199219 66.066406 199.464844 66.667969 198.929688 67.066406 C 198.394531 67.46875 197.859375 67.734375 197.191406 68.003906 C 196.792969 68.136719 196.457031 68.335938 196.257812 68.605469 C 195.921875 69.070312 195.722656 69.40625 195.722656 69.671875 C 195.65625 69.941406 195.722656 70.074219 196.058594 70.074219 C 196.191406 70.074219 196.390625 70.007812 196.589844 69.941406 Z M 202.070312 74.015625 C 201.867188 73.613281 201.402344 73.078125 200.800781 72.546875 C 199.597656 71.476562 198.527344 70.542969 197.460938 69.605469 C 197.859375 69.40625 198.261719 69.136719 198.660156 68.871094 C 198.796875 68.804688 198.863281 68.671875 198.996094 68.605469 C 199.0625 68.804688 199.195312 68.9375 199.398438 69.207031 C 200.597656 70.273438 201.667969 71.277344 202.535156 72.078125 C 202.871094 72.34375 203.070312 72.34375 203.136719 72.078125 C 203.203125 71.742188 203.136719 71.410156 202.9375 71.007812 C 202.738281 70.609375 202.269531 70.207031 201.667969 69.738281 C 200.933594 69.207031 200.199219 68.671875 199.53125 68.203125 C 199.796875 68.003906 200.066406 67.734375 200.398438 67.535156 C 200.597656 67.402344 200.734375 67.269531 200.867188 67.132812 C 200.933594 67.269531 201.066406 67.46875 201.265625 67.667969 C 202.402344 68.671875 203.472656 69.605469 204.273438 70.339844 C 204.605469 70.609375 204.808594 70.609375 204.941406 70.339844 C 205.007812 70.007812 204.941406 69.671875 204.671875 69.273438 C 204.40625 68.9375 204.003906 68.539062 203.335938 68.070312 C 202.601562 67.601562 201.933594 67.203125 201.332031 66.800781 C 202 66.265625 202.46875 66 202.738281 65.796875 C 202.804688 65.933594 202.9375 66 203.003906 66.132812 C 203.804688 66.800781 204.539062 67.402344 205.140625 67.9375 C 206.476562 68.9375 207.144531 69.738281 207.144531 70.140625 C 207.011719 70.40625 206.609375 70.875 206.007812 71.410156 C 204.074219 73.011719 202.871094 73.882812 202.402344 74.082031 C 202.402344 74.082031 202.335938 74.082031 202.203125 74.148438 C 202.203125 74.148438 202.203125 74.015625 202.136719 73.882812 Z M 192.71875 77.152344 C 191.714844 76.953125 190.714844 76.6875 189.710938 76.21875 C 188.242188 75.484375 186.839844 74.550781 185.371094 73.414062 C 185.167969 73.214844 185.035156 73.214844 185.035156 73.546875 C 185.035156 73.679688 185.371094 74.148438 186.039062 74.882812 C 186.839844 75.816406 187.972656 76.621094 189.378906 77.355469 C 190.445312 77.957031 191.582031 78.355469 192.71875 78.558594 C 192.648438 80.492188 192.648438 82.429688 192.71875 84.367188 C 192.71875 85.101562 192.984375 85.769531 193.519531 86.371094 C 194.519531 87.507812 195.65625 88.574219 196.992188 89.511719 C 197.324219 89.777344 197.527344 89.910156 197.59375 89.84375 C 197.726562 89.777344 197.726562 89.578125 197.59375 89.242188 C 197.058594 88.042969 196.523438 86.707031 195.921875 85.371094 C 195.253906 83.765625 194.789062 82.230469 194.519531 80.828125 C 194.386719 80.09375 194.253906 79.359375 194.121094 78.625 C 195.121094 78.625 196.324219 78.488281 197.660156 78.289062 C 198.261719 78.15625 198.863281 78.222656 199.398438 78.355469 C 199.863281 78.488281 200.199219 78.421875 200.265625 78.089844 C 200.332031 77.753906 200.332031 77.21875 200.199219 76.484375 C 200.066406 76.019531 199.730469 75.617188 199.195312 75.285156 C 198.660156 74.949219 198.128906 74.550781 197.527344 74.082031 C 197.125 73.746094 196.726562 73.347656 196.125 72.8125 C 196.257812 72.679688 196.324219 72.546875 196.390625 72.34375 C 196.457031 72.011719 196.523438 71.609375 196.457031 71.277344 C 196.390625 70.875 196.324219 70.609375 196.191406 70.40625 C 196.125 70.273438 195.921875 70.273438 195.789062 70.472656 C 195.589844 70.609375 195.253906 70.808594 194.921875 70.941406 C 193.984375 71.074219 193.117188 71.140625 192.316406 71.074219 C 191.382812 71.007812 190.445312 70.875 189.644531 70.675781 C 188.777344 70.472656 187.441406 70.074219 185.636719 69.40625 C 185.503906 69.339844 185.4375 69.339844 185.503906 69.539062 C 185.570312 69.671875 185.769531 69.875 186.171875 70.074219 C 186.707031 70.472656 187.238281 70.808594 187.90625 71.210938 C 188.710938 71.609375 189.644531 72.011719 190.714844 72.277344 C 191.3125 72.410156 192.183594 72.546875 193.117188 72.746094 C 193.117188 72.746094 193.117188 72.8125 193.117188 72.878906 C 193.050781 74.347656 192.917969 75.75 192.851562 77.21875 Z M 196.257812 74.480469 C 197.125 75.082031 197.660156 75.484375 197.792969 75.617188 C 197.992188 76.019531 197.859375 76.285156 197.460938 76.417969 C 196.257812 76.886719 195.121094 77.152344 193.984375 77.21875 C 193.917969 76.6875 193.851562 76.085938 193.851562 75.550781 C 193.851562 74.347656 193.785156 73.480469 193.785156 72.878906 C 194.121094 72.878906 194.585938 72.945312 194.988281 73.011719 C 195.253906 73.546875 195.65625 74.082031 196.324219 74.550781 Z M 196.257812 74.480469 "/>
<path style=" stroke:none;fill-rule:evenodd;fill:rgb(0%,26.666667%,66.666667%);fill-opacity:1;" d="M 208.347656 187.636719 L 194.519531 177.550781 L 197.058594 174.007812 L 203.804688 176.480469 C 204.539062 176.746094 205.339844 177.015625 206.078125 177.347656 C 206.878906 177.683594 207.679688 178.015625 208.546875 178.351562 C 207.8125 177.949219 207.078125 177.484375 206.34375 177.015625 C 205.609375 176.546875 204.808594 176.011719 203.871094 175.34375 L 198.730469 171.605469 L 200.933594 168.53125 L 214.761719 178.617188 L 212.289062 182.023438 L 205.074219 179.488281 C 204.339844 179.21875 203.539062 178.953125 202.738281 178.617188 C 201.933594 178.285156 201.132812 177.949219 200.332031 177.550781 C 201.402344 178.21875 202.46875 178.886719 203.40625 179.488281 C 204.339844 180.085938 205.207031 180.6875 206.007812 181.289062 L 210.484375 184.5625 L 208.28125 187.636719 Z M 220.503906 148.960938 L 221.171875 145.21875 L 222.507812 145.488281 C 223.109375 145.621094 223.511719 145.554688 223.84375 145.421875 C 224.179688 145.285156 224.378906 144.953125 224.445312 144.550781 C 224.511719 144.152344 224.445312 143.816406 224.246094 143.550781 C 224.042969 143.28125 223.710938 143.082031 223.308594 143.015625 C 222.976562 142.949219 222.574219 143.015625 222.175781 143.148438 C 221.773438 143.28125 221.371094 143.550781 220.972656 143.949219 C 220.773438 144.085938 220.503906 144.351562 220.171875 144.683594 C 218.96875 145.753906 218.101562 146.488281 217.566406 146.890625 C 217.03125 147.222656 216.496094 147.492188 215.828125 147.625 C 215.160156 147.757812 214.558594 147.757812 213.824219 147.625 C 212.421875 147.355469 211.421875 146.757812 210.753906 145.753906 C 210.085938 144.753906 209.949219 143.484375 210.21875 141.878906 C 210.484375 140.34375 211.085938 139.207031 211.886719 138.539062 C 212.757812 137.871094 213.890625 137.671875 215.292969 137.9375 L 216.695312 138.207031 L 216.027344 141.8125 L 214.894531 141.613281 C 214.359375 141.546875 213.957031 141.546875 213.625 141.679688 C 213.355469 141.8125 213.15625 142.082031 213.089844 142.546875 C 213.023438 142.882812 213.089844 143.148438 213.289062 143.417969 C 213.492188 143.683594 213.757812 143.816406 214.160156 143.882812 C 214.761719 144.015625 215.960938 143.347656 217.566406 141.878906 L 217.699219 141.8125 L 217.964844 141.546875 C 219.4375 140.277344 220.503906 139.542969 221.039062 139.339844 C 221.441406 139.207031 221.839844 139.140625 222.308594 139.140625 C 222.777344 139.140625 223.242188 139.140625 223.710938 139.207031 C 225.179688 139.476562 226.183594 140.144531 226.851562 141.144531 C 227.519531 142.214844 227.71875 143.550781 227.382812 145.152344 C 227.117188 146.757812 226.449219 147.890625 225.515625 148.625 C 224.578125 149.292969 223.308594 149.5625 221.707031 149.226562 L 220.4375 149.027344 Z M 223.710938 159.179688 L 207.480469 153.902344 L 208.679688 150.230469 L 224.914062 155.507812 Z M 212.421875 171.003906 L 213.957031 167.53125 L 215.226562 168.0625 C 215.761719 168.332031 216.164062 168.398438 216.496094 168.332031 C 216.832031 168.265625 217.097656 167.996094 217.296875 167.664062 C 217.433594 167.328125 217.5 166.996094 217.296875 166.660156 C 217.164062 166.328125 216.898438 166.128906 216.496094 165.925781 C 216.164062 165.792969 215.761719 165.726562 215.359375 165.792969 C 214.960938 165.859375 214.492188 165.992188 213.957031 166.261719 C 213.757812 166.394531 213.425781 166.527344 212.957031 166.796875 C 211.554688 167.53125 210.550781 168.0625 209.882812 168.265625 C 209.28125 168.464844 208.679688 168.597656 208.011719 168.53125 C 207.34375 168.464844 206.746094 168.332031 206.078125 168.0625 C 204.742188 167.464844 203.9375 166.59375 203.539062 165.527344 C 203.136719 164.390625 203.269531 163.121094 203.9375 161.652344 C 204.605469 160.183594 205.410156 159.246094 206.410156 158.847656 C 207.414062 158.378906 208.546875 158.511719 209.882812 159.113281 L 211.152344 159.714844 L 209.683594 163.054688 L 208.613281 162.585938 C 208.148438 162.386719 207.679688 162.320312 207.414062 162.386719 C 207.078125 162.453125 206.878906 162.71875 206.675781 163.054688 C 206.542969 163.386719 206.542969 163.65625 206.675781 163.921875 C 206.8125 164.191406 207.011719 164.457031 207.414062 164.589844 C 208.011719 164.859375 209.28125 164.457031 211.21875 163.523438 L 211.351562 163.457031 L 211.6875 163.253906 C 213.425781 162.386719 214.625 161.917969 215.226562 161.917969 C 215.628906 161.917969 216.027344 161.917969 216.496094 161.984375 C 216.964844 162.050781 217.363281 162.1875 217.832031 162.386719 C 219.167969 162.988281 220.035156 163.855469 220.4375 165.058594 C 220.839844 166.261719 220.703125 167.597656 219.96875 169.066406 C 219.300781 170.535156 218.433594 171.539062 217.296875 171.9375 C 216.164062 172.40625 214.894531 172.273438 213.492188 171.605469 L 212.289062 171.070312 Z M 199.0625 198.589844 L 186.773438 186.699219 L 192.785156 180.488281 L 195.1875 182.757812 L 191.847656 186.234375 L 194.320312 188.570312 L 197.257812 185.5 L 199.597656 187.769531 L 196.65625 190.84375 L 199.398438 193.515625 L 202.804688 189.972656 L 205.207031 192.246094 L 199.128906 198.589844 Z M 191.78125 205.136719 L 180.359375 192.445312 L 183.230469 189.839844 L 194.652344 202.53125 Z M 174.414062 202.0625 L 179.023438 208.945312 C 179.359375 209.410156 179.625 209.679688 179.957031 209.8125 C 180.226562 209.945312 180.558594 209.878906 180.894531 209.613281 C 181.226562 209.410156 181.429688 209.144531 181.429688 208.808594 C 181.429688 208.476562 181.292969 208.140625 180.960938 207.675781 L 176.351562 200.792969 C 176.019531 200.328125 175.75 200.058594 175.417969 199.925781 C 175.148438 199.792969 174.816406 199.859375 174.480469 200.125 C 174.148438 200.328125 173.945312 200.59375 173.945312 200.929688 C 173.945312 201.261719 174.082031 201.664062 174.414062 202.0625 Z M 171.542969 204.800781 C 170.539062 203.332031 170.207031 201.996094 170.40625 200.792969 C 170.605469 199.59375 171.410156 198.523438 172.8125 197.589844 C 174.214844 196.652344 175.550781 196.253906 176.6875 196.519531 C 177.886719 196.785156 178.957031 197.65625 179.957031 199.125 L 183.898438 204.9375 C 184.902344 206.40625 185.300781 207.742188 185.035156 208.945312 C 184.835938 210.144531 184.035156 211.214844 182.628906 212.148438 C 181.226562 213.085938 179.957031 213.417969 178.757812 213.152344 C 177.554688 212.886719 176.484375 212.015625 175.484375 210.613281 Z M 159.25 223.570312 L 152.707031 207.742188 L 158.183594 205.46875 L 160.988281 210.214844 C 161.324219 210.8125 161.65625 211.414062 162.058594 212.082031 C 162.390625 212.75 162.792969 213.484375 163.125 214.289062 C 162.792969 213.351562 162.523438 212.484375 162.324219 211.75 C 162.125 211.015625 161.921875 210.414062 161.855469 210.011719 L 160.519531 204.535156 L 166 202.265625 L 172.542969 218.09375 L 169.136719 219.496094 L 166.734375 213.6875 C 166.265625 212.484375 165.730469 211.214844 165.195312 209.945312 C 164.664062 208.675781 164.195312 207.339844 163.660156 205.9375 C 163.996094 207.40625 164.328125 208.609375 164.527344 209.613281 C 164.796875 210.613281 164.929688 211.214844 164.996094 211.480469 L 167.066406 220.300781 L 164.796875 221.234375 L 160.1875 213.886719 C 159.519531 212.816406 158.984375 211.882812 158.449219 211.082031 C 157.984375 210.214844 157.449219 209.410156 157.046875 208.675781 C 157.582031 209.878906 158.117188 211.082031 158.652344 212.285156 C 159.183594 213.484375 159.71875 214.820312 160.320312 216.292969 L 162.726562 222.101562 L 159.320312 223.503906 Z M 142.417969 227.179688 L 142.886719 209.8125 L 148.03125 209.011719 L 153.707031 225.441406 L 149.632812 226.042969 L 148.765625 223.039062 L 146.160156 223.4375 L 146.226562 226.511719 L 142.351562 227.113281 Z M 146.160156 220.367188 L 147.964844 220.097656 L 146.558594 215.023438 C 146.492188 214.6875 146.359375 214.289062 146.292969 213.953125 C 146.226562 213.554688 146.027344 212.953125 145.824219 212.21875 C 145.824219 212.683594 145.890625 213.152344 145.890625 213.6875 C 145.890625 214.152344 145.960938 214.6875 145.960938 215.222656 L 146.09375 220.5 Z M 122.714844 222.703125 L 126.519531 222.902344 L 126.453125 224.308594 C 126.453125 224.90625 126.519531 225.308594 126.722656 225.574219 C 126.921875 225.84375 127.1875 226.042969 127.65625 226.042969 C 128.058594 226.042969 128.390625 225.976562 128.59375 225.710938 C 128.859375 225.441406 128.992188 225.109375 128.992188 224.707031 C 128.992188 224.375 128.925781 223.972656 128.726562 223.640625 C 128.523438 223.238281 128.191406 222.902344 127.789062 222.503906 C 127.589844 222.304688 127.324219 222.101562 126.921875 221.769531 C 125.71875 220.765625 124.917969 219.964844 124.449219 219.429688 C 124.050781 218.964844 123.714844 218.429688 123.515625 217.828125 C 123.316406 217.226562 123.25 216.558594 123.25 215.824219 C 123.316406 214.421875 123.847656 213.285156 124.71875 212.550781 C 125.652344 211.816406 126.855469 211.480469 128.457031 211.550781 C 130.0625 211.617188 131.195312 212.082031 131.933594 212.816406 C 132.667969 213.621094 133 214.6875 132.933594 216.15625 L 132.867188 217.5625 L 129.191406 217.359375 L 129.261719 216.15625 C 129.261719 215.625 129.191406 215.222656 129.058594 214.957031 C 128.859375 214.6875 128.59375 214.554688 128.191406 214.554688 C 127.855469 214.554688 127.589844 214.621094 127.324219 214.890625 C 127.121094 215.089844 126.988281 215.421875 126.988281 215.757812 C 126.921875 216.425781 127.722656 217.425781 129.394531 218.964844 L 129.726562 219.296875 C 131.128906 220.632812 132 221.570312 132.265625 222.101562 C 132.464844 222.503906 132.601562 222.902344 132.667969 223.304688 C 132.734375 223.773438 132.800781 224.242188 132.734375 224.707031 C 132.667969 226.175781 132.132812 227.3125 131.195312 228.046875 C 130.261719 228.847656 128.925781 229.183594 127.324219 229.050781 C 125.71875 228.984375 124.449219 228.515625 123.648438 227.578125 C 122.847656 226.710938 122.515625 225.441406 122.582031 223.90625 L 122.648438 222.636719 Z M 107.152344 227.378906 L 111.691406 210.613281 L 116.835938 211.082031 L 118.507812 228.382812 L 114.429688 228.046875 L 114.296875 224.976562 L 111.625 224.773438 L 110.957031 227.78125 L 107.082031 227.445312 Z M 112.359375 221.636719 L 114.230469 221.769531 L 114.097656 216.492188 C 114.097656 216.15625 114.097656 215.757812 114.097656 215.355469 C 114.097656 214.957031 114.097656 214.355469 114.097656 213.554688 C 114.03125 214.019531 113.898438 214.488281 113.832031 214.957031 C 113.761719 215.421875 113.628906 215.957031 113.496094 216.492188 L 112.425781 221.636719 Z M 97.132812 224.90625 L 100.003906 211.414062 L 97.53125 210.882812 L 98.199219 207.675781 L 106.882812 209.546875 L 106.214844 212.75 L 103.742188 212.21875 L 100.871094 225.710938 Z M 85.507812 220.699219 L 92.054688 204.871094 L 95.59375 206.339844 L 89.046875 222.167969 Z M 74.621094 208.210938 L 77.894531 210.214844 L 77.160156 211.414062 C 76.824219 211.882812 76.691406 212.351562 76.757812 212.683594 C 76.757812 213.019531 76.957031 213.351562 77.359375 213.554688 C 77.691406 213.753906 78.027344 213.820312 78.359375 213.753906 C 78.695312 213.6875 78.960938 213.417969 79.164062 213.085938 C 79.363281 212.75 79.429688 212.417969 79.429688 212.015625 C 79.429688 211.617188 79.363281 211.148438 79.164062 210.613281 C 79.097656 210.347656 78.960938 210.011719 78.761719 209.546875 C 78.226562 208.074219 77.894531 207.007812 77.761719 206.273438 C 77.625 205.671875 77.625 205.003906 77.761719 204.402344 C 77.894531 203.800781 78.160156 203.132812 78.496094 202.53125 C 79.230469 201.328125 80.230469 200.59375 81.367188 200.394531 C 82.503906 200.195312 83.773438 200.527344 85.109375 201.328125 C 86.445312 202.199219 87.246094 203.132812 87.578125 204.132812 C 87.847656 205.203125 87.644531 206.339844 86.84375 207.542969 L 86.109375 208.742188 L 83.035156 206.804688 L 83.636719 205.804688 C 83.90625 205.335938 84.039062 204.9375 84.039062 204.601562 C 84.039062 204.269531 83.839844 204 83.4375 203.800781 C 83.171875 203.601562 82.835938 203.601562 82.570312 203.667969 C 82.300781 203.734375 82.035156 203.933594 81.835938 204.269531 C 81.5 204.800781 81.699219 206.136719 82.367188 208.210938 L 82.4375 208.34375 L 82.570312 208.675781 C 83.171875 210.546875 83.4375 211.75 83.4375 212.351562 C 83.4375 212.75 83.304688 213.152344 83.171875 213.621094 C 83.035156 214.019531 82.835938 214.488281 82.570312 214.890625 C 81.769531 216.15625 80.765625 216.894531 79.5625 217.09375 C 78.359375 217.292969 77.023438 216.960938 75.621094 216.089844 C 74.21875 215.222656 73.417969 214.222656 73.152344 213.085938 C 72.882812 211.949219 73.152344 210.679688 74.019531 209.34375 L 74.6875 208.277344 Z M 68.140625 198.589844 C 68.808594 199.125 69.34375 199.390625 69.746094 199.390625 C 70.144531 199.390625 70.480469 199.191406 70.8125 198.789062 L 71.414062 198.054688 C 71.75 197.589844 71.882812 197.1875 71.816406 196.855469 C 71.75 196.519531 71.347656 196.050781 70.746094 195.585938 L 70.613281 195.519531 L 68.074219 198.65625 Z M 58.722656 204.132812 L 69.476562 190.84375 L 73.753906 194.316406 C 74.886719 195.183594 75.488281 196.117188 75.6875 197.054688 C 75.890625 197.988281 75.554688 198.925781 74.820312 199.859375 L 74.6875 199.992188 L 74.085938 200.726562 C 73.550781 201.394531 72.949219 201.863281 72.347656 202.0625 C 71.75 202.265625 71.082031 202.199219 70.34375 201.996094 C 70.8125 202.664062 70.945312 203.265625 70.878906 203.867188 C 70.8125 204.46875 70.480469 205.136719 69.945312 205.871094 L 67.472656 208.945312 C 67.207031 209.277344 67.003906 209.613281 66.871094 209.878906 C 66.738281 210.144531 66.671875 210.347656 66.605469 210.613281 L 63.597656 208.140625 C 63.664062 207.941406 63.734375 207.742188 63.867188 207.472656 C 64 207.207031 64.265625 206.875 64.601562 206.472656 L 66.671875 203.933594 C 67.273438 203.199219 67.539062 202.664062 67.472656 202.265625 C 67.40625 201.863281 67.074219 201.394531 66.40625 200.792969 L 61.660156 206.605469 L 58.722656 204.203125 Z M 48.4375 193.78125 L 60.792969 182.023438 L 66.738281 188.304688 L 64.332031 190.574219 L 61.0625 187.101562 L 58.589844 189.4375 L 61.527344 192.511719 L 59.191406 194.78125 L 56.25 191.710938 L 53.511719 194.316406 L 56.917969 197.921875 L 54.515625 200.195312 Z M 40.355469 182.691406 L 52.976562 170.871094 L 55.25 174.277344 L 49.839844 178.75 C 49.570312 178.953125 49.039062 179.417969 48.167969 180.085938 C 47.300781 180.753906 46.367188 181.492188 45.230469 182.359375 C 46.5 181.625 47.96875 180.824219 49.707031 179.886719 C 49.972656 179.753906 50.238281 179.621094 50.375 179.554688 L 56.585938 176.214844 L 58.789062 179.554688 L 43.09375 186.835938 L 40.355469 182.757812 Z M 34.074219 171.804688 L 49.4375 164.324219 L 51.109375 167.796875 L 35.746094 175.277344 Z M 27.863281 156.308594 L 44.027344 150.695312 L 45.429688 154.773438 L 39.550781 158.914062 C 38.882812 159.378906 38.214844 159.847656 37.546875 160.316406 C 36.8125 160.785156 36.078125 161.25 35.277344 161.71875 C 36.078125 161.316406 36.8125 160.984375 37.613281 160.648438 C 38.417969 160.316406 39.351562 159.980469 40.421875 159.582031 L 46.433594 157.511719 L 47.632812 161.050781 L 31.46875 166.660156 L 30.132812 162.71875 L 36.347656 158.246094 C 37.015625 157.777344 37.683594 157.308594 38.417969 156.84375 C 39.152344 156.375 39.886719 155.90625 40.6875 155.507812 C 39.484375 156.039062 38.417969 156.507812 37.347656 156.910156 C 36.277344 157.308594 35.34375 157.710938 34.410156 158.042969 L 29.199219 159.847656 L 27.996094 156.308594 Z M 41.890625 141.8125 L 29.265625 143.214844 C 28.730469 143.28125 28.332031 143.417969 28.0625 143.617188 C 27.863281 143.816406 27.730469 144.152344 27.796875 144.550781 C 27.863281 144.953125 27.996094 145.21875 28.261719 145.421875 C 28.53125 145.554688 28.929688 145.621094 29.464844 145.554688 L 42.089844 144.152344 L 42.492188 148.023438 L 30.535156 149.359375 C 28.796875 149.5625 27.394531 149.292969 26.460938 148.558594 C 25.457031 147.824219 24.921875 146.621094 24.722656 144.953125 C 24.523438 143.28125 24.855469 142.011719 25.660156 141.078125 C 26.460938 140.144531 27.730469 139.609375 29.464844 139.410156 L 41.421875 138.074219 L 41.824219 141.945312 Z M 41.890625 141.8125 "/>
<path style=" stroke:none;fill-rule:evenodd;fill:rgb(0%,26.666667%,66.666667%);fill-opacity:1;" d="M 125.988281 4.078125 C 193.25 4.078125 248.089844 58.917969 248.089844 126.183594 C 248.089844 193.445312 193.25 248.285156 125.988281 248.285156 C 58.722656 248.285156 3.882812 193.445312 3.882812 126.183594 C 3.882812 58.917969 58.722656 4.078125 125.988281 4.078125 Z M 125.988281 14.632812 C 187.441406 14.632812 237.605469 64.796875 237.605469 126.25 C 237.605469 187.703125 187.441406 237.867188 125.988281 237.867188 C 64.535156 237.867188 14.371094 187.703125 14.371094 126.25 C 14.371094 64.796875 64.535156 14.632812 125.988281 14.632812 Z M 125.988281 17.105469 C 186.105469 17.105469 235.132812 66.132812 235.132812 126.25 C 235.132812 186.367188 186.105469 235.394531 125.988281 235.394531 C 65.871094 235.394531 16.839844 186.367188 16.839844 126.25 C 16.839844 66.132812 65.871094 17.105469 125.988281 17.105469 Z M 125.988281 50.570312 C 167.667969 50.570312 201.667969 84.566406 201.667969 126.25 C 201.667969 167.929688 167.667969 201.929688 125.988281 201.929688 C 84.304688 201.929688 50.304688 167.929688 50.304688 126.25 C 50.304688 84.566406 84.304688 50.570312 125.988281 50.570312 Z M 125.988281 52.707031 C 166.464844 52.707031 199.53125 85.769531 199.53125 126.25 C 199.53125 166.726562 166.464844 199.792969 125.988281 199.792969 C 85.507812 199.792969 52.445312 166.726562 52.445312 126.25 C 52.445312 85.769531 85.507812 52.707031 125.988281 52.707031 Z M 125.988281 9.6875 C 190.179688 9.6875 242.546875 62.058594 242.546875 126.25 C 242.546875 190.441406 190.179688 242.808594 125.988281 242.808594 C 61.796875 242.808594 9.425781 190.441406 9.425781 126.25 C 9.425781 62.058594 61.796875 9.6875 125.988281 9.6875 Z M 125.988281 9.6875 "/>
<path style=" stroke:none;fill-rule:evenodd;fill:rgb(0%,26.666667%,66.666667%);fill-opacity:1;" d="M 140.347656 98.996094 L 143.152344 98.996094 L 143.152344 95.457031 L 145.023438 95.457031 L 145.023438 98.996094 L 148.765625 98.996094 L 148.765625 95.457031 L 150.769531 95.457031 L 150.769531 100.800781 L 135.804688 100.800781 L 135.804688 97.859375 L 137.207031 97.859375 L 137.207031 95.457031 L 139.28125 95.457031 L 139.28125 98.996094 Z M 126.386719 107.613281 C 127.054688 107.679688 127.722656 107.8125 128.390625 108.015625 L 129.191406 105.875 C 128.390625 105.609375 127.523438 105.410156 126.65625 105.34375 L 126.453125 105.34375 L 126.453125 107.613281 Z M 129.261719 108.347656 C 129.792969 108.613281 130.328125 108.949219 130.796875 109.417969 L 132.464844 107.746094 C 131.730469 107.144531 130.929688 106.609375 129.996094 106.210938 L 129.191406 108.347656 Z M 131.53125 110.019531 C 131.796875 110.351562 132.066406 110.6875 132.332031 111.019531 L 134.738281 110.351562 C 134.335938 109.617188 133.800781 108.949219 133.199219 108.347656 Z M 132.800781 111.886719 C 133 112.355469 133.199219 112.890625 133.335938 113.425781 L 135.671875 113.425781 L 135.671875 112.289062 L 135.605469 112.289062 C 135.472656 111.953125 135.339844 111.621094 135.203125 111.285156 L 132.800781 111.953125 Z M 132.601562 113.957031 L 132.53125 113.957031 C 132.398438 113.289062 132.199219 112.691406 131.933594 112.15625 L 131.863281 112.023438 C 131.464844 111.355469 130.996094 110.6875 130.460938 110.21875 L 130.261719 110.085938 C 129.125 109.082031 127.589844 108.480469 125.988281 108.480469 C 122.714844 108.480469 119.976562 110.886719 119.375 114.027344 L 119.308594 114.027344 L 119.308594 124.445312 L 132.601562 124.445312 Z M 118.574219 113.425781 C 118.707031 112.890625 118.839844 112.421875 119.105469 111.886719 L 116.703125 111.21875 C 116.570312 111.554688 116.433594 111.886719 116.300781 112.222656 L 116.234375 112.222656 L 116.234375 113.359375 L 118.574219 113.359375 Z M 119.574219 111.085938 C 119.773438 110.753906 120.042969 110.417969 120.308594 110.085938 L 118.640625 108.414062 C 118.039062 109.015625 117.570312 109.683594 117.101562 110.417969 L 119.507812 111.085938 Z M 120.976562 109.417969 C 121.445312 109.015625 121.980469 108.683594 122.515625 108.347656 L 121.710938 106.210938 C 120.84375 106.609375 120.042969 107.144531 119.308594 107.746094 Z M 123.382812 108.015625 C 124.050781 107.746094 124.785156 107.613281 125.519531 107.613281 L 125.519531 105.34375 L 125.320312 105.34375 C 124.382812 105.410156 123.515625 105.609375 122.648438 105.875 L 123.449219 108.015625 Z M 130.328125 105.34375 C 132 106.078125 133.402344 107.210938 134.535156 108.613281 L 134.535156 105.34375 Z M 135.003906 109.214844 C 135.070312 109.351562 135.203125 109.484375 135.273438 109.683594 L 135.273438 109.214844 Z M 135.40625 109.882812 C 135.738281 110.484375 136.074219 111.152344 136.339844 111.820312 L 138.476562 111.820312 L 138.476562 109.882812 Z M 115.433594 111.820312 C 115.699219 111.152344 115.96875 110.484375 116.367188 109.882812 L 113.363281 109.882812 L 113.363281 111.820312 Z M 116.703125 109.28125 C 116.703125 109.28125 116.703125 109.28125 116.703125 109.214844 Z M 117.171875 108.683594 C 118.304688 107.277344 119.773438 106.078125 121.445312 105.34375 L 117.171875 105.34375 Z M 135.539062 114.425781 L 133.46875 114.425781 L 133.46875 116.230469 L 135.539062 116.230469 Z M 135.539062 117.164062 L 133.46875 117.164062 L 133.46875 118.96875 L 135.539062 118.96875 Z M 135.539062 119.902344 L 133.46875 119.902344 L 133.46875 121.707031 L 135.539062 121.707031 Z M 135.539062 122.640625 L 133.46875 122.640625 L 133.46875 124.445312 L 135.539062 124.445312 Z M 118.238281 114.425781 L 116.167969 114.425781 L 116.167969 116.230469 L 118.238281 116.230469 Z M 118.238281 117.164062 L 116.167969 117.164062 L 116.167969 118.96875 L 118.238281 118.96875 Z M 118.238281 119.902344 L 116.167969 119.902344 L 116.167969 121.640625 L 118.238281 121.640625 L 118.238281 119.835938 Z M 118.238281 122.640625 L 116.167969 122.640625 L 116.167969 124.445312 L 118.238281 124.445312 Z M 112.628906 116.429688 L 112.628906 119.769531 L 115.234375 119.769531 L 115.234375 116.429688 Z M 111.691406 119.769531 L 111.691406 116.429688 L 108.21875 116.429688 L 108.21875 119.769531 Z M 110.890625 120.707031 L 110.890625 124.445312 L 115.234375 124.445312 L 115.234375 120.707031 Z M 109.957031 124.445312 L 109.957031 120.707031 L 108.21875 120.707031 L 108.21875 124.445312 Z M 110.890625 112.824219 L 110.890625 115.496094 L 115.234375 115.496094 L 115.234375 112.824219 Z M 109.957031 115.496094 L 109.957031 112.824219 L 108.21875 112.824219 L 108.21875 115.496094 Z M 112.425781 111.886719 L 112.425781 109.949219 L 108.285156 109.949219 L 108.285156 111.886719 Z M 116.234375 109.015625 L 116.234375 105.410156 L 110.890625 105.410156 L 110.890625 109.015625 Z M 109.957031 109.015625 L 109.957031 105.410156 L 105.011719 105.410156 L 105.011719 109.015625 Z M 104.078125 109.015625 L 104.078125 105.410156 L 101.207031 105.410156 L 101.207031 109.015625 Z M 150.835938 105.410156 L 147.628906 105.410156 L 147.628906 109.015625 L 150.835938 109.015625 Z M 146.695312 105.410156 L 141.75 105.410156 L 141.75 109.015625 L 146.695312 109.015625 Z M 140.816406 105.410156 L 135.472656 105.410156 L 135.472656 109.015625 L 140.816406 109.015625 Z M 101.207031 104.472656 L 103.210938 104.472656 L 103.210938 101.800781 L 101.207031 101.800781 Z M 104.144531 104.472656 L 107.75 104.472656 L 107.75 101.800781 L 104.144531 101.800781 Z M 108.6875 104.472656 L 111.691406 104.472656 L 111.691406 101.800781 L 108.6875 101.800781 Z M 112.695312 104.472656 L 119.105469 104.472656 L 119.105469 101.800781 L 112.695312 101.800781 Z M 120.109375 104.472656 L 125.519531 104.472656 L 125.519531 101.800781 L 120.109375 101.800781 Z M 126.453125 104.472656 L 131.863281 104.472656 L 131.863281 101.800781 L 126.453125 101.800781 Z M 132.800781 104.472656 L 139.210938 104.472656 L 139.210938 101.800781 L 132.800781 101.800781 Z M 140.148438 104.472656 L 143.152344 104.472656 L 143.152344 101.800781 L 140.148438 101.800781 Z M 144.15625 104.472656 L 147.761719 104.472656 L 147.761719 101.800781 L 144.15625 101.800781 Z M 148.699219 104.472656 L 150.96875 104.472656 L 150.96875 101.800781 L 148.699219 101.800781 Z M 150.96875 109.949219 L 144.691406 109.949219 L 144.691406 125.382812 L 107.550781 125.382812 L 107.550781 109.949219 L 100.472656 109.949219 L 100.472656 94.585938 L 104.34375 94.585938 L 104.34375 98.128906 L 106.214844 98.128906 L 106.214844 94.585938 L 109.957031 94.585938 L 109.957031 98.128906 L 111.828125 98.128906 L 111.828125 94.585938 L 114.632812 94.585938 L 114.632812 86.640625 L 118.707031 86.640625 L 118.707031 90.3125 L 120.910156 90.3125 L 120.910156 86.640625 L 124.984375 86.640625 L 124.984375 90.3125 L 127.1875 90.3125 L 127.1875 86.640625 L 131.265625 86.640625 L 131.265625 90.3125 L 133.46875 90.3125 L 133.46875 86.640625 L 137.476562 86.640625 L 137.476562 94.585938 L 140.480469 94.585938 L 140.480469 98.128906 L 142.351562 98.128906 L 142.351562 94.585938 L 146.09375 94.585938 L 146.09375 98.128906 L 147.964844 98.128906 L 147.964844 94.585938 L 151.835938 94.585938 L 151.835938 109.949219 L 150.902344 109.949219 Z M 143.6875 109.949219 L 139.480469 109.949219 L 139.480469 111.886719 L 143.6875 111.886719 Z M 114.632812 95.523438 L 112.761719 95.523438 L 112.761719 99.0625 L 109.019531 99.0625 L 109.019531 95.523438 L 107.152344 95.523438 L 107.152344 99.0625 L 103.410156 99.0625 L 103.410156 95.523438 L 101.40625 95.523438 L 101.40625 100.867188 L 116.167969 100.867188 L 116.167969 97.925781 L 114.765625 97.925781 L 114.765625 95.523438 Z M 116.96875 100.867188 L 116.96875 97.925781 L 122.3125 97.925781 L 122.3125 100.867188 L 116.902344 100.867188 Z M 123.316406 100.867188 L 123.316406 97.925781 L 128.726562 97.925781 L 128.726562 100.867188 Z M 129.660156 100.867188 L 129.660156 97.925781 L 135.070312 97.925781 L 135.070312 100.867188 Z M 136.609375 124.445312 L 141.015625 124.445312 L 141.015625 120.707031 L 136.609375 120.707031 Z M 141.953125 124.445312 L 143.753906 124.445312 L 143.753906 120.707031 L 141.953125 120.707031 Z M 136.472656 87.574219 L 136.472656 92.382812 L 115.566406 92.382812 L 115.566406 87.574219 L 117.769531 87.574219 L 117.769531 91.246094 L 121.777344 91.246094 L 121.777344 91.113281 L 121.847656 91.113281 L 121.847656 87.574219 L 124.050781 87.574219 L 124.050781 91.246094 L 128.058594 91.246094 L 128.058594 91.113281 L 128.125 91.113281 L 128.125 87.574219 L 130.328125 87.574219 L 130.328125 91.246094 L 134.335938 91.246094 L 134.335938 91.113281 L 134.402344 91.113281 L 134.402344 87.574219 L 136.609375 87.574219 Z M 115.566406 96.992188 L 115.566406 93.320312 L 119.707031 93.320312 L 119.707031 96.992188 Z M 120.710938 96.992188 L 120.710938 93.320312 L 125.71875 93.320312 L 125.71875 96.992188 Z M 126.722656 96.992188 L 126.722656 93.320312 L 131.730469 93.320312 L 131.730469 96.992188 Z M 132.734375 96.992188 L 132.734375 93.320312 L 136.539062 93.320312 L 136.539062 96.992188 Z M 143.820312 119.769531 L 143.820312 116.429688 L 140.28125 116.429688 L 140.28125 119.769531 Z M 143.820312 115.496094 L 143.820312 112.824219 L 142.019531 112.824219 L 142.019531 115.496094 Z M 139.347656 116.429688 L 139.347656 119.769531 L 136.742188 119.769531 L 136.742188 116.429688 Z M 141.082031 112.824219 L 141.082031 115.496094 L 136.675781 115.496094 L 136.675781 112.824219 Z M 141.082031 112.824219 "/>
<path style=" stroke:none;fill-rule:evenodd;fill:rgb(0%,26.666667%,66.666667%);fill-opacity:1;" d="M 88.246094 89.3125 L 114.5 89.3125 L 114.5 90.78125 L 88.246094 90.78125 Z M 137.277344 89.3125 L 163.660156 89.3125 L 163.660156 90.78125 L 137.277344 90.78125 Z M 89.316406 104.875 L 100.539062 104.875 L 100.539062 106.34375 L 89.316406 106.34375 Z M 151.636719 104.875 L 162.660156 104.875 L 162.660156 106.34375 L 151.636719 106.34375 Z M 90.117188 117.03125 L 107.351562 117.03125 L 107.351562 118.5 L 90.117188 118.5 Z M 119.242188 117.03125 L 132.53125 117.03125 L 132.53125 118.5 L 119.242188 118.5 Z M 144.554688 117.03125 L 161.855469 117.03125 L 161.855469 118.5 L 144.554688 118.5 Z M 93.125 131.792969 L 110.421875 131.792969 L 117.171875 125.046875 L 119.242188 125.046875 L 112.496094 131.792969 L 138.679688 131.792969 L 131.597656 124.714844 L 132.601562 124.714844 L 132.601562 125.113281 L 134.070312 125.113281 L 140.816406 131.859375 L 158.917969 131.859375 L 158.917969 133.328125 L 93.257812 133.328125 L 93.257812 131.859375 Z M 119.242188 124.714844 L 119.640625 124.714844 L 119.242188 125.113281 Z M 119.242188 124.714844 "/>
<path style=" stroke:none;fill-rule:evenodd;fill:rgb(0%,26.666667%,66.666667%);fill-opacity:1;" d="M 99.066406 67 L 79.5625 83.96875 C 84.972656 84.566406 88.582031 90.511719 88.648438 95.589844 L 88.648438 107.414062 C 88.648438 117.964844 89.046875 136.601562 100.539062 141.210938 C 102.609375 142.011719 113.230469 144.550781 118.371094 147.089844 C 124.585938 150.164062 125.253906 153.234375 126.054688 153.367188 C 127.1875 152.300781 128.324219 149.828125 132.800781 147.558594 C 138.410156 144.683594 148.296875 142.546875 151.503906 141.210938 C 162.992188 136.601562 163.328125 117.964844 163.394531 107.414062 L 163.394531 96.257812 C 163.394531 90.847656 166.597656 84.703125 172.476562 84.035156 L 152.972656 67.066406 C 143.6875 72.8125 137.476562 75.417969 126.253906 75.484375 C 114.832031 75.550781 108.488281 72.945312 99.136719 67.066406 Z M 99.335938 69.539062 L 83.304688 83.164062 C 83.636719 83.097656 87.78125 85.234375 89.648438 91.179688 C 90.453125 93.585938 90.519531 96.523438 90.453125 99.53125 C 90.382812 102.335938 90.519531 105.140625 90.453125 107.546875 C 90.585938 117.367188 90.652344 134.734375 101.207031 139.410156 C 103.144531 140.210938 113.296875 142.480469 118.171875 144.886719 C 123.984375 147.757812 125.253906 149.828125 125.988281 150.164062 C 127.054688 149.160156 128.257812 147.625 132.464844 145.554688 C 137.742188 142.882812 147.5625 140.675781 150.636719 139.410156 C 160.921875 135.066406 161.054688 117.367188 161.457031 107.414062 L 161.390625 100 C 161.390625 96.792969 161.121094 94.320312 162.191406 91.246094 C 163.394531 87.90625 165.464844 84.769531 168.738281 83.234375 L 152.640625 69.339844 C 143.753906 74.882812 137.007812 77.152344 126.054688 77.21875 C 115.632812 77.289062 108.085938 75.015625 99.335938 69.539062 Z M 99.335938 69.539062 "/>
<path style=" stroke:none;fill-rule:evenodd;fill:rgb(0%,26.666667%,66.666667%);fill-opacity:1;" d="M 152.039062 73.746094 L 154.109375 78.089844 L 158.851562 78.757812 L 155.378906 82.097656 L 156.246094 86.839844 L 151.972656 84.566406 L 147.695312 86.839844 L 148.5625 82.097656 L 145.089844 78.757812 L 149.832031 78.089844 L 151.902344 73.746094 Z M 125.785156 133.863281 L 127.855469 138.207031 L 132.601562 138.875 L 129.125 142.214844 L 129.996094 146.957031 L 125.71875 144.683594 L 121.445312 146.957031 L 122.3125 142.214844 L 118.839844 138.875 L 123.582031 138.207031 L 125.652344 133.863281 Z M 125.785156 136.871094 L 126.988281 139.339844 L 129.726562 139.742188 L 127.722656 141.679688 L 128.191406 144.417969 L 125.71875 143.082031 L 123.25 144.417969 L 123.714844 141.679688 L 121.710938 139.742188 L 124.449219 139.339844 L 125.652344 136.871094 Z M 99.871094 73.746094 L 101.941406 78.089844 L 106.683594 78.757812 L 103.210938 82.097656 L 104.078125 86.839844 L 99.804688 84.566406 L 95.527344 86.839844 L 96.394531 82.097656 L 92.921875 78.757812 L 97.664062 78.089844 L 99.734375 73.746094 Z M 99.871094 76.753906 L 101.070312 79.226562 L 103.8125 79.625 L 101.808594 81.5625 L 102.273438 84.300781 L 99.804688 82.964844 L 97.332031 84.300781 L 97.800781 81.5625 L 95.796875 79.625 L 98.535156 79.226562 L 99.734375 76.753906 Z M 152.039062 76.753906 L 153.238281 79.226562 L 155.980469 79.625 L 153.976562 81.5625 L 154.441406 84.300781 L 151.972656 82.964844 L 149.5 84.300781 L 149.96875 81.5625 L 147.964844 79.625 L 150.703125 79.226562 L 151.902344 76.753906 Z M 152.039062 76.753906 "/>
<path style=" stroke:none;fill-rule:evenodd;fill:rgb(0%,26.666667%,66.666667%);fill-opacity:1;" d="M 103.476562 163.523438 C 103.277344 163.523438 103.210938 163.65625 103.210938 163.855469 C 103.210938 164.054688 103.210938 164.257812 103.144531 164.324219 C 103.144531 164.390625 103.074219 164.457031 102.941406 164.589844 C 102.609375 164.925781 102.40625 165.191406 102.273438 165.324219 C 102.140625 165.527344 102.074219 165.59375 102.074219 165.59375 C 102.140625 165.660156 102.273438 165.59375 102.542969 165.390625 C 102.675781 165.324219 102.941406 165.125 103.410156 164.859375 C 103.742188 164.65625 103.945312 164.589844 104.011719 164.457031 C 104.078125 164.390625 104.210938 164.324219 104.410156 164.257812 C 104.679688 164.125 104.8125 163.988281 104.679688 163.921875 C 104.277344 163.589844 103.8125 163.386719 103.410156 163.386719 Z M 120.308594 162.652344 C 120.242188 162.652344 120.242188 162.652344 120.175781 162.71875 C 119.175781 163.121094 117.503906 163.386719 115.03125 163.65625 C 114.363281 163.722656 114.296875 163.855469 114.898438 163.988281 C 115.5 164.054688 116.101562 164.054688 116.703125 163.921875 C 116.902344 164.191406 116.835938 164.65625 116.570312 165.191406 C 115.96875 166.195312 115.367188 166.796875 114.632812 167.0625 C 114.5 167.128906 114.429688 167.128906 114.429688 167.195312 C 114.296875 167.394531 114.296875 167.664062 114.363281 167.996094 C 114.429688 168.199219 114.5 168.332031 114.632812 168.332031 C 114.632812 168.332031 114.765625 168.265625 115.097656 168.199219 C 115.566406 168.0625 117.304688 167.597656 120.175781 166.726562 C 120.242188 166.796875 120.242188 166.796875 120.308594 166.863281 C 120.777344 167.328125 121.109375 167.53125 121.3125 167.464844 C 121.710938 167.0625 121.644531 166.59375 121.179688 165.992188 C 120.84375 165.660156 120.308594 165.390625 119.574219 165.191406 C 118.839844 164.992188 118.640625 165.058594 118.90625 165.324219 C 119.175781 165.59375 119.507812 165.992188 119.910156 166.460938 C 118.039062 166.796875 116.570312 167.0625 115.5 167.261719 C 116.035156 166.796875 116.769531 166.058594 117.636719 165.058594 C 117.703125 164.992188 117.769531 164.925781 117.90625 164.792969 C 118.4375 164.457031 118.371094 164.125 117.636719 163.789062 C 119.242188 163.523438 120.375 163.386719 120.976562 163.253906 C 121.3125 163.1875 121.445312 162.988281 121.3125 162.789062 C 121.179688 162.652344 120.84375 162.585938 120.375 162.585938 Z M 136.472656 162.453125 C 136.273438 162.453125 136.273438 162.585938 136.40625 162.789062 C 136.609375 162.988281 136.539062 163.386719 136.339844 164.054688 C 135.738281 166.394531 134.9375 168.0625 134.003906 169 C 133.667969 169.332031 133.734375 169.398438 134.136719 169.199219 C 135.273438 168.398438 136.140625 167.0625 136.808594 165.191406 C 137.074219 165.527344 137.476562 166.261719 138.011719 167.394531 C 138.277344 167.863281 138.476562 168.199219 138.542969 168.398438 C 138.679688 168.933594 139.28125 169.199219 140.414062 169.066406 C 140.546875 169.066406 140.617188 169.066406 140.683594 169.066406 C 141.082031 169.066406 141.285156 169 141.417969 168.933594 C 141.550781 168.867188 141.484375 168.800781 141.285156 168.730469 C 139.546875 167.664062 138.34375 166.660156 137.808594 165.792969 C 137.410156 165.324219 137.140625 164.992188 136.941406 164.859375 C 137.074219 164.324219 137.277344 163.921875 137.476562 163.523438 C 137.542969 163.386719 137.542969 163.320312 137.542969 163.253906 C 137.410156 163.054688 137.007812 162.789062 136.40625 162.585938 Z M 150.769531 169.601562 C 151.101562 169.667969 151.636719 169.734375 152.4375 169.667969 C 152.972656 169.667969 153.308594 169.734375 153.441406 169.734375 C 153.90625 169.800781 154.109375 169.667969 154.175781 169.46875 C 154.175781 169.199219 153.976562 169 153.574219 168.867188 C 153.308594 168.867188 152.839844 168.867188 152.171875 168.933594 C 151.570312 169 151.167969 169.066406 150.835938 169.066406 C 150.96875 167.796875 151.167969 166.929688 151.304688 166.328125 C 151.371094 166.128906 151.4375 165.925781 151.503906 165.726562 C 151.570312 165.59375 151.570312 165.460938 151.570312 165.390625 C 151.4375 164.992188 150.902344 164.722656 149.96875 164.523438 C 149.765625 164.589844 149.699219 164.792969 149.898438 165.125 C 150.035156 165.390625 150.101562 165.660156 150.101562 165.792969 C 150.167969 166.996094 149.898438 169.667969 149.300781 173.808594 L 147.160156 173.742188 C 147.160156 173.40625 147.160156 172.941406 147.226562 172.40625 C 147.296875 170.9375 147.363281 170.066406 147.429688 169.734375 C 147.429688 169.601562 147.496094 169.398438 147.5625 169.199219 C 147.628906 169.066406 147.628906 168.933594 147.628906 168.867188 C 147.363281 168.53125 146.894531 168.265625 146.292969 168.0625 C 146.027344 168.0625 146.027344 168.199219 146.226562 168.597656 C 146.359375 168.867188 146.492188 169.066406 146.492188 169.265625 C 146.558594 170 146.558594 171.472656 146.425781 173.675781 C 145.558594 173.742188 144.691406 173.675781 143.886719 173.609375 C 143.421875 173.609375 143.289062 173.675781 143.355469 173.742188 C 143.554688 173.875 143.957031 174.007812 144.488281 174.144531 C 146.226562 174.074219 148.097656 174.144531 150.035156 174.210938 C 150.902344 174.277344 151.835938 174.410156 152.707031 174.542969 C 153.574219 174.609375 154.375 174.742188 155.109375 174.945312 C 155.710938 175.078125 155.980469 174.945312 155.910156 174.542969 C 155.644531 174.074219 155.242188 173.808594 154.644531 173.742188 C 154.441406 173.742188 153.90625 173.742188 153.039062 173.808594 C 151.835938 173.808594 150.902344 173.808594 150.300781 173.808594 L 150.902344 169.535156 Z M 131.664062 163.121094 C 132.265625 163.921875 132.800781 164.390625 133.199219 164.457031 C 133.734375 164.324219 133.867188 163.921875 133.402344 163.386719 C 132.132812 162.789062 131.53125 162.652344 131.664062 163.054688 Z M 133.734375 165.527344 C 133.667969 165.527344 133.402344 165.59375 132.933594 165.660156 C 131.265625 165.992188 129.726562 166.195312 128.324219 166.128906 C 128.058594 166.128906 128.058594 166.261719 128.257812 166.394531 C 128.523438 166.660156 128.859375 166.863281 129.191406 166.929688 C 129.328125 166.929688 129.996094 166.796875 131.195312 166.460938 C 131.332031 167.996094 130.261719 169.734375 127.992188 171.671875 C 127.65625 171.871094 127.65625 171.9375 127.992188 171.871094 C 128.257812 171.804688 128.59375 171.671875 128.925781 171.402344 C 130.261719 170.535156 131.128906 169.46875 131.664062 168.199219 C 131.730469 168.199219 131.796875 168.199219 131.863281 168.265625 C 132.332031 168.464844 132.601562 168.597656 132.601562 168.664062 C 132.667969 168.933594 132.53125 169.46875 132.265625 170.269531 C 132 171.003906 131.730469 171.472656 131.53125 171.539062 C 131.464844 171.539062 131.332031 171.472656 131.0625 171.402344 C 130.527344 171.203125 130.328125 171.136719 130.460938 171.335938 C 130.796875 171.738281 130.996094 172.140625 131.0625 172.539062 C 131.0625 172.605469 131.0625 172.671875 131.128906 172.671875 C 131.398438 172.808594 131.730469 172.671875 132.132812 172.339844 C 132.464844 172.003906 132.734375 171.472656 132.933594 170.734375 C 133.199219 169.867188 133.46875 169.199219 133.734375 168.800781 C 133.800781 168.664062 133.800781 168.597656 133.800781 168.597656 C 133.667969 168.265625 133.46875 168.0625 133.132812 167.863281 C 133.066406 167.863281 133 167.863281 132.867188 167.796875 C 132.601562 167.796875 132.265625 167.730469 132.066406 167.730469 C 132.132812 167.597656 132.199219 167.464844 132.332031 167.328125 C 132.464844 167.128906 132.464844 166.996094 132.464844 166.929688 C 132.53125 166.863281 132.265625 166.660156 131.730469 166.328125 C 132.734375 166.128906 133.601562 166.058594 134.335938 166.058594 C 134.738281 166.058594 134.871094 165.992188 134.804688 165.726562 C 134.671875 165.527344 134.402344 165.390625 134.003906 165.324219 Z M 135.804688 169.132812 C 135.871094 169.199219 135.871094 169.265625 135.941406 169.332031 C 136.539062 170.136719 137.007812 170.46875 137.140625 170.46875 C 137.675781 170.269531 137.742188 169.867188 137.410156 169.398438 C 136.207031 168.867188 135.671875 168.800781 135.738281 169.132812 Z M 135.339844 171.539062 C 136.140625 172.671875 136.808594 173.339844 137.34375 173.609375 C 137.945312 173.40625 137.945312 172.941406 137.542969 172.273438 C 137.207031 172.003906 136.675781 171.738281 135.941406 171.472656 C 135.40625 171.335938 135.273438 171.335938 135.40625 171.539062 Z M 118.773438 170.136719 C 119.308594 170.066406 119.910156 169.933594 120.511719 169.800781 C 121.042969 169.734375 121.3125 169.601562 121.3125 169.398438 C 121.246094 169.199219 120.976562 169.066406 120.441406 169.132812 C 120.308594 169.132812 120.175781 169.132812 119.976562 169.199219 C 119.773438 169.199219 119.375 169.265625 118.773438 169.398438 C 118.773438 169.132812 118.773438 168.800781 118.90625 168.53125 C 118.90625 168.398438 118.90625 168.332031 118.90625 168.265625 C 118.238281 167.929688 117.769531 167.796875 117.4375 167.796875 C 117.304688 167.796875 117.304688 167.929688 117.4375 168.265625 C 117.703125 168.730469 117.839844 169.199219 117.839844 169.667969 C 117.503906 169.734375 117.035156 169.800781 116.503906 169.933594 C 115.902344 170.066406 115.566406 170.066406 115.5 170.066406 C 114.964844 170.203125 115.03125 170.335938 115.765625 170.46875 C 116.367188 170.535156 117.035156 170.46875 117.839844 170.335938 L 117.972656 172.207031 C 116.433594 172.40625 115.03125 172.605469 113.628906 172.738281 C 113.429688 172.808594 113.230469 172.808594 113.164062 172.808594 C 112.628906 172.875 112.425781 172.941406 112.5625 173.074219 C 112.761719 173.140625 113.164062 173.207031 113.761719 173.273438 C 113.832031 173.273438 113.964844 173.273438 114.164062 173.207031 C 117.238281 172.539062 120.441406 172.273438 123.714844 172.40625 C 124.316406 172.40625 124.585938 172.207031 124.382812 171.871094 C 124.117188 171.539062 123.582031 171.335938 122.914062 171.269531 C 122.78125 171.269531 122.582031 171.335938 122.3125 171.335938 C 121.378906 171.539062 120.242188 171.738281 118.90625 171.9375 L 118.839844 170.066406 Z M 99.402344 164.523438 C 99.203125 164.523438 99.203125 164.589844 99.269531 164.792969 C 99.402344 165.058594 99.601562 165.257812 99.9375 165.527344 C 100.136719 165.726562 100.335938 165.792969 100.472656 165.726562 C 100.671875 165.660156 100.738281 165.460938 100.671875 165.257812 C 100.539062 164.792969 100.070312 164.589844 99.402344 164.589844 Z M 102.339844 167.929688 C 103.277344 167.796875 103.878906 167.664062 104.144531 167.53125 C 104.410156 167.261719 104.210938 167.195312 103.542969 167.195312 C 103.410156 167.195312 103.210938 167.261719 102.941406 167.328125 C 102.675781 167.394531 102.476562 167.464844 102.339844 167.464844 C 102.339844 167.394531 102.339844 167.261719 102.40625 167.128906 C 102.40625 166.996094 102.476562 166.929688 102.40625 166.863281 C 102.40625 166.726562 102.273438 166.660156 102.140625 166.527344 C 103.410156 166.261719 104.210938 166.128906 104.613281 165.992188 C 104.8125 165.925781 104.878906 165.792969 104.746094 165.59375 C 104.613281 165.527344 104.34375 165.460938 104.011719 165.527344 C 103.945312 165.527344 103.878906 165.527344 103.609375 165.59375 C 102.273438 165.992188 100.804688 166.328125 99.066406 166.527344 C 98.734375 166.59375 98.734375 166.660156 99 166.796875 C 99.203125 166.863281 99.535156 166.929688 100.003906 166.863281 C 100.269531 166.863281 100.605469 166.796875 100.871094 166.726562 C 101.070312 166.863281 101.207031 167.195312 101.339844 167.664062 C 100.871094 167.796875 100.335938 167.863281 99.734375 167.929688 C 99.535156 168.0625 99.667969 168.132812 100.070312 168.199219 C 100.402344 168.199219 100.804688 168.132812 101.40625 168.0625 L 101.472656 168.933594 C 100.269531 169.132812 99.402344 169.265625 98.867188 169.332031 C 98.601562 169.398438 98.601562 169.535156 98.867188 169.667969 C 99.066406 169.734375 99.46875 169.734375 100.003906 169.667969 C 100.402344 169.601562 100.804688 169.601562 101.140625 169.535156 C 101.339844 169.46875 101.472656 169.46875 101.539062 169.46875 L 101.671875 171.402344 C 101.539062 171.402344 101.40625 171.472656 101.207031 171.472656 C 98.535156 171.871094 96.929688 172.003906 96.394531 172.070312 C 96.128906 172.070312 96.128906 172.140625 96.261719 172.273438 C 96.53125 172.472656 96.796875 172.671875 97.132812 172.738281 C 97.199219 172.738281 97.332031 172.738281 97.53125 172.671875 C 98.46875 172.273438 100.804688 171.871094 104.410156 171.402344 C 105.347656 171.335938 106.484375 171.269531 107.75 171.335938 C 107.886719 171.335938 107.886719 171.335938 107.886719 171.335938 C 108.285156 171.269531 108.285156 171.070312 107.953125 170.734375 C 107.617188 170.46875 107.21875 170.402344 106.75 170.402344 C 106.550781 170.402344 106.082031 170.535156 105.347656 170.667969 C 104.746094 170.804688 104.277344 170.9375 104.078125 170.9375 C 104.546875 170.46875 104.945312 170.136719 105.078125 169.867188 C 105.214844 169.734375 105.148438 169.601562 104.945312 169.535156 C 104.613281 169.398438 104.277344 169.332031 103.945312 169.398438 C 103.8125 169.398438 103.742188 169.535156 103.878906 169.667969 C 103.945312 169.867188 104.011719 170 103.945312 170.136719 C 103.8125 170.535156 103.609375 170.804688 103.410156 171.070312 L 102.273438 171.269531 L 102.207031 169.332031 C 102.476562 169.265625 102.875 169.199219 103.476562 169.132812 C 104.277344 169 104.8125 168.867188 105.078125 168.867188 C 105.347656 168.800781 105.414062 168.664062 105.28125 168.53125 C 105.078125 168.464844 104.8125 168.398438 104.34375 168.464844 C 104.277344 168.464844 104.078125 168.53125 103.675781 168.597656 C 103.144531 168.664062 102.675781 168.730469 102.207031 168.800781 L 102.207031 167.863281 Z M 100.605469 170.46875 C 100.402344 170.269531 100.070312 170.136719 99.535156 170.136719 C 99.335938 170.136719 99.402344 170.335938 99.601562 170.667969 C 99.871094 171.136719 100.136719 171.335938 100.269531 171.335938 C 100.671875 171.136719 100.738281 170.871094 100.539062 170.46875 Z M 104.34375 172.273438 C 104.210938 172.273438 103.878906 172.339844 103.210938 172.539062 C 102.140625 172.808594 101.207031 173.007812 100.402344 173.207031 C 100.136719 173.007812 99.871094 172.941406 99.667969 173.007812 C 99.46875 173.074219 99.535156 173.207031 99.667969 173.40625 C 99.804688 173.542969 99.9375 173.941406 100.070312 174.476562 C 100.203125 174.878906 100.269531 175.210938 100.335938 175.480469 C 100.472656 175.8125 100.605469 175.945312 100.804688 175.945312 C 100.9375 175.878906 101.003906 175.746094 100.9375 175.410156 C 101.070312 175.410156 101.472656 175.34375 102.207031 175.277344 C 103.8125 175.011719 104.8125 174.878906 105.347656 174.878906 C 105.480469 174.8125 105.480469 174.742188 105.414062 174.675781 C 105.28125 174.542969 105.148438 174.476562 104.878906 174.410156 C 105.148438 173.875 105.414062 173.476562 105.816406 173.273438 C 106.015625 173.140625 105.882812 173.007812 105.546875 172.738281 C 105.078125 172.472656 104.679688 172.339844 104.34375 172.339844 Z M 100.539062 173.476562 C 100.605469 173.476562 100.804688 173.40625 101.207031 173.339844 C 102.207031 173.140625 103.144531 172.941406 104.078125 172.875 C 104.210938 172.875 104.277344 173.007812 104.277344 173.40625 C 104.210938 173.808594 104.144531 174.144531 104.011719 174.410156 L 100.9375 175.078125 L 100.605469 173.476562 Z M 100.539062 173.476562 "/>
<path style=" stroke:none;fill-rule:evenodd;fill:rgb(0%,26.666667%,66.666667%);fill-opacity:1;" d="M 160.386719 161.585938 C 161.992188 159.847656 162.457031 158.246094 162.523438 156.84375 C 162.523438 155.171875 161.65625 154.238281 160.855469 153.234375 C 159.988281 152.167969 159.117188 151.097656 158.582031 149.761719 C 158.183594 148.761719 158.382812 147.15625 158.851562 145.554688 C 159.851562 142.347656 162.992188 140.210938 166 140.210938 L 173.414062 140.210938 L 173.480469 136.335938 C 173.546875 133.996094 172.277344 131.992188 171.410156 129.855469 C 170.742188 128.320312 170.40625 126.648438 170.40625 124.914062 L 170.539062 115.628906 L 170.605469 115.628906 C 171.476562 116.964844 172.277344 118.300781 173.144531 119.636719 C 174.214844 117.898438 176.886719 116.628906 180.027344 116.628906 C 184.101562 116.628906 187.375 118.703125 187.375 121.238281 C 187.375 122.640625 186.371094 123.910156 184.769531 124.714844 L 184.769531 134.398438 C 185.4375 135.199219 186.039062 136 186.570312 136.871094 C 187.707031 138.671875 188.308594 140.8125 187.90625 143.015625 C 186.90625 148.492188 177.621094 153.96875 177.488281 159.648438 C 177.488281 160.785156 177.554688 163.457031 177.421875 165.460938 C 177.355469 166.394531 177.355469 167.128906 177.152344 167.597656 C 176.6875 168.464844 175.882812 168.597656 175.015625 168.464844 C 173.144531 168.0625 170.742188 165.460938 169.003906 165.925781 C 167.535156 166.328125 167.066406 167.796875 166.800781 169.199219 C 166.398438 171.335938 165.863281 173.476562 164.863281 175.546875 C 163.925781 177.484375 162.859375 178.953125 161.921875 179.953125 C 161.253906 180.6875 160.722656 181.089844 160.054688 181.289062 C 159.386719 181.492188 158.582031 181.558594 157.582031 181.222656 C 137.675781 175.546875 114.5 175.546875 94.527344 181.222656 C 93.523438 181.492188 92.722656 181.492188 92.054688 181.289062 C 91.386719 181.089844 90.785156 180.6875 90.183594 179.953125 C 89.316406 178.953125 88.179688 177.484375 87.246094 175.546875 C 86.242188 173.542969 85.640625 171.402344 85.308594 169.199219 C 85.039062 167.796875 84.640625 166.328125 83.105469 165.925781 C 81.433594 165.460938 78.960938 168.0625 77.09375 168.464844 C 76.222656 168.664062 75.355469 168.464844 74.953125 167.597656 C 74.753906 167.128906 74.753906 166.328125 74.6875 165.460938 C 74.554688 163.457031 74.621094 160.785156 74.621094 159.648438 C 74.488281 153.902344 65.203125 148.492188 64.199219 143.015625 C 63.800781 140.8125 64.402344 138.742188 65.535156 136.871094 C 66.070312 136 66.671875 135.199219 67.339844 134.398438 L 67.339844 124.714844 C 65.738281 123.84375 64.734375 122.574219 64.734375 121.238281 C 64.734375 118.703125 68.007812 116.628906 72.082031 116.628906 C 75.222656 116.628906 77.894531 117.898438 78.960938 119.636719 C 79.832031 118.300781 80.632812 116.964844 81.5 115.628906 L 81.566406 115.628906 L 81.699219 124.914062 C 81.699219 126.648438 81.367188 128.320312 80.699219 129.855469 C 79.832031 131.992188 78.5625 133.996094 78.628906 136.335938 L 78.695312 140.210938 L 86.109375 140.210938 C 89.117188 140.210938 92.253906 142.347656 93.257812 145.554688 C 93.722656 147.15625 93.925781 148.761719 93.523438 149.761719 C 92.988281 151.03125 92.121094 152.167969 91.253906 153.234375 C 90.453125 154.238281 89.582031 155.105469 89.582031 156.84375 C 89.582031 158.246094 90.117188 159.847656 91.71875 161.585938 C 116.367188 156.242188 135.539062 156.242188 160.386719 161.519531 Z M 157.382812 179.753906 C 158.050781 179.953125 158.785156 180.019531 159.117188 178.886719 C 160.519531 174.945312 158.851562 169.933594 158.984375 165.992188 C 159.050781 164.925781 159.183594 163.921875 159.585938 163.054688 C 136.609375 157.84375 115.566406 157.84375 92.457031 163.054688 C 92.855469 163.921875 93.054688 164.925781 93.054688 165.992188 C 93.191406 169.933594 91.519531 174.945312 92.921875 178.886719 C 93.257812 179.953125 93.992188 179.953125 94.660156 179.753906 C 114.632812 174.277344 137.34375 174.277344 157.316406 179.753906 Z M 91.789062 179.554688 C 90.851562 177.683594 90.851562 174.945312 91.121094 172.273438 C 91.386719 169.46875 91.855469 166.726562 91.453125 164.792969 C 91.1875 163.457031 90.585938 162.988281 89.851562 161.917969 C 88.113281 159.378906 87.042969 156.039062 89.046875 153.503906 C 90.382812 151.832031 92.1875 150.363281 92.1875 148.691406 C 92.1875 146.757812 91.71875 142.816406 87.3125 141.878906 L 78.027344 141.8125 C 77.625 143.484375 77.292969 147.625 78.160156 149.160156 C 79.5625 151.566406 81.367188 154.503906 81.5 158.042969 L 81.699219 164.65625 C 81.769531 164.65625 81.902344 164.589844 81.96875 164.589844 C 81.96875 164.589844 84.574219 163.589844 85.910156 166.328125 C 86.777344 168.132812 86.84375 170.46875 87.445312 172.472656 C 87.980469 174.210938 88.914062 176.078125 90.050781 177.550781 C 90.382812 178.015625 91.386719 179.351562 91.789062 179.554688 Z M 77.160156 141.546875 C 77.160156 140.8125 77.226562 137.203125 77.292969 135.265625 C 77.359375 133.398438 78.5625 131.59375 79.363281 129.789062 C 79.964844 128.453125 80.164062 127.050781 80.363281 125.582031 C 80.5 123.777344 80.5 121.90625 80.5 119.835938 C 80.5 119.835938 77.761719 124.378906 73.753906 129.457031 C 71.679688 132.0625 68.542969 134.800781 66.9375 137.472656 C 65.9375 139.074219 64.800781 141.945312 66.203125 144.484375 C 66.605469 145.21875 67.074219 145.886719 67.605469 146.554688 L 67.605469 146.488281 C 67.605469 146.488281 73.417969 146.554688 77.292969 141.546875 Z M 68.675781 147.957031 C 71.75 151.5 75.6875 154.839844 76.089844 159.78125 C 76.089844 160.648438 75.890625 166.328125 76.355469 166.863281 C 76.625 167.128906 77.023438 167.328125 77.761719 166.996094 C 77.761719 166.996094 79.027344 166.058594 80.433594 165.324219 C 80.363281 164.125 80.296875 161.453125 80.164062 158.511719 C 80.03125 156.175781 79.164062 153.367188 77.691406 151.296875 C 76.425781 149.429688 76.023438 146.824219 76.289062 144.617188 C 76.289062 144.617188 72.484375 147.289062 68.675781 147.957031 Z M 68.875 132.796875 C 70.414062 131.125 72.015625 129.523438 73.351562 127.785156 C 74.019531 126.984375 74.621094 126.117188 75.222656 125.246094 L 68.808594 125.246094 L 68.808594 132.796875 Z M 76.425781 123.710938 C 77.023438 122.910156 77.558594 122.042969 78.09375 121.171875 C 77.894531 119.4375 75.15625 118.035156 72.148438 118.035156 C 69.007812 118.035156 66.203125 119.570312 66.203125 121.375 C 66.203125 122.242188 66.804688 123.042969 67.808594 123.644531 C 68.140625 123.777344 68.542969 123.910156 68.875 123.910156 L 75.824219 123.910156 C 76.023438 123.910156 76.15625 123.777344 76.355469 123.644531 Z M 160.386719 179.621094 C 161.324219 177.75 161.324219 175.011719 161.054688 172.339844 C 160.789062 169.535156 160.320312 166.796875 160.722656 164.859375 C 160.988281 163.523438 161.589844 163.054688 162.324219 161.984375 C 164.0625 159.449219 165.128906 156.109375 163.125 153.570312 C 161.789062 151.898438 159.988281 150.429688 159.988281 148.761719 C 159.988281 146.824219 160.453125 142.882812 164.863281 141.945312 L 174.148438 141.878906 C 174.546875 143.550781 174.882812 147.691406 174.015625 149.226562 C 172.609375 151.632812 170.808594 154.570312 170.675781 158.113281 L 170.472656 164.722656 C 170.40625 164.722656 170.273438 164.65625 170.207031 164.65625 C 170.207031 164.65625 167.601562 163.65625 166.265625 166.394531 C 165.398438 168.199219 165.332031 170.535156 164.730469 172.539062 C 164.195312 174.277344 163.257812 176.148438 162.125 177.617188 C 161.789062 178.082031 160.789062 179.417969 160.386719 179.621094 Z M 175.015625 141.613281 C 175.015625 140.878906 174.949219 137.269531 174.882812 135.332031 C 174.816406 133.464844 173.613281 131.660156 172.8125 129.855469 C 172.210938 128.519531 172.011719 127.117188 171.808594 125.648438 C 171.675781 123.84375 171.675781 121.972656 171.675781 119.902344 C 171.675781 119.902344 174.414062 124.445312 178.421875 129.523438 C 180.492188 132.128906 183.632812 134.867188 185.234375 137.539062 C 186.238281 139.140625 187.375 142.011719 185.96875 144.550781 C 185.570312 145.285156 185.101562 145.953125 184.566406 146.621094 L 184.632812 146.554688 C 184.632812 146.554688 178.824219 146.621094 174.949219 141.613281 Z M 183.5 148.023438 C 180.425781 151.566406 176.484375 154.90625 176.085938 159.847656 C 176.085938 160.714844 176.285156 166.394531 175.816406 166.929688 C 175.550781 167.195312 175.148438 167.394531 174.414062 167.0625 C 174.414062 167.0625 173.144531 166.128906 171.742188 165.390625 C 171.808594 164.191406 171.875 161.519531 172.011719 158.578125 C 172.144531 156.242188 173.011719 153.4375 174.480469 151.363281 C 175.75 149.496094 176.152344 146.890625 175.882812 144.683594 C 175.882812 144.683594 179.691406 147.355469 183.5 148.023438 Z M 183.296875 132.863281 C 181.761719 131.191406 180.160156 129.589844 178.824219 127.851562 C 178.15625 127.050781 177.554688 126.183594 176.953125 125.3125 L 183.367188 125.3125 L 183.367188 132.863281 Z M 175.75 123.777344 C 175.148438 122.976562 174.613281 122.109375 174.082031 121.238281 C 174.28125 119.503906 177.019531 118.101562 180.027344 118.101562 C 183.164062 118.101562 185.96875 119.636719 185.96875 121.441406 C 185.96875 122.308594 185.371094 123.109375 184.367188 123.710938 C 184.035156 123.84375 183.632812 123.976562 183.296875 123.976562 L 176.285156 123.976562 C 176.085938 123.976562 175.949219 123.84375 175.75 123.710938 Z M 175.75 123.777344 "/>
</g>
</svg>
