<?xml version="1.0" encoding="UTF-8" standalone="no"?>
<!-- Created with Inkscape (http://www.inkscape.org/) -->

<svg
   width="400"
   height="400"
   viewBox="0 0 400 400"
   version="1.1"
   id="svg5"
   sodipodi:docname="MUC-logo-new-1.svg"
   inkscape:version="1.1.1 (3bf5ae0d25, 2021-09-20)"
   xmlns:inkscape="http://www.inkscape.org/namespaces/inkscape"
   xmlns:sodipodi="http://sodipodi.sourceforge.net/DTD/sodipodi-0.dtd"
   xmlns:xlink="http://www.w3.org/1999/xlink"
   xmlns="http://www.w3.org/2000/svg"
   xmlns:svg="http://www.w3.org/2000/svg">
  <sodipodi:namedview
     id="namedview7"
     pagecolor="#ffffff"
     bordercolor="#666666"
     borderopacity="1.0"
     inkscape:pageshadow="2"
     inkscape:pageopacity="0.0"
     inkscape:pagecheckerboard="0"
     inkscape:document-units="px"
     showgrid="false"
     inkscape:zoom="1.4142136"
     inkscape:cx="280.36784"
     inkscape:cy="217.08178"
     inkscape:window-width="1402"
     inkscape:window-height="983"
     inkscape:window-x="386"
     inkscape:window-y="46"
     inkscape:window-maximized="0"
     inkscape:current-layer="layer6" />
  <defs
     id="defs2">
    <rect
       x="263.04372"
       y="-7.0710678"
       width="164.04877"
       height="132.22897"
       id="rect223641" />
    <rect
       x="31.112698"
       y="66.468037"
       width="242.11765"
       height="58.385343"
       id="rect134490" />
  </defs>
  <g
     inkscape:groupmode="layer"
     id="layer6"
     inkscape:label="OUTBOUNDARY"
     style="display:inline">
    <circle
       style="display:inline;fill:none;fill-rule:evenodd;stroke:#d51222;stroke-width:4;stroke-miterlimit:4;stroke-dasharray:none;stroke-opacity:1"
       id="path57-7"
       cx="197.8334"
       cy="202.00809"
       r="180" />
    <circle
       style="display:inline;fill:none;fill-rule:evenodd;stroke:#d51222;stroke-width:3;stroke-miterlimit:4;stroke-dasharray:none;stroke-opacity:1"
       id="path57-8-3"
       cx="-171.85417"
       cy="-223.052"
       r="136.87241"
       transform="rotate(172.87613)" />
    <path
       class="st1"
       d="m 273.407,124.24364 c -8.01978,-8.38638 -16.0854,-16.77279 -24.10518,-25.11336 -35.74534,0 -71.4448,0 -107.19013,0 -16.58951,0.64158 -23.41776,12.0526 -23.60108,30.75014 0,48.02706 0,96.05409 0,144.08114 1.42064,13.15244 7.33239,23.9677 25.61748,28.1838 18.28511,0 36.57022,0 54.85532,0 5.59093,-2.10805 10.12785,-6.0492 11.73179,-11.13603 2.56635,3.43705 1.78728,7.19489 6.1867,10.63193 10.95272,0 21.85963,0 32.81237,0 8.38639,-8.01977 16.77279,-16.0854 25.11338,-24.10517 -14.71057,0 -29.42116,0 -44.0859,0 -7.37821,-4.94935 -10.81526,-9.8987 -10.26532,-14.89389 -5.45346,9.07381 -10.40281,13.70238 -14.89388,13.83984 -13.65655,0 -27.35894,0 -41.01546,0 -15.94792,-3.20789 -20.98893,-11.91509 -21.03476,-23.09696 0,-40.19057 0,-80.33531 0,-120.52589 1.64979,-6.64496 5.86589,-8.15727 10.76942,-8.2031 39.77813,-0.0459 79.41877,-0.22912 119.10525,-0.41245 z"
       id="path3348-0"
       style="clip-rule:evenodd;display:inline;fill:#d2111b;fill-opacity:1;fill-rule:evenodd;stroke-width:0.458274" />
    <rect
       x="169.47063"
       y="174.51622"
       class="st0"
       width="40.190571"
       height="27.083954"
       id="rect3350-7"
       style="clip-rule:evenodd;display:inline;fill:#d2111b;fill-opacity:1;fill-rule:evenodd;stroke:#d2111b;stroke-width:0.0989869;stroke-miterlimit:22.9256" />
    <path
       class="st1"
       d="m 169.4706,225.84286 h 40.19057 v 17.32273 c 0,4.58272 -3.94113,8.34058 -8.79884,8.34058 h -26.67151 c -2.56633,0 -4.72022,-2.0164 -4.72022,-4.44526 z"
       id="path3352-6"
       style="clip-rule:evenodd;display:inline;fill:#d2111b;fill-opacity:1;fill-rule:evenodd;stroke-width:0.458274" />
    <rect
       x="233.94966"
       y="174.51622"
       class="st1"
       width="38.494961"
       height="27.083954"
       id="rect3354-2"
       style="clip-rule:evenodd;display:inline;fill:#d2111b;fill-opacity:1;fill-rule:evenodd;stroke-width:0.458274" />
    <path
       class="st1"
       d="m 233.94965,225.56789 h 38.49497 v 25.38833 h -27.90884 c -5.82008,0 -10.58613,-4.67436 -10.58613,-10.4028 z"
       id="path3356-2"
       style="clip-rule:evenodd;display:inline;fill:#d2111b;fill-opacity:1;fill-rule:evenodd;stroke-width:0.458274" />
  </g>
  <g
     inkscape:groupmode="layer"
     id="layer2"
     inkscape:label="MINZU UNIVERSITY"
     style="display:inline">
    <text
       xml:space="preserve"
       style="font-style:normal;font-variant:normal;font-weight:normal;font-stretch:normal;font-size:29.3333px;line-height:1.25;font-family:Arial;-inkscape-font-specification:Arial;letter-spacing:5px;word-spacing:14px;fill:#d2111b;fill-opacity:1;stroke:none;stroke-opacity:1"
       id="text64465"
       inkscape:transform-center-x="3.5355339"
       inkscape:transform-center-y="33.941126"><textPath
         xlink:href="#path106242"
         id="textPath106329"><tspan
           id="tspan64463"
           style="font-style:normal;font-variant:normal;font-weight:normal;font-stretch:normal;font-size:29.3333px;font-family:Arial;-inkscape-font-specification:Arial;fill:#d2111b;fill-opacity:1;stroke:none;stroke-opacity:1">MINZU UNIVERSITY</tspan></textPath></text>
    <path
       id="path106242"
       style="fill:none;stroke:none;stroke-width:3.5331;stroke-opacity:1"
       transform="rotate(156.22168)"
       d="m 42.86628,-264.32288 a 143.63602,143.63602 0 0 1 -143.63602,143.63602 143.63602,143.63602 0 0 1 -143.63601,-143.63602 143.63602,143.63602 0 0 1 143.63601,-143.63601 143.63602,143.63602 0 0 1 143.63602,143.63601 z" />
    <g
       id="text134488"
       style="font-size:40px;line-height:1.25;white-space:pre;shape-inside:url(#rect134490);fill:none;stroke:none;stroke-opacity:1" />
    <g
       id="text141550"
       style="font-size:40px;line-height:1.25;fill:none;stroke:none;stroke-opacity:1" />
  </g>
  <g
     inkscape:groupmode="layer"
     id="layer4"
     inkscape:label="OF CHINA"
     style="display:inline">
    <path
       id="path106242-0"
       style="fill:none;stroke-width:3.5331"
       transform="rotate(-44.137649)"
       d="M 146.14563,282.28455 A 143.63602,143.63602 0 0 1 2.5096102,425.92056 143.63602,143.63602 0 0 1 -141.12641,282.28455 143.63602,143.63602 0 0 1 2.5096102,138.64853 143.63602,143.63602 0 0 1 146.14563,282.28455 Z" />
    <text
       xml:space="preserve"
       style="font-style:normal;font-weight:normal;font-size:29.3333px;line-height:1.25;font-family:sans-serif;letter-spacing:5px;word-spacing:6px;fill:#d2111b;fill-opacity:1;stroke:none"
       id="text151862"><textPath
         xlink:href="#path106242-0"
         id="textPath173060"><tspan
           id="tspan151860"
           style="font-style:normal;font-variant:normal;font-weight:normal;font-stretch:normal;font-size:29.3333px;font-family:Arial;-inkscape-font-specification:Arial;fill:#d2111b;fill-opacity:1">OF CHINA</tspan></textPath></text>
  </g>
  <g
     inkscape:groupmode="layer"
     id="layer5"
     inkscape:label="中央民族大学"
     style="display:inline">
    <text
       xml:space="preserve"
       style="font-style:normal;font-weight:normal;font-size:29.3333px;line-height:1.25;font-family:sans-serif;letter-spacing:23px;fill:#d2111b;fill-opacity:1;stroke:none"
       id="text213695"><textPath
         xlink:href="#path257852"
         id="textPath257938"><tspan
           id="tspan213693"
           style="font-style:normal;font-variant:normal;font-weight:normal;font-stretch:normal;font-size:29.3333px;font-family:SimHei;-inkscape-font-specification:SimHei;fill:#d2111b;fill-opacity:1"
           dx="35"
           dy="-12">中央民族大学</tspan></textPath></text>
    <text
       xml:space="preserve"
       id="text223639"
       style="font-style:normal;font-weight:normal;font-size:40px;line-height:1.25;font-family:sans-serif;white-space:pre;shape-inside:url(#rect223641);fill:#000000;fill-opacity:1;stroke:none" />
    <path
       id="path257852"
       style="display:inline;fill:none;fill-rule:evenodd;stroke:none;stroke-width:3"
       d="M 45.007442,294.98617 A 180,180 0 0 0 197.9906,380.81864 180,180 0 0 0 350.97376,294.98618" />
  </g>
</svg>
