<?xml version="1.0" encoding="UTF-8" standalone="no"?>
<!-- Created with Inkscape (http://www.inkscape.org/) -->

<svg
   width="400"
   height="400"
   viewBox="0 0 400 400"
   version="1.1"
   id="svg5"
   sodipodi:docname="MUC-logo-new-flatten.svg"
   inkscape:version="1.1.1 (3bf5ae0d25, 2021-09-20)"
   xmlns:inkscape="http://www.inkscape.org/namespaces/inkscape"
   xmlns:sodipodi="http://sodipodi.sourceforge.net/DTD/sodipodi-0.dtd"
   xmlns="http://www.w3.org/2000/svg"
   xmlns:svg="http://www.w3.org/2000/svg">
  <sodipodi:namedview
     id="namedview7"
     pagecolor="#ffffff"
     bordercolor="#666666"
     borderopacity="1.0"
     inkscape:pageshadow="2"
     inkscape:pageopacity="0.0"
     inkscape:pagecheckerboard="0"
     inkscape:document-units="px"
     showgrid="false"
     inkscape:zoom="1.4142136"
     inkscape:cx="237.58787"
     inkscape:cy="181.37288"
     inkscape:window-width="1920"
     inkscape:window-height="992"
     inkscape:window-x="-8"
     inkscape:window-y="-8"
     inkscape:window-maximized="1"
     inkscape:current-layer="layer5" />
  <defs
     id="defs2">
    <rect
       x="263.04372"
       y="-7.0710678"
       width="164.04877"
       height="132.22897"
       id="rect223641" />
    <rect
       x="31.112698"
       y="66.468037"
       width="242.11765"
       height="58.385343"
       id="rect134490" />
  </defs>
  <g
     inkscape:groupmode="layer"
     id="layer6"
     inkscape:label="OUTBOUNDARY"
     style="display:inline">
    <path
       id="path57-7"
       style="display:inline;fill:none;fill-rule:evenodd;stroke:#d51222;stroke-width:4"
       d="m 377.8334,202.00809 a 180,180 0 0 1 -180,180 180,180 0 0 1 -179.999995,-180 180,180 0 0 1 179.999995,-180.000003 180,180 0 0 1 180,180.000003 z" />
    <path
       id="path57-8-3"
       style="display:inline;fill:none;fill-rule:evenodd;stroke:#d51222;stroke-width:3"
       transform="rotate(172.87613)"
       d="M -34.981766,-223.052 A 136.87241,136.87241 0 0 1 -171.85417,-86.179596 136.87241,136.87241 0 0 1 -308.72658,-223.052 136.87241,136.87241 0 0 1 -171.85417,-359.92441 136.87241,136.87241 0 0 1 -34.981766,-223.052 Z" />
    <path
       class="st1"
       d="m 273.407,124.24364 c -8.01978,-8.38638 -16.0854,-16.77279 -24.10518,-25.11336 -35.74534,0 -71.4448,0 -107.19013,0 -16.58951,0.64158 -23.41776,12.0526 -23.60108,30.75014 0,48.02706 0,96.05409 0,144.08114 1.42064,13.15244 7.33239,23.9677 25.61748,28.1838 18.28511,0 36.57022,0 54.85532,0 5.59093,-2.10805 10.12785,-6.0492 11.73179,-11.13603 2.56635,3.43705 1.78728,7.19489 6.1867,10.63193 10.95272,0 21.85963,0 32.81237,0 8.38639,-8.01977 16.77279,-16.0854 25.11338,-24.10517 -14.71057,0 -29.42116,0 -44.0859,0 -7.37821,-4.94935 -10.81526,-9.8987 -10.26532,-14.89389 -5.45346,9.07381 -10.40281,13.70238 -14.89388,13.83984 -13.65655,0 -27.35894,0 -41.01546,0 -15.94792,-3.20789 -20.98893,-11.91509 -21.03476,-23.09696 0,-40.19057 0,-80.33531 0,-120.52589 1.64979,-6.64496 5.86589,-8.15727 10.76942,-8.2031 39.77813,-0.0459 79.41877,-0.22912 119.10525,-0.41245 z"
       id="path3348-0"
       style="clip-rule:evenodd;display:inline;fill:#d2111b;fill-opacity:1;fill-rule:evenodd;stroke-width:0.458274" />
    <rect
       x="169.47063"
       y="174.51622"
       class="st0"
       width="40.190571"
       height="27.083954"
       id="rect3350-7"
       style="clip-rule:evenodd;display:inline;fill:#d2111b;fill-opacity:1;fill-rule:evenodd;stroke:#d2111b;stroke-width:0.0989869;stroke-miterlimit:22.9256" />
    <path
       class="st1"
       d="m 169.4706,225.84286 h 40.19057 v 17.32273 c 0,4.58272 -3.94113,8.34058 -8.79884,8.34058 h -26.67151 c -2.56633,0 -4.72022,-2.0164 -4.72022,-4.44526 z"
       id="path3352-6"
       style="clip-rule:evenodd;display:inline;fill:#d2111b;fill-opacity:1;fill-rule:evenodd;stroke-width:0.458274" />
    <rect
       x="233.94966"
       y="174.51622"
       class="st1"
       width="38.494961"
       height="27.083954"
       id="rect3354-2"
       style="clip-rule:evenodd;display:inline;fill:#d2111b;fill-opacity:1;fill-rule:evenodd;stroke-width:0.458274" />
    <path
       class="st1"
       d="m 233.94965,225.56789 h 38.49497 v 25.38833 h -27.90884 c -5.82008,0 -10.58613,-4.67436 -10.58613,-10.4028 z"
       id="path3356-2"
       style="clip-rule:evenodd;display:inline;fill:#d2111b;fill-opacity:1;fill-rule:evenodd;stroke-width:0.458274" />
  </g>
  <g
     inkscape:groupmode="layer"
     id="layer2"
     inkscape:label="MINZU UNIVERSITY"
     style="display:inline">
    <g
       aria-label="MINZU UNIVERSITY"
       id="text64465"
       style="font-size:29.3333px;line-height:1.25;font-family:Arial;-inkscape-font-specification:Arial;letter-spacing:5px;word-spacing:14px;fill:#d2111b;stroke:#d2111b;stroke-width:0.5"
       inkscape:transform-center-x="3.5355339"
       inkscape:transform-center-y="33.941126">
      <path
         d="m 66.156718,257.29097 -19.858254,6.82198 -1.358811,-3.9554 12.445867,-9.53071 q 1.740786,-1.32495 2.613713,-1.95801 -1.200007,0.0336 -3.546251,0.037 l -15.450159,-0.008 -1.214554,-3.53547 19.858254,-6.82198 0.870198,2.53308 -16.62079,5.7098 18.603165,0.0607 0.814356,2.37053 -14.932185,11.55098 16.905253,-5.80753 z"
         style="font-size:29.3333px"
         id="path45091" />
      <path
         d="m 57.730947,228.53814 -20.648373,3.81239 -0.504504,-2.73246 20.648374,-3.81239 z"
         style="font-size:29.3333px"
         id="path45093" />
      <path
         d="m 55.633151,216.04588 -20.976457,0.93695 -0.127184,-2.84742 15.977118,-11.75327 -16.469237,0.73562 -0.118876,-2.6614 20.976457,-0.93695 0.127184,2.84742 -15.991427,11.75391 16.483546,-0.73626 z"
         style="font-size:29.3333px"
         id="path45095" />
      <path
         d="m 55.212273,191.50138 -2.557374,-0.32642 -11.979052,-12.37278 q -1.275686,-1.31796 -2.196481,-2.47511 l -1.483417,11.62185 -2.45792,-0.31373 1.904141,-14.91802 2.45792,0.31373 12.956678,13.53718 1.301988,1.45127 1.697405,-13.29835 2.457921,0.31373 z"
         style="font-size:29.3333px"
         id="path45097" />
      <path
         d="m 42.95934,147.86326 0.81416,-2.65669 11.599051,3.55461 q 3.026435,0.92747 4.596855,2.15775 1.570421,1.23029 2.143584,3.36837 0.563665,2.12018 -0.326035,5.02337 -0.864521,2.82102 -2.386582,4.31701 -1.522061,1.49598 -3.592109,1.7005 -2.083743,0.20033 -5.274509,-0.77751 l -11.599051,-3.5546 0.81416,-2.65669 11.585357,3.55041 q 2.615606,0.80157 4.00867,0.70417 1.383566,-0.11529 2.415502,-1.08736 1.036132,-0.98577 1.56072,-2.69755 0.898094,-2.93057 -0.04835,-4.58383 -0.946445,-1.65326 -4.726065,-2.81155 z"
         style="font-size:29.3333px"
         id="path45099" />
      <path
         d="m 72.906491,94.963722 1.71985,-2.182424 9.528415,7.508832 q 2.486163,1.95921 3.505352,3.67416 1.019188,1.71496 0.780314,3.91561 -0.241259,2.18053 -2.120682,4.56544 -1.826232,2.31742 -3.786296,3.16169 -1.960064,0.84427 -3.963962,0.28631 -2.015148,-0.56683 -4.636306,-2.63242 l -9.528416,-7.50883 1.71985,-2.18242 9.517166,7.49996 q 2.148674,1.69326 3.48267,2.10625 1.331612,0.39289 2.645251,-0.14018 1.322503,-0.54432 2.430654,-1.95053 1.897153,-2.40741 1.612675,-4.29105 -0.284478,-1.88364 -3.389369,-4.33044 z"
         style="font-size:29.3333px"
         id="path45101" />
      <path
         d="M 97.736041,98.780966 83.890024,82.995612 86.032783,81.116104 105.19478,86.237189 94.323863,73.84364 l 2.00278,-1.756726 13.846017,15.785355 -2.14276,1.879507 -19.171442,-5.131852 10.880363,12.404317 z"
         style="font-size:29.3333px"
         id="path45103" />
      <path
         d="m 118.53142,82.096851 -11.54644,-17.537655 2.32081,-1.527973 11.54644,17.537654 z"
         style="font-size:29.3333px"
         id="path45105" />
      <path
         d="m 134.66812,72.714135 -16.48365,-15.341565 2.70624,-1.312704 11.56717,11.342871 q 1.39292,1.361972 2.49252,2.611518 -0.31196,-1.758954 -0.48217,-3.58667 l -1.55409,-16.199876 2.55159,-1.237693 1.76688,22.480175 z"
         style="font-size:29.3333px"
         id="path45107" />
      <path
         d="m 151.76723,65.320693 -5.84946,-20.166145 14.58125,-4.229488 0.69028,2.379771 -11.9126,3.455411 1.79154,6.176398 11.15604,-3.235957 0.68629,2.366015 -11.15603,3.235956 1.99105,6.864193 12.38031,-3.591074 0.69028,2.37977 z"
         style="font-size:29.3333px"
         id="path45109" />
      <path
         d="m 175.56086,59.230586 -2.19554,-20.88227 9.25885,-0.973468 q 2.7919,-0.293539 4.30473,0.123477 1.51134,0.402772 2.53001,1.735854 1.01867,1.333082 1.19989,3.056653 0.23363,2.222124 -1.04481,3.897536 -1.27843,1.675411 -4.24057,2.404501 1.15223,0.411724 1.77593,0.864616 1.32758,0.983762 2.58538,2.536535 l 4.22988,5.30161 -3.47563,0.365425 -3.22019,-4.053994 q -1.40846,-1.75296 -2.29674,-2.667696 -0.88828,-0.914737 -1.55696,-1.247683 -0.65445,-0.334445 -1.31192,-0.423739 -0.48055,-0.05029 -1.54887,0.06203 l -3.20499,0.33697 0.97496,9.273095 z m 1.53684,-11.956695 5.93991,-0.624518 q 1.89451,-0.199186 2.9224,-0.696108 1.02639,-0.511166 1.49207,-1.424237 0.46417,-0.927316 0.35784,-1.938667 -0.15576,-1.481416 -1.33867,-2.321969 -1.16867,-0.842051 -3.49051,-0.597935 l -6.60939,0.694907 z"
         style="font-size:29.3333px"
         id="path45111" />
      <path
         d="m 201.18816,50.618517 2.63082,-0.03759 q 0.0709,1.584897 0.66822,2.648166 0.61262,1.050028 1.99519,1.782912 1.38362,0.7186 3.16922,0.84904 1.58562,0.11583 2.83426,-0.26687 1.24865,-0.382701 1.89381,-1.154152 0.66049,-0.784693 0.73145,-1.756062 0.072,-0.985654 -0.44618,-1.755921 -0.51713,-0.784552 -1.79481,-1.380525 -0.8188,-0.390119 -3.65425,-1.286582 -2.8344,-0.910747 -3.9466,-1.60952 -1.44252,-0.895236 -2.10081,-2.10657 -0.64295,-1.224576 -0.53756,-2.667345 0.11583,-1.585616 1.11595,-2.891219 1.00117,-1.319888 2.78181,-1.907864 1.78064,-0.587976 3.8948,-0.433535 2.32843,0.170093 4.04444,1.056586 1.73134,0.873251 2.58199,2.40022 0.85064,1.526969 0.78745,3.374931 l -2.67159,0.0059 q -0.0692,-2.001245 -1.23791,-3.106255 -1.15441,-1.103965 -3.56854,-1.28032 -2.51414,-0.183659 -3.73904,0.66033 -1.20957,0.830748 -1.30453,2.130668 -0.0824,1.128502 0.67858,1.91651 0.74673,0.786963 4.0616,1.804615 3.3302,1.00441 4.54553,1.667633 1.76689,0.976375 2.5433,2.33995 0.77746,1.34929 0.65433,3.034901 -0.1221,1.671325 -1.1877,3.087033 -1.06457,1.401422 -2.92498,2.098459 -1.84509,0.683796 -4.08781,0.519964 -2.84268,-0.20766 -4.71061,-1.177056 -1.85364,-0.968352 -2.83253,-2.705744 -0.96355,-1.750633 -0.8673,-3.854678 z"
         style="font-size:29.3333px"
         id="path45113" />
      <path
         d="m 226.49071,60.296102 4.2581,-20.561085 2.7209,0.563487 -4.2581,20.561085 z"
         style="font-size:29.3333px"
         id="path45115" />
      <path
         d="m 243.90608,64.880274 5.98641,-17.525271 -6.54657,-2.236223 0.80097,-2.344835 15.7497,5.379899 -0.80096,2.344835 -6.57367,-2.245483 -5.98642,17.525271 z"
         style="font-size:29.3333px"
         id="path45117" />
      <path
         d="m 265.51114,74.039374 4.21366,-7.833108 -1.39318,-14.492261 2.97683,1.601327 0.64627,7.536201 q 0.16772,2.106922 0.19669,4.139205 1.61281,-1.002747 3.77558,-2.181303 l 6.50675,-3.509485 2.85069,1.533473 -13.11257,6.689187 -4.21366,7.833108 z"
         style="font-size:29.3333px"
         id="path45119" />
    </g>
    <path
       id="path106242"
       style="fill:none;stroke:none;stroke-width:3.5331;stroke-opacity:1"
       transform="rotate(156.22168)"
       d="m 42.86628,-264.32288 a 143.63602,143.63602 0 0 1 -143.63602,143.63602 143.63602,143.63602 0 0 1 -143.63601,-143.63602 143.63602,143.63602 0 0 1 143.63601,-143.63601 143.63602,143.63602 0 0 1 143.63602,143.63601 z" />
    <g
       id="text134488"
       style="font-size:40px;line-height:1.25;white-space:pre;shape-inside:url(#rect134490);fill:none;stroke:none;stroke-opacity:1" />
    <g
       id="text141550"
       style="font-size:40px;line-height:1.25;fill:none;stroke:none;stroke-opacity:1" />
  </g>
  <g
     inkscape:groupmode="layer"
     id="layer4"
     inkscape:label="OF CHINA"
     style="display:inline">
    <path
       id="path106242-0"
       style="fill:none;stroke-width:3.5331"
       transform="rotate(-44.137649)"
       d="M 146.14563,282.28455 A 143.63602,143.63602 0 0 1 2.5096102,425.92056 143.63602,143.63602 0 0 1 -141.12641,282.28455 143.63602,143.63602 0 0 1 2.5096102,138.64853 143.63602,143.63602 0 0 1 146.14563,282.28455 Z" />
    <g
       aria-label="OF CHINA"
       id="text151862"
       style="font-size:29.3333px;line-height:1.25;letter-spacing:5px;word-spacing:6px;fill:#d2111b;stroke:#d2111b;stroke-width:0.5">
      <path
         d="m 310.5812,95.08529 q 4.02578,-3.335199 8.08883,-3.055739 4.07407,0.270323 6.90671,3.689483 1.85491,2.238999 2.27447,4.923156 0.41955,2.68416 -0.7229,5.2116 -1.12229,2.52933 -3.54879,4.53959 -2.45959,2.03767 -5.22317,2.65322 -2.76358,0.61554 -5.27496,-0.37282 -2.50035,-0.99749 -4.24562,-3.10414 -1.89147,-2.28312 -2.27793,-4.99469 -0.38646,-2.71157 0.75409,-5.218841 1.14056,-2.507275 3.26927,-4.270819 z m 1.79442,2.233323 q -2.92284,2.421446 -3.31283,5.385687 -0.36982,2.96613 1.59475,5.33748 2.00112,2.41547 4.98806,2.56346 2.99608,0.15902 6.11744,-2.42691 1.97429,-1.63561 2.88383,-3.52371 0.92971,-1.8862 0.66578,-3.8437 -0.24377,-1.955604 -1.56871,-3.554889 -1.88233,-2.272087 -4.81002,-2.61796 -2.90752,-0.343981 -6.5583,2.680542 z"
         style="font-size:29.3333px;font-family:Arial;-inkscape-font-specification:Arial"
         id="path47486" />
      <path
         d="m 320.23452,124.45548 18.2738,-10.34204 6.977,12.32796 -2.15646,1.22044 -5.60841,-9.90973 -5.65914,3.20278 4.85356,8.57598 -2.15645,1.22044 -4.85357,-8.57597 -8.30174,4.69836 z"
         style="font-size:29.3333px;font-family:Arial;-inkscape-font-specification:Arial"
         id="path47488" />
      <path
         d="m 347.45701,175.84757 -0.10929,2.86382 q -3.52999,-0.14352 -5.76839,-1.99628 -2.22142,-1.84173 -2.90278,-5.05012 -0.70517,-3.32047 0.1965,-5.69367 0.91866,-2.36215 3.25049,-3.99946 2.33481,-1.6233 5.277,-2.24814 3.20839,-0.68136 5.84902,0.0317 2.65762,0.72413 4.36958,2.71798 1.72894,2.00488 2.30617,4.72291 0.65458,3.0823 -0.46828,5.51711 -1.12286,2.43481 -3.79143,3.86543 l -1.19877,-2.54211 q 2.08992,-1.19059 2.82407,-2.76681 0.73415,-1.57621 0.29677,-3.63575 -0.50284,-2.36776 -1.97688,-3.72395 -1.47106,-1.34217 -3.52736,-1.57902 -2.04229,-0.23983 -4.0738,0.1916 -2.61996,0.5564 -4.42075,1.72951 -1.7838,1.18416 -2.40835,3.00066 -0.62456,1.8165 -0.22585,3.6939 0.48498,2.2837 2.13818,3.5872 1.6532,1.30349 4.36415,1.31346 z"
         style="font-size:29.3333px;font-family:Arial;-inkscape-font-specification:Arial"
         id="path47490" />
      <path
         d="m 341.7329,188.59414 20.98936,-0.58017 0.0768,2.77758 -8.61909,0.23824 0.30156,10.90989 8.61909,-0.23824 0.0768,2.77758 -20.98936,0.58016 -0.0768,-2.77758 9.89334,-0.27346 -0.30156,-10.90988 -9.89334,0.27346 z"
         style="font-size:29.3333px;font-family:Arial;-inkscape-font-specification:Arial"
         id="path47492" />
      <path
         d="m 341.3116,215.13796 20.87394,2.27337 -0.30084,2.76231 -20.87394,-2.27337 z"
         style="font-size:29.3333px;font-family:Arial;-inkscape-font-specification:Arial"
         id="path47494" />
      <path
         d="m 339.74002,227.70697 20.37018,5.09364 -0.69142,2.76512 -18.66862,6.70004 15.99324,3.99917 -0.64626,2.58448 -20.37019,-5.09363 0.69143,-2.76513 18.68251,-6.69656 -16.00713,-4.00265 z"
         style="font-size:29.3333px;font-family:Arial;-inkscape-font-specification:Arial"
         id="path47496" />
      <path
         d="m 333.44367,250.79709 15.84791,15.96114 -1.22687,2.73053 -22.67496,-0.76691 1.29731,-2.8873 6.80453,0.37231 3.59843,-8.00865 -4.85562,-4.70979 z m 5.38184,9.06023 -2.91749,6.49315 6.20241,0.38441 q 2.82788,0.17146 4.58217,0.42581 -1.67776,-1.19351 -3.19437,-2.67577 z"
         style="font-size:29.3333px;font-family:Arial;-inkscape-font-specification:Arial"
         id="path47498" />
    </g>
  </g>
  <g
     inkscape:groupmode="layer"
     id="layer5"
     inkscape:label="中央民族大学"
     style="display:inline">
    <g
       aria-label="中央民族大学"
       id="text213695"
       style="font-size:29.3333px;line-height:1.25;letter-spacing:23px;fill:#d2111b;stroke:#d2111b;stroke-width:0.5">
      <path
         d="m 101.66423,307.7146 q -2.257719,2.28237 -4.198287,4.3895 l 7.332827,6.75318 q -1.63674,1.60808 -4.35354,4.55807 -2.639172,2.8657 -3.874473,4.37618 l -1.854278,-1.7077 1.164341,-1.26428 -5.478547,-5.04548 -3.337778,3.62427 q -0.931473,1.01142 -3.408738,3.87046 l -2.022849,-1.86295 q 1.565781,-1.36189 3.428726,-3.38473 l 3.570647,-3.87713 -5.478548,-5.04548 -1.164341,1.26428 -1.854278,-1.7077 q 1.248627,-1.18666 4.043046,-4.22093 2.872041,-3.11856 4.184965,-4.71332 l 7.332826,6.75318 q 2.095814,-2.2757 4.02972,-4.54474 z m -4.541446,15.75638 4.579746,-4.97284 -5.478551,-5.04547 -4.579742,4.97283 z m -7.248539,-6.67556 4.579742,-4.97283 -5.478548,-5.04548 -4.579742,4.97284 z"
         style="font-size:29.3333px;font-family:SimHei;-inkscape-font-specification:SimHei"
         id="path47519" />
      <path
         d="m 132.75284,332.89337 q 0.40173,-0.82395 1.40091,-3.39623 1.18827,0.96178 2.4242,1.56436 -1.36351,2.01223 -1.71501,2.73319 l -0.90388,1.85389 7.31256,3.56528 q -0.85622,1.49469 -1.4588,2.73062 l -2.46055,5.0467 q 1.6479,0.80344 3.655,1.65454 l -0.90388,1.85389 q -2.00966,-1.1073 -3.45157,-1.81031 l -5.76766,-2.81206 q -0.13014,2.35861 0.81988,5.11637 0.95001,2.75777 2.40218,4.48559 1.55516,1.77804 2.84386,2.53384 -1.63508,0.47757 -2.70242,1.35942 -3.31118,-3.14411 -4.68086,-6.87134 -1.31947,-3.83023 -0.79273,-7.52519 l -0.72096,-0.35151 q -2.58917,2.43445 -5.75379,3.69601 -3.0114,1.20878 -9.05728,1.32052 0.0374,-1.38401 -0.79681,-2.81055 2.05476,0.4919 4.15459,0.3684 2.20284,-0.0733 4.65418,-0.91774 2.55434,-0.79424 4.78945,-2.76394 l -6.48861,-3.16356 q -1.44192,-0.70302 -3.24303,-1.45368 l 0.90388,-1.85389 q 1.70068,0.95665 3.34858,1.7601 l 2.46055,-5.0467 q 0.5498,-1.38914 1.25282,-2.83105 l 7.62154,3.71593 z m 2.64254,13.14372 2.96271,-6.07664 -5.25269,-2.56098 q -1.96352,3.50436 -3.68366,5.72513 z m -8.03352,-3.91679 q 2.37807,-3.04729 3.68366,-5.72513 l -5.45867,-2.66141 -2.9627,6.07663 z"
         style="font-size:29.3333px;font-family:SimHei;-inkscape-font-specification:SimHei"
         id="path47521" />
      <path
         d="m 174.65977,352.42529 q -0.23975,2.16687 -0.19766,4.03168 l 5.76649,0.94705 q 1.58296,0.25997 3.74983,0.49973 l -0.35282,2.1483 q -1.9036,-0.42875 -3.71269,-0.72587 l -5.42729,-0.89134 q 0.40647,4.59537 2.54116,7.1522 2.24775,2.5754 3.18943,2.49782 0.92312,0.0355 1.29782,-0.83192 0.50633,-0.9619 0.65489,-1.86645 1.00069,0.97717 2.3963,1.67085 -1.31308,2.33895 -2.25311,3.11351 -0.94004,0.77456 -2.71199,0.25131 -1.77196,-0.52325 -3.16922,-1.91391 -1.2842,-1.37209 -2.19205,-2.91461 -0.77621,-1.63701 -1.28914,-3.46303 -0.51294,-1.82601 -0.61239,-4.04859 l -7.91479,-1.29988 -1.2256,7.46252 q 3.04955,-0.89258 5.77846,-1.95394 -0.10976,1.3754 0.19395,2.35422 -2.54156,0.62766 -4.74392,1.31102 -2.10786,0.815 -3.85795,1.57264 -0.51128,-1.12903 -1.1542,-2.16357 1.50538,-0.68171 1.83798,-3.41392 l 2.3212,-14.13356 q 0.4271,-2.60058 0.704,-4.99358 l 19.90005,3.26825 q -0.44733,2.01666 -0.72587,3.71269 -0.25997,1.58296 -0.53687,3.97597 z m 6.17668,-0.84347 0.6685,-4.07047 -15.15117,-2.48833 -0.66851,4.07047 z m -8.52264,4.52233 q 0.0322,-2.31708 0.19766,-4.03168 l -7.12331,-1.16989 -0.64994,3.9574 z"
         style="font-size:29.3333px;font-family:SimHei;-inkscape-font-specification:SimHei"
         id="path47523" />
      <path
         d="m 222.52626,350.68241 q -0.62095,0.54511 -1.00726,1.98373 l 4.20245,-0.5599 q 1.47653,-0.19673 3.73299,-0.61296 l 0.27239,2.04444 q -2.28673,0.18907 -5.12622,0.56738 l 0.52964,3.97529 2.61233,-0.34805 q 1.81727,-0.24212 3.84657,-0.62809 l 0.27239,2.04443 q -2.05957,0.15881 -3.87684,0.40093 l -2.49875,0.33292 q 0.74184,2.09748 2.70278,3.80134 2.07453,1.68873 5.27737,2.30237 -1.22676,1.20381 -1.61307,2.64243 -2.24115,-1.20415 -4.02799,-2.46883 -1.80197,-1.37826 -3.07379,-3.98311 -0.77261,2.87723 -2.24932,4.80792 -1.36312,1.91555 -4.00589,3.77039 -0.81767,-0.93142 -1.97608,-1.81744 5.29301,-2.78593 6.46724,-8.72216 l -1.47653,0.19672 q -2.38517,0.31779 -4.30089,0.68862 l -0.27239,-2.04443 q 1.94598,-0.14368 3.87684,-0.40093 l 2.15801,-0.28752 -0.52964,-3.97528 -1.59011,0.21185 q -0.49989,1.45375 -1.32538,3.06648 -1.22659,-0.53015 -2.19576,-0.86341 1.1511,-1.7717 1.7343,-3.46774 0.56807,-1.80963 0.71209,-3.33156 1.08274,0.31813 2.74852,0.67417 z m -7.39781,0.87003 q -2.05956,0.15881 -3.5361,0.35553 l -1.70369,0.22699 0.5599,4.20245 4.77035,-0.63557 q 0.0301,1.96112 0.28734,3.89197 l 0.70358,6.14843 q 0.25725,1.93085 -0.67417,2.74852 -0.93142,0.81767 -2.49127,1.25669 -0.2649,-1.12067 -1.69587,-2.31716 1.59012,-0.21186 2.24133,-0.52981 0.76479,-0.33309 0.61346,-1.46889 l -0.91543,-7.73854 -2.72591,0.36318 q 0.40093,3.87684 0.10542,5.99693 -0.18194,2.10497 -0.65156,3.78587 -0.48475,1.56733 -1.49201,3.55106 -1.02969,-0.78757 -2.24115,-1.20414 1.1511,-1.77171 1.77222,-4.05078 0.60598,-2.39265 0.50023,-4.92167 -0.007,-2.65772 -0.82447,-8.79102 -1.47653,0.19672 -3.05152,0.52216 l -0.25725,-1.93086 q 1.60525,-0.0983 4.6719,-0.50685 3.18022,-0.42371 5.77742,-0.88534 z m 5.6494,-7.91961 q -0.68913,0.90098 -1.27998,3.40721 l 5.79256,-0.77176 q 1.93085,-0.25725 4.18731,-0.67348 l 0.27238,2.04443 -10.67648,1.42246 q -1.59045,3.67977 -2.23418,4.92149 -1.27199,-0.87089 -2.21089,-0.97699 1.44644,-2.15784 2.24932,-4.80791 0.91646,-2.66521 1.16657,-5.12604 1.79449,0.45449 2.73339,0.56059 z m -11.22159,0.80151 q 1.42331,2.00668 2.49076,3.94519 -1.07527,0.60564 -2.26412,1.22642 -0.93873,-1.84006 -2.37717,-3.96033 1.0904,-0.49206 2.15053,-1.21128 z"
         style="font-size:29.3333px;font-family:SimHei;-inkscape-font-specification:SimHei"
         id="path47525" />
      <path
         d="m 258.92248,340.3502 q -1.54313,-3.70341 -2.21249,-4.90994 -0.56489,-1.2536 -1.18718,-2.35566 1.34775,-0.35596 2.96183,-0.95761 0.15734,1.18589 0.84282,3.26491 0.78995,2.03194 1.68436,4.01681 l 5.32781,-2.40079 q 2.8206,-1.271 5.12919,-2.56265 l 1.03563,2.29827 q -2.13641,0.83702 -4.33021,1.82558 l -6.16354,2.77739 q 1.21813,1.58764 3.11013,2.9973 1.84493,1.30519 3.54864,2.29698 1.76111,0.84025 4.34762,1.55992 2.69099,0.67259 5.46,0.68162 -0.55329,1.0034 -0.72998,2.84253 -2.35115,-0.19733 -4.93767,-0.917 -2.48205,-0.76674 -5.49223,-2.4266 -2.9528,-1.81141 -4.88156,-3.58154 0.1999,2.67486 -0.0342,4.66553 -0.28116,1.88621 -0.8654,3.65763 -0.47978,1.72434 -1.69082,3.77821 -1.10658,2.00679 -2.73549,4.24895 -1.40063,-0.87701 -2.86896,-1.34646 1.86428,-1.71983 3.34165,-4.01939 1.58184,-2.34663 2.18672,-4.63006 0.5578,-2.38791 0.5462,-4.6449 -0.0116,-2.257 -0.60293,-4.12709 l -5.74568,2.58909 q -2.5072,1.12979 -3.92266,1.89329 l -1.03564,-2.29827 q 1.50961,-0.55457 4.06389,-1.57989 z"
         style="font-size:29.3333px;font-family:SimHei;-inkscape-font-specification:SimHei"
         id="path47527" />
      <path
         d="m 305.36752,313.48963 1.57567,1.81859 q -0.9873,1.31025 -1.50127,2.81683 -0.50241,1.34495 -1.27619,3.07663 l 0.67529,0.77939 5.45579,-4.727 q 1.0392,-0.90039 2.60956,-2.41259 l 1.50064,1.73199 q -1.80703,1.41404 -2.75963,2.23939 l -5.45578,4.72701 3.0763,3.55059 q 1.05045,1.2124 0.32295,2.29755 -0.65247,1.17175 -2.6674,3.22075 -1.08515,-0.72751 -2.5167,-1.15488 l 2.33819,-2.02586 q 0.866,-0.75032 0.0407,-1.70292 l -2.32599,-2.68459 -5.97539,5.1772 q -1.38559,1.20051 -3.04256,2.78775 l -1.50064,-1.732 q 1.89363,-1.48907 3.10603,-2.53952 l 6.06199,-5.25223 q -0.60026,-0.6928 -1.52378,-1.40873 l 1.76702,-4.25994 -4.76299,4.12675 q -1.64539,1.4256 -3.64876,3.31297 l -1.4256,-1.6454 q 1.98022,-1.5641 3.71222,-3.06474 z m -5.25754,-9.39279 q -0.006,3.49243 0.58211,6.62127 l 4.76299,-4.12675 q 0.58869,0.85443 1.48907,1.89363 0.90038,1.0392 1.81233,1.91676 l -1.81859,1.57567 -2.02587,-2.33819 -14.98176,12.98051 2.10089,2.4248 -1.81859,1.57567 q -0.81379,-1.11423 -1.71417,-2.15343 -0.90038,-1.0392 -1.66227,-1.74356 l 12.03737,-10.42944 q -0.35764,-1.81265 -0.79032,-3.7119 -0.42112,-2.06088 -1.1136,-3.73504 2.06089,-0.42111 3.14041,-0.75 z m -9.0639,6.33706 q 3.44617,0.65279 4.79112,1.1552 -0.25418,1.28148 -0.66999,2.5514 -1.8933,-0.78534 -4.77954,-1.31683 0.34078,-1.35651 0.65841,-2.38977 z m -5.36356,5.70837 q 2.68428,-0.0516 5.01058,0.3586 -0.35234,1.51815 -0.34672,2.57454 -2.5514,-0.66998 -5.07404,-0.60683 0.35234,-1.51815 0.41018,-2.32631 z"
         style="font-size:29.3333px;font-family:SimHei;-inkscape-font-specification:SimHei"
         id="path47529" />
    </g>
    <text
       xml:space="preserve"
       id="text223639"
       style="font-style:normal;font-weight:normal;font-size:40px;line-height:1.25;font-family:sans-serif;white-space:pre;shape-inside:url(#rect223641);fill:#000000;fill-opacity:1;stroke:none" />
    <path
       id="path257852"
       style="display:inline;fill:none;fill-rule:evenodd;stroke:none;stroke-width:3"
       d="M 45.007442,294.98617 A 180,180 0 0 0 197.9906,380.81864 180,180 0 0 0 350.97376,294.98618" />
  </g>
</svg>
