<?xml version="1.0" encoding="UTF-8" standalone="no"?>
<!-- Created with Inkscape (http://www.inkscape.org/) -->

<svg
   width="1200"
   height="628"
   viewBox="0 0 1200 628"
   version="1.1"
   id="svg5"
   inkscape:version="1.1.1 (3bf5ae0d25, 2021-09-20)"
   sodipodi:docname="MUC-title.svg"
   xmlns:inkscape="http://www.inkscape.org/namespaces/inkscape"
   xmlns:sodipodi="http://sodipodi.sourceforge.net/DTD/sodipodi-0.dtd"
   xmlns="http://www.w3.org/2000/svg"
   xmlns:svg="http://www.w3.org/2000/svg">
  <sodipodi:namedview
     id="namedview7"
     pagecolor="#ffffff"
     bordercolor="#666666"
     borderopacity="1.0"
     inkscape:pageshadow="2"
     inkscape:pageopacity="0.0"
     inkscape:pagecheckerboard="0"
     inkscape:document-units="px"
     showgrid="false"
     inkscape:zoom="0.70062497"
     inkscape:cx="730.06248"
     inkscape:cy="306.15523"
     inkscape:window-width="1920"
     inkscape:window-height="992"
     inkscape:window-x="-8"
     inkscape:window-y="-8"
     inkscape:window-maximized="1"
     inkscape:current-layer="layer1" />
  <defs
     id="defs2" />
  <g
     inkscape:label="图层 1"
     inkscape:groupmode="layer"
     id="layer1">
    <path
       style="fill:#db2128;stroke-width:0.534953;fill-opacity:1"
       d="m 144.76306,465.33285 -0.81702,-0.817 0.22937,-26.6039 0.22938,-26.6039 -0.6283,-3.7401 c -0.34555,-2.0571 -0.76879,-10.4163 -0.94052,-18.576 l -0.31224,-14.8359 0.91453,-2.3946 0.91453,-2.3947 -0.14136,-6.3074 c -0.0778,-3.4691 0.0315,-9.847 0.24283,-14.1732 l 0.38419,-7.8656 -1.18596,-0.6348 -1.18597,-0.6347 -5.5692,0.3408 -5.56919,0.3407 -3.01904,-0.8603 -3.01905,-0.8603 -1.18586,-1.4731 c -0.65222,-0.8102 -1.97623,-1.7706 -2.94224,-2.1343 -0.96601,-0.3637 -2.23784,-0.8616 -2.82629,-1.1066 -0.58845,-0.245 -3.48915,-0.5428 -6.446,-0.6619 -2.95686,-0.119 -5.75722,-0.436 -6.22304,-0.7042 -0.46581,-0.2683 -2.05592,-1.9401 -3.53356,-3.7151 l -2.68663,-3.2272 -0.10836,-6.4019 c -0.0596,-3.5211 0.0578,-9.7722 0.26082,-13.8913 l 0.36918,-7.4893 1.05582,-2.5764 1.05581,-2.5763 -0.19829,-6.5179 c -0.10906,-3.5848 -0.52474,-8.0147 -0.92374,-9.8443 l -0.72545,-3.3264 0.71673,-2.1717 0.71673,-2.1717 2.52306,-1.8127 c 1.38768,-0.9969 3.99967,-2.2269 5.80443,-2.7333 l 3.28138,-0.9207 1.05943,0.9588 c 0.58269,0.5273 1.06819,1.4631 1.07889,2.0795 0.0107,0.6164 1.20669,2.6807 2.65774,4.5875 l 2.63828,3.4667 0.52216,2.1503 c 0.28718,1.1826 1.04027,3.5946 1.67353,5.36 l 1.15138,3.2097 -0.30023,3.7447 c -0.37574,4.6864 -1.8758,21.7469 -1.97553,22.468 -0.0407,0.2942 0.17302,2.163 0.47492,4.1528 l 0.5489,3.6178 1.16093,1.8784 c 1.99359,3.2257 5.18875,4.161 9.82089,2.8749 1.14198,-0.3171 2.34563,-0.7936 2.67476,-1.0589 3.30763,-2.666 4.21848,-3.2878 5.76641,-3.9367 0.98252,-0.4119 2.75995,-1.8343 3.94984,-3.1611 l 2.16343,-2.4122 0.0687,-4.7222 0.0687,-4.7222 1.11135,-2.5853 1.11136,-2.5854 v -9.5725 -9.5725 l -1.20364,-0.7663 c -1.09266,-0.6958 -3.24676,-1.3512 -9.91103,-3.0155 l -2.28794,-0.5714 -1.59047,-2.1956 -1.59047,-2.1956 v -2.2615 -2.2616 l 0.83334,-0.6916 c 0.45833,-0.3804 1.16823,-1.4931 1.57756,-2.4728 l 0.74422,-1.7812 h 0.85139 c 0.82218,0 3.28215,-1.5529 5.08456,-3.2097 0.48011,-0.4413 2.16442,-1.7653 3.7429,-2.9422 1.57848,-1.1769 3.89247,-3.1771 5.14221,-4.4448 l 2.27223,-2.305 0.83292,-2.7771 c 1.06356,-3.5461 1.92166,-10.1305 1.92166,-14.7452 v -3.599 l 0.58452,-0.5845 0.58451,-0.5845 -0.58451,-1.0922 c -0.32149,-0.6007 -0.58452,-1.9918 -0.58452,-3.0913 v -1.9991 l -0.90348,-0.9983 -0.90348,-0.9984 -0.23748,-3.3234 -0.23749,-3.3234 -0.99884,-1.2758 -0.99885,-1.2758 v -7.0565 -7.0564 l 1.21908,-1.1453 c 0.67049,-0.6299 2.46928,-1.4339 3.99731,-1.7866 l 2.77821,-0.6413 2.85482,0.6389 2.85482,0.6389 1.74857,1.5971 c 0.96171,0.8784 2.45211,1.9609 3.31199,2.4055 0.85988,0.4447 1.56343,1.0189 1.56343,1.276 0,0.2571 0.78933,1.6403 1.75406,3.0739 0.96473,1.4336 2.43306,4.6939 3.26294,7.2451 l 1.50889,4.6385 -0.3054,7.1187 c -0.16796,3.9153 -0.45795,8.2757 -0.64442,9.6897 -0.18647,1.4141 -0.17651,3.6548 0.0221,4.9794 l 0.36116,2.4085 1.12912,0.4177 1.12912,0.4176 3.2468,-1.0627 3.24681,-1.0626 6.68692,-0.1507 c 3.67781,-0.083 7.28874,0.046 8.0243,0.2864 0.73556,0.2404 2.36448,0.7156 3.61981,1.0562 3.05537,0.8288 5.50764,3.0899 7.10022,6.5468 0.72233,1.5679 1.6041,3.0915 1.95948,3.3857 1.15606,0.9571 1.76424,3.4721 1.76424,7.2957 v 3.7488 l -1.12995,4.6419 c -0.62146,2.553 -1.4403,5.003 -1.81963,5.4443 -0.37933,0.4413 -1.47952,2.4875 -2.44487,4.5471 l -1.75518,3.7447 -4.1455,4.1973 -4.1455,4.1972 0.29056,0.7572 0.29056,0.7572 -2.19941,2.0714 c -1.20967,1.1393 -2.20239,2.28 -2.20603,2.5349 -0.004,0.2549 -2.71504,3.2657 -6.02534,6.6906 l -6.01873,6.2271 -0.61009,2.3321 -0.6101,2.3322 0.41313,2.6363 0.41312,2.6363 -1.03586,4.2676 -1.03586,4.2677 -1.36215,1.7858 -1.36215,1.7859 -1.945,0.4877 c -1.06976,0.2682 -3.92185,0.8623 -6.33799,1.3202 l -4.39298,0.8325 -1.19027,1.1902 -1.19028,1.1903 -0.38795,2.1736 c -0.21337,1.1954 -0.74901,3.1386 -1.1903,4.318 -1.11735,2.9864 -1.56506,9.8394 -1.79954,27.5455 l -0.20192,15.2461 0.57729,1.0812 0.57728,1.0811 -0.20498,9.3505 -0.20498,9.3504 -0.63345,2.4073 c -0.3484,1.324 -0.76901,3.3702 -0.9347,4.5471 -0.16568,1.1769 -0.64211,3.0474 -1.05873,4.1567 l -0.75751,2.0169 -2.7e-4,4.6701 -2.7e-4,4.67 -1.06964,2.8142 -1.06964,2.8143 v 6.2329 6.233 l -0.83463,2.9892 c -0.45905,1.6441 -1.18124,4.1049 -1.60486,5.4684 -0.42363,1.3635 -0.77023,3.134 -0.77023,3.9344 0,0.8005 -0.60182,2.6536 -1.33738,4.1181 -0.73556,1.4644 -1.33738,3.32 -1.33738,4.1235 v 1.4608 l -1.5004,1.4375 -1.50039,1.4374 h -1.32722 c -0.72997,0 -1.69487,-0.3676 -2.14422,-0.817 z m 31.50056,-174.21 c 0.94564,-1.2304 1.71934,-2.5323 1.71934,-2.8932 0,-0.3608 1.06354,-1.7503 2.36342,-3.0878 l 2.36342,-2.4318 0.66309,-3.1006 0.6631,-3.1006 1.16316,-1.3374 c 0.63974,-0.7355 1.60285,-2.8419 2.14024,-4.6808 0.53739,-1.8389 1.1797,-3.3435 1.42734,-3.3435 0.24764,0 0.45025,-0.3242 0.45025,-0.7205 0,-0.3964 0.48146,-1.2757 1.06991,-1.9542 l 1.0699,-1.2336 v -2.0232 c 0,-1.1127 -0.24593,-2.67 -0.54653,-3.4606 l -0.54653,-1.4375 -3.01083,0.2497 -3.01084,0.2497 -0.58852,0.834 c -0.32369,0.4587 -0.94258,1.3387 -1.37531,1.9554 -0.43274,0.6168 -0.99289,1.1214 -1.2448,1.1214 -0.51932,0 -3.58543,2.9536 -3.58543,3.4539 0,0.1795 -0.82205,1.1485 -1.82679,2.1532 l -1.82679,1.8268 -0.29762,3.3712 c -0.26117,2.9583 -0.81477,10.8947 -1.14937,16.4775 -0.0617,1.0298 -0.29344,2.6547 -0.51494,3.611 l -0.40271,1.7386 h 1.55725 1.55725 z m 838.11898,159.0166 c -0.8827,-0.2131 -2.1071,-0.6572 -2.7209,-0.9871 -1.6973,-0.9122 -4.966,-4.738 -5.3478,-6.2595 -0.1865,-0.7429 -0.5284,-1.3508 -0.7599,-1.3508 -0.2314,0 -1.4179,-2.041 -2.6365,-4.5354 l -2.2158,-4.5354 0.836,-1.6166 0.8359,-1.6166 h 1.7931 1.7931 l 0.6945,0.8369 0.6945,0.8368 1.2106,-0.3039 c 0.6658,-0.1671 1.3599,-0.062 1.5423,0.2331 0.5478,0.8863 2.7441,0.6119 5.7368,-0.7167 l 2.8237,-1.2537 3.076,-3.0841 c 1.6918,-1.6962 3.076,-3.3348 3.076,-3.6411 0,-0.3064 0.9629,-2.2272 2.1398,-4.2685 1.1769,-2.0413 2.1398,-3.9628 2.1398,-4.27 0,-0.3072 0.4423,-1.3092 0.9828,-2.2266 0.5404,-0.9174 1.4007,-3.2327 1.9114,-5.1452 0.5109,-1.9124 1.4212,-4.4912 2.0232,-5.7305 l 1.0943,-2.2533 -0.2261,-3.5512 -0.2261,-3.5511 -1.0107,-0.5656 c -0.5559,-0.3111 -2.1981,-0.6404 -3.6494,-0.7316 l -2.6386,-0.166 -1.1364,0.6281 c -0.6251,0.3455 -2.3402,1.0521 -3.8113,1.5703 l -2.6748,0.9422 -3.3119,0.017 c -1.8215,0.01 -3.4606,0.2582 -3.6425,0.5524 -0.1818,0.2942 -0.7914,0.5349 -1.3546,0.5349 -1.2072,0 -4.5075,1.4017 -10.4143,4.423 -2.35376,1.204 -5.18236,2.3864 -6.28566,2.6277 -1.1034,0.2413 -2.9088,0.6684 -4.0122,0.9492 -1.1033,0.2808 -3.0893,0.7854 -4.4134,1.1215 -1.324,0.336 -3.542,0.7307 -4.9289,0.8772 l -2.52169,0.2662 -2.88308,-1.6495 c -3.47275,-1.9869 -7.4137,-6.0741 -8.99486,-9.3287 -1.27956,-2.6337 -1.131,-3.6399 0.71614,-4.8502 l 1.23825,-0.8113 3.72494,0.5275 c 3.79282,0.5371 8.0767,0.2216 8.6054,-0.6337 0.1608,-0.2603 0.6837,-0.4732 1.1618,-0.4732 0.4782,0 1.8482,-0.4591 3.0445,-1.0201 2.6391,-1.2377 13.5319,-4.8644 14.61036,-4.8644 0.4253,0 1.4122,-0.348 2.1932,-0.7734 1.2499,-0.6806 2.9019,-1.408 6.7695,-2.9804 0.5884,-0.2393 2.3939,-0.8494 4.0121,-1.356 1.6182,-0.5065 3.4237,-1.1128 4.0122,-1.3474 0.5884,-0.2346 2.0328,-0.7384 3.2097,-1.1196 1.1769,-0.3812 2.9295,-1.1192 3.8947,-1.6402 l 1.7548,-0.9472 h 2.8238 2.8237 l 0.8083,-0.6686 c 2.4058,-1.9901 3.2381,-5.2454 1.8205,-7.1197 -0.432,-0.5711 -0.7931,-1.401 -0.8024,-1.8441 -0.015,-0.7171 -2.3804,-3.1633 -7.35,-7.6018 -0.8949,-0.7992 -1.7479,-1.9154 -1.8956,-2.4802 l -0.2686,-1.0271 2.7424,-3.428 c 1.5085,-1.8855 3.2457,-3.9631 3.8607,-4.617 0.6149,-0.6539 1.4488,-1.8468 1.853,-2.651 0.4043,-0.8042 1.1649,-2.1011 1.6905,-2.8821 0.5255,-0.7809 0.9554,-1.7667 0.9554,-2.1906 0,-0.4239 0.4678,-1.194 1.0396,-1.7115 0.5717,-0.5174 1.2052,-1.6947 1.4076,-2.6161 0.2023,-0.9214 0.7051,-2.19 1.1174,-2.8191 0.4121,-0.6291 0.8905,-2.3349 1.0629,-3.7907 l 0.3135,-2.6468 -2.4705,-2.506 -2.4705,-2.506 v -2.3553 -2.3554 l 3.5137,-2.7613 c 1.9326,-1.5188 4.039,-2.8839 4.6809,-3.0336 2.264,-0.528 6.3631,-0.2357 9.0986,0.6488 l 2.7676,0.8949 2.2191,2.1348 2.2192,2.1348 0.3386,2.7505 0.3386,2.7505 -1.0866,2.1192 c -0.5977,1.1655 -1.0867,2.4406 -1.0867,2.8334 0,0.943 -4.7864,9.2236 -5.3314,9.2236 -0.2328,0 -0.7115,0.6959 -1.0638,1.5464 -0.6442,1.5553 -5.4422,6.288 -10.906,10.7576 l -2.9428,2.4073 -0.3495,1.4591 c -0.6776,2.8293 0.4512,4.6205 3.7909,6.016 2.6594,1.1111 4.3262,2.6813 5.6938,5.3637 0.6,1.1769 1.5996,2.7802 2.2215,3.563 0.6217,0.7827 1.4934,1.9031 1.9369,2.4899 l 0.8064,1.0668 3.2058,0.7187 3.2057,0.7187 7.6362,-0.1678 7.6363,-0.1679 3.0628,0.6169 c 1.6846,0.3394 3.9054,1.1863 4.9352,1.8822 2.2782,1.5396 7.7405,3.9908 8.8931,3.9908 0.4611,0 1.5375,0.4978 2.392,1.1063 l 1.5537,1.1063 v 2.3155 2.3154 l -1.8523,1.6264 c -2.5068,2.201 -6.3199,3.811 -9.8962,4.1786 l -2.9627,0.3045 -3.2097,-0.9054 -3.2097,-0.9053 -7.7075,-0.4129 -7.7075,-0.413 -1.9676,0.773 -1.9677,0.7729 -0.8649,1.4642 c -0.4757,0.8053 -1.1272,3.1061 -1.4478,5.1128 -0.3206,2.0068 -0.8134,4.0795 -1.0952,4.606 -0.2817,0.5265 -0.5123,2.0489 -0.5123,3.3832 v 2.426 l -1.1295,2.167 -1.1295,2.167 0.2689,1.0281 c 0.4266,1.6317 -0.6142,5.8941 -2.2911,9.3821 -0.8487,1.7653 -2.1745,4.8772 -2.9462,6.9153 -0.7718,2.0381 -1.8686,4.2973 -2.4374,5.0205 -0.5689,0.7231 -1.0343,1.7518 -1.0343,2.286 0,0.5341 -0.3347,1.1637 -0.7438,1.399 -0.7262,0.4176 -3.3111,4.7026 -4.7798,7.9233 -0.8579,1.8814 -4.1107,5.3516 -6.7731,7.2257 -1.0258,0.7221 -2.2896,1.7374 -2.8085,2.2563 l -0.9434,0.9434 -3.6109,-0.055 c -1.986,-0.03 -4.3331,-0.229 -5.2158,-0.442 z m -282.67007,-16.8781 c -0.83833,-0.8888 -1.89797,-2.3382 -2.35465,-3.2208 -2.55516,-4.9381 -3.2293,-6.6512 -3.47372,-8.8268 l -0.27048,-2.4073 -1.25655,-1.6553 -1.25661,-1.6554 v -1.5917 -1.5918 l -1.47112,-1.6831 c -0.80911,-0.9256 -1.95258,-2.2898 -2.54103,-3.0315 -3.299,-4.1579 -5.78135,-5.6422 -9.43583,-5.6422 h -1.28742 l -0.9099,1.7386 c -0.50045,0.9562 -1.15106,2.4006 -1.44576,3.2097 -0.29476,0.8091 -0.74182,1.4712 -0.99341,1.4712 -0.25164,0 -1.23473,1.0822 -2.1847,2.405 l -1.72715,2.405 -1.4395,0.346 c -0.79174,0.1902 -2.68895,1.5153 -4.21597,2.9445 -1.52708,1.4292 -2.97146,2.5988 -3.20972,2.5992 -0.23833,3e-4 -1.15545,0.6253 -2.03812,1.3889 -0.88268,0.7635 -2.51621,1.8558 -3.63009,2.4272 l -2.02523,1.0391 -1.7571,-0.3296 -1.75706,-0.3297 -2.18133,1.137 c -2.41782,1.2602 -2.8972,1.3244 -8.84369,1.1839 l -4.14588,-0.098 v -0.7203 c 0,-2.4204 3.42145,-6.2341 5.59288,-6.2341 0.64291,0 2.15324,-0.8426 3.35635,-1.8724 1.20306,-1.0298 2.44699,-1.8723 2.76432,-1.8723 0.31733,0 1.1562,-0.9176 1.86421,-2.0391 1.31935,-2.0901 6.48727,-7.0551 7.3433,-7.0551 0.2624,0 0.47707,-0.3123 0.47707,-0.6939 0,-0.3816 0.96292,-1.6341 2.13982,-2.7833 1.17689,-1.1492 2.13981,-2.3226 2.13981,-2.6075 0,-0.2849 0.33413,-0.898 0.74257,-1.3626 0.40844,-0.4645 1.38869,-2.0933 2.17833,-3.6195 0.7897,-1.5262 1.77958,-3.0603 2.19968,-3.409 0.42015,-0.3486 0.76391,-0.8924 0.76391,-1.2084 0,-0.6696 2.15051,-3.9725 4.62553,-7.1042 0.95312,-1.2059 1.88956,-2.891 2.08107,-3.7446 0.45279,-2.0185 1.80237,-5.0814 2.68932,-6.1037 0.38511,-0.4439 0.86422,-2.6176 1.06477,-4.8305 l 0.36457,-4.0234 -0.82762,-0.6869 -0.82768,-0.6869 -2.31143,0.7916 c -1.27126,0.4354 -3.63544,1.4113 -5.25367,2.1687 -1.61823,0.7573 -3.38032,1.3793 -3.91575,1.3822 -0.53544,0 -2.0232,0.7274 -3.30612,1.6101 -1.28293,0.8827 -2.89105,1.6072 -3.5736,1.6101 -0.68255,0 -2.52872,0.6047 -4.10261,1.3374 l -2.86163,1.3321 h -2.27125 -2.27125 l -0.93986,-1.0385 -0.93986,-1.0385 0.3795,-2.8399 0.37949,-2.8399 1.68109,-2.3647 c 0.92462,-1.3006 2.70403,-3.4385 3.95433,-4.7509 1.25024,-1.3124 2.80722,-3.2574 3.45991,-4.3222 0.6527,-1.0648 1.73347,-2.3727 2.40173,-2.9064 0.66827,-0.5337 2.11558,-2.3271 3.21625,-3.9854 1.10072,-1.6583 3.26808,-4.2157 4.81635,-5.6832 1.54826,-1.4675 2.93491,-3.0443 3.08149,-3.504 l 0.26646,-0.8357 1.70586,-0.1198 c 2.94914,-0.2069 4.08057,1.9862 2.32084,4.4986 -0.67789,0.9678 -1.12972,2.3664 -1.30181,4.0297 -0.0219,0.2113 -1.27902,1.6556 -2.79374,3.2097 -1.51467,1.554 -3.22235,3.8742 -3.79485,5.1559 l -1.04086,2.3303 0.45139,0.4501 c 0.7292,0.7271 4.52239,0.926 6.12468,0.3212 0.81303,-0.3069 1.58304,-0.9589 1.71121,-1.449 l 0.23303,-0.8911 4.10224,-1.9472 c 2.25621,-1.0709 4.27352,-1.9505 4.48301,-1.9547 1.44801,-0.029 7.0677,-6.8511 7.0677,-8.5804 0,-0.3876 0.54164,-1.2814 1.20365,-1.9863 l 1.20364,-1.2815 0.0166,-3.486 0.0166,-3.4859 1.32085,-0.7314 c 2.61341,-1.4468 5.31054,-0.7102 7.46677,2.0393 0.63451,0.8092 1.49729,1.4712 1.91728,1.4712 h 0.76359 v 0.9918 c 0,0.5454 0.60065,1.6398 1.33476,2.432 l 1.33477,1.4402 2.00869,-0.3729 c 1.10479,-0.2051 2.54927,-0.7247 3.20999,-1.1546 l 1.20129,-0.7817 1.85977,0.3489 1.85982,0.3489 1.48599,-0.7177 c 1.72924,-0.8351 3.54589,-0.6559 4.45493,0.4394 0.35163,0.4237 1.06461,0.7703 1.58448,0.7703 0.51981,0 1.47963,0.4329 2.13297,0.9619 l 1.18781,0.9618 -0.56967,3.659 -0.56962,3.6591 -1.18712,1.2636 c -0.65291,0.695 -1.54933,1.2636 -1.99206,1.2636 -0.44273,0 -1.54425,0.2261 -2.44778,0.5024 -0.90359,0.2763 -3.89677,0.8982 -6.65156,1.3819 -2.7548,0.4838 -5.71191,1.3073 -6.57142,1.83 -2.15041,1.3077 -5.2709,5.0578 -5.2709,6.3343 0,0.5784 -0.14273,1.7653 -0.31712,2.6374 l -0.31717,1.5858 -1.55517,0.9186 -1.55521,0.9187 v 1.7592 1.7592 l -0.98683,0.893 c -0.97565,0.883 -1.52462,2.355 -2.82092,7.5646 -0.36607,1.4711 -1.49321,3.9304 -2.5047,5.4651 l -1.83917,2.7903 -0.26374,2.3395 -0.26368,2.3396 1.46941,1.1558 c 0.80821,0.6357 1.72207,1.1558 2.0308,1.1558 0.94841,0 5.37922,2.2412 6.60335,3.34 0.63638,0.5713 2.77106,1.6245 4.7437,2.3405 4.52576,1.6428 5.58454,2.6305 12.0677,11.2582 l 5.29165,7.042 0.0978,3.1221 c 0.0538,1.7172 0.0561,4.1052 0.005,5.3067 l -0.0926,2.1845 -2.00608,2.1396 c -1.10334,1.1768 -2.96899,2.6491 -4.14589,3.2718 l -2.13981,1.1322 -4.1598,0.1718 -4.15985,0.1717 -1.52424,-1.6159 z m -112.92226,-12.9288 c -3.01072,-2.1364 -3.75034,-2.9599 -3.75034,-4.1757 v -1.1465 l 3.15029,-2.1141 3.15023,-2.1141 3.40294,-4.3894 c 4.14771,-5.3501 5.53469,-7.5463 6.04182,-9.5669 0.2135,-0.8506 0.56122,-1.6694 0.77274,-1.8194 1.2419,-0.8811 2.66188,-3.8564 2.98964,-6.2642 0.20821,-1.5299 0.71877,-3.0639 1.13453,-3.409 0.41577,-0.345 0.75595,-1.0816 0.75595,-1.6369 0,-0.5553 0.48145,-1.4219 1.0699,-1.9258 l 1.06991,-0.9161 v -5.379 -5.3791 l 0.93617,-1.3227 0.93617,-1.3227 0.36746,-5.617 c 0.2021,-3.0894 0.38254,-5.8577 0.40094,-6.152 0.0182,-0.2942 -0.15824,-1.9063 -0.39255,-3.5824 l -0.42598,-3.0475 -1.04482,-1.2321 c -0.5747,-0.6777 -1.2856,-1.4072 -1.57982,-1.6212 -1.25259,-0.9108 -3.79523,0.8784 -5.11416,3.5987 -1.29918,2.6796 -7.48335,11.3828 -10.05739,14.1541 -0.69458,0.7478 -1.93482,2.804 -2.75613,4.5693 -0.82137,1.7654 -1.96649,3.8116 -2.54472,4.5471 -0.57829,0.7356 -1.57079,2.4809 -2.20556,3.8784 -0.63483,1.3976 -1.3889,2.5411 -1.6758,2.5411 -0.28684,0 -0.52158,0.4255 -0.52158,0.9457 0,0.5201 -0.60182,1.8314 -1.33738,2.9138 -0.73556,1.0825 -1.33738,2.0823 -1.33738,2.2218 0,0.1396 -1.18102,2.2987 -2.62449,4.7981 -1.44343,2.4994 -2.76922,5.0006 -2.94618,5.5581 -0.17696,0.5575 -1.14167,1.8084 -2.1438,2.7797 l -1.82206,1.766 -3.69249,0.046 -3.69249,0.046 -1.70336,-0.7055 -1.70336,-0.7056 v -1.5212 c 0,-0.8367 0.34348,-2.5528 0.76329,-3.8135 0.41981,-1.2608 0.92782,-3.4305 1.12891,-4.8217 l 0.36561,-2.5294 3.10069,-2.8455 c 3.53023,-3.2396 6.0732,-7.1961 6.56225,-10.2097 0.18391,-1.1333 0.66753,-2.3359 1.0747,-2.6724 0.88339,-0.7299 3.05315,-4.4529 3.05315,-5.2387 0,-0.3046 0.48146,-1.1658 1.06991,-1.9139 0.58844,-0.7481 1.0699,-1.7335 1.0699,-2.1898 0,-0.4562 0.45129,-1.3265 1.00293,-1.9339 0.55159,-0.6074 1.40939,-2.3559 1.90626,-3.8856 0.49686,-1.5297 1.85099,-3.9715 3.00922,-5.4261 1.15828,-1.4547 2.10589,-2.874 2.10589,-3.1541 0,-0.2801 0.48146,-0.9449 1.06991,-1.4774 l 1.06991,-0.9683 v -1.8254 -1.8253 l 1.79776,-1.7027 c 0.98881,-0.9365 1.97361,-2.2622 2.18855,-2.9462 0.21489,-0.6839 1.21135,-2.9039 2.21433,-4.9334 1.00304,-2.0295 1.82366,-3.908 1.82366,-4.1743 0,-0.2664 0.375,-0.7955 0.83335,-1.1759 0.45835,-0.3804 1.18476,-1.433 1.61433,-2.3391 1.08959,-2.2983 2.51187,-4.6859 3.30307,-5.5449 0.36778,-0.3993 0.66869,-1.2239 0.66869,-1.8325 0,-0.6085 0.39282,-1.3937 0.87294,-1.7447 0.48007,-0.3511 1.31877,-1.8129 1.86367,-3.2485 l 0.99079,-2.6101 -1.42881,-1.4914 c -1.7547,-1.8315 -2.47849,-1.8509 -5.81885,-0.1562 -1.44742,0.7343 -3.03875,1.3361 -3.53631,1.3373 -0.49751,0.001 -1.06568,0.2629 -1.26254,0.5815 -0.48071,0.7778 -4.87011,2.6305 -6.2321,2.6305 -0.59878,0 -1.91118,0.7222 -2.91652,1.6049 l -1.82783,1.6048 -1.4525,0.01 c -1.50333,0.01 -5.16744,1.1213 -5.81131,1.7652 -0.20164,0.2016 -1.02117,0.3666 -1.82117,0.3666 -0.8,0 -2.14407,0.3596 -2.98682,0.7991 l -1.53228,0.7991 h -3.53738 -3.53737 l -2.01945,-1.6048 c -1.11071,-0.8827 -2.22709,-1.6049 -2.48085,-1.6049 -0.25377,0 -0.4614,-1.2805 -0.4614,-2.8456 v -2.8456 l 2.11954,-2.9051 c 2.57884,-3.5347 4.5681,-5.5407 6.39791,-6.4517 0.75855,-0.3776 2.97337,-1.8405 4.92182,-3.2509 1.94845,-1.4103 3.80214,-2.5642 4.11931,-2.5642 0.31717,0 0.76918,-0.3142 1.00447,-0.6982 1.41677,-2.3123 7.16201,-5.0908 10.6751,-5.1627 1.58004,-0.032 5.35601,-2.1132 7.13526,-3.9321 l 1.46856,-1.5012 4.7507,-1.666 c 2.61288,-0.9162 6.07472,-1.8513 7.69296,-2.0779 5.75149,-0.8054 8.05581,-1.3905 8.9702,-2.2778 2.72382,-2.6429 8.53171,-5.1522 11.92492,-5.1522 0.57727,0 2.07011,-0.4592 3.31735,-1.0205 2.33604,-1.0513 3.28317,-1.3092 8.57113,-2.3341 l 3.09364,-0.5996 3.05833,0.9632 c 1.68205,0.5297 3.69722,1.2991 4.4782,1.7096 1.76347,0.9271 3.64185,0.9663 3.72381,0.078 0.0337,-0.3678 0.11769,-0.9094 0.186,-1.2036 0.0684,-0.2943 0.16097,-1.3944 0.2058,-2.4448 l 0.0815,-1.9098 1.83618,-2.1451 1.83617,-2.1452 1.10607,-4.4441 c 0.60835,-2.4442 1.10607,-4.8354 1.10607,-5.3138 0,-0.4784 0.84255,-2.121 1.87234,-3.6501 l 1.87234,-2.7803 v -1.5538 c 0,-0.8546 0.44272,-2.1279 0.98383,-2.8296 0.5411,-0.7017 1.24612,-2.2387 1.56666,-3.4156 0.85577,-3.1421 1.9444,-5.9246 2.65102,-6.776 0.34162,-0.4117 0.90145,-1.4627 1.24409,-2.3357 l 0.62295,-1.5874 -0.0375,-5.038 -0.0374,-5.0381 1.58512,-2.1554 c 0.87186,-1.1856 1.58517,-2.5814 1.58517,-3.1019 0,-1.0082 0.72968,-2.849 3.39396,-8.5622 l 1.6636,-3.5673 1.48685,-0.8783 1.48679,-0.8783 2.13056,1.1974 c 1.17176,0.6586 2.27671,1.658 2.45538,2.221 0.17868,0.5629 1.08403,1.3586 2.01191,1.7682 0.92788,0.4096 2.13318,1.0943 2.67851,1.5217 l 0.99149,0.777 0.79258,4.4477 0.79259,4.4476 -0.33429,4.2519 -0.33429,4.2518 -1.71726,2.8821 c -0.94451,1.5851 -1.99152,3.3657 -2.32673,3.9568 -0.33525,0.591 -1.47871,1.9648 -2.54102,3.0527 -1.06237,1.088 -1.93156,2.3534 -1.93156,2.812 0,1.104 -2.38365,5.6008 -4.21281,7.9477 -0.80259,1.0298 -2.02592,2.8353 -2.71848,4.0122 -0.69255,1.1769 -2.02693,2.9823 -2.96535,4.0121 -2.02672,2.2241 -4.01215,5.4412 -4.01215,6.5012 0,0.4168 -0.59027,1.4716 -1.31176,2.3441 -0.72149,0.8725 -3.27359,3.9936 -5.67136,6.9358 l -4.35961,5.3496 -2.2192,1.0079 c -2.81182,1.2771 -3.12257,1.7923 -2.18015,3.6147 1.33086,2.5736 0.65286,5.3607 -1.8566,7.6317 -0.61857,0.5598 -1.12469,1.3819 -1.12469,1.8268 0,1.6132 -7.60586,7.5845 -9.66073,7.5845 -0.33504,0 -1.36771,0.3387 -2.29489,0.7527 -0.92713,0.414 -3.09471,0.8806 -4.81688,1.037 l -3.13119,0.2842 -0.88096,0.7821 c -0.48451,0.4302 -1.83506,1.1764 -3.0012,1.6582 -1.16615,0.4819 -2.55034,1.2653 -3.07598,1.7411 l -0.95575,0.8649 -0.005,3.7955 -0.005,3.7955 -0.72855,1.3962 -0.72861,1.3963 0.52126,0.9314 0.52126,0.9314 -0.95832,2.2195 c -0.52703,1.2207 -1.35605,2.7009 -1.84227,3.2893 -0.97319,1.1779 -3.19763,5.4027 -3.19763,6.0733 0,0.2328 1.6851,2.194 3.74467,4.3583 l 3.74468,3.935 v 1.3244 c 0,0.7283 0.62846,2.6528 1.39665,4.2765 l 1.39661,2.9523 0.23372,6.996 c 0.2755,8.2476 0.28245,7.3358 -0.0843,10.9995 -0.1615,1.6135 -0.76931,3.9163 -1.3507,5.1173 -0.58139,1.2009 -1.05707,2.7506 -1.05707,3.4437 0,0.693 -0.35986,1.6577 -0.7997,2.1437 -0.43984,0.486 -0.94387,2.0697 -1.12014,3.5193 -0.29588,2.4335 -2.00827,7.8815 -3.68695,11.7299 -1.37959,3.1628 -1.81874,4.3197 -2.68242,7.066 -0.48194,1.5325 -1.43795,3.6141 -2.12446,4.6257 -0.68651,1.0116 -1.4164,2.3693 -1.62203,3.0172 -0.20564,0.6478 -0.83153,1.6355 -1.39094,2.1949 -0.5594,0.5594 -1.0171,1.4283 -1.0171,1.9308 0,0.5024 -0.88209,1.8169 -1.96018,2.921 -1.07809,1.104 -1.99468,2.4382 -2.03683,2.9648 -0.0784,0.9778 -6.10195,7.6443 -6.90722,7.6443 -0.24426,0 -1.65348,0.9629 -3.13161,2.1398 l -2.6875,2.1398 -2.73859,-0.046 -2.73864,-0.046 -1.86667,-1.3246 z m -86.18994,0.1691 c -2.10548,-0.9443 -5.13302,-4.2145 -7.70006,-8.3172 -0.29422,-0.4703 -0.95623,-1.4319 -1.47112,-2.137 -0.51489,-0.705 -0.93617,-1.7531 -0.93617,-2.329 0,-0.5759 -0.46925,-1.6437 -1.04277,-2.3728 -0.57353,-0.7291 -1.20728,-2.4522 -1.40833,-3.8291 -0.20105,-1.3768 -1.05581,-3.7542 -1.89947,-5.2829 -0.84366,-1.5288 -1.53392,-3.1367 -1.53392,-3.5731 0,-0.4365 -0.92036,-2.1948 -2.04525,-3.9074 l -2.04526,-3.1138 -0.94057,-4.0655 c -0.51733,-2.2361 -1.40084,-4.7637 -1.96337,-5.617 -0.56254,-0.8533 -1.02439,-1.9359 -1.02632,-2.4058 -0.002,-0.4699 -0.48499,-1.4095 -1.07344,-2.0879 l -1.0699,-1.2337 v -2.5613 c 0,-1.4087 -0.21531,-2.6944 -0.47845,-2.857 -0.26314,-0.1627 -0.5966,-1.2 -0.741,-2.3052 -0.14441,-1.1051 -0.4155,-2.7316 -0.60243,-3.6142 -0.18693,-0.8827 -0.4831,-2.3271 -0.65816,-3.2098 -0.17505,-0.8826 -0.50767,-1.8456 -0.73915,-2.1398 -0.3851,-0.4895 -0.97162,-2.5141 -1.80963,-6.2467 l -0.32154,-1.4322 -1.6451,-0.8206 -1.6451,-0.8207 -8.38487,-0.08 c -9.13161,-0.087 -10.56793,-0.3724 -11.27916,-2.243 -0.25929,-0.682 -0.85761,-1.5605 -1.3296,-1.9522 l -0.85816,-0.7122 v -3.9037 -3.9037 l 2.80851,-0.9051 c 1.54467,-0.4979 4.25288,-1.813 6.01822,-2.9225 1.76535,-1.1094 3.8152,-2.1562 4.55522,-2.3262 0.74003,-0.1699 2.12797,-1.1162 3.08431,-2.1029 l 1.73881,-1.794 0.44213,-4.7915 c 0.24318,-2.6354 0.68824,-5.2681 0.98902,-5.8505 0.30079,-0.5824 0.70703,-2.9847 0.90276,-5.3385 0.19573,-2.3538 0.79336,-5.6036 1.32808,-7.2219 l 0.9722,-2.9422 1.15085,-0.1708 1.15085,-0.1708 1.71599,1.2218 c 0.94379,0.6721 2.38153,1.9526 3.19496,2.8456 l 1.47898,1.6237 0.0237,1.6049 c 0.0131,0.8827 0.37064,2.5678 0.79463,3.7447 0.424,1.1769 0.78147,2.8234 0.79438,3.6589 l 0.0235,1.5191 1.20364,1.0041 c 0.66201,0.5523 1.6851,1.0015 2.27355,0.9983 2.04345,-0.011 5.92476,-1.3025 7.39331,-2.4599 0.81226,-0.6402 2.71447,-1.4294 4.22713,-1.7538 l 2.7503,-0.5899 2.84464,1.3918 2.84466,1.3918 0.30265,1.4319 c 0.16646,0.7876 0.77626,2.9967 1.35511,4.9092 0.57884,1.9124 1.08375,4.3829 1.12202,5.49 l 0.0696,2.0128 -1.20129,1.2787 -1.20128,1.2787 -1.96163,0.2693 c -3.67194,0.5042 -4.63525,0.7737 -7.31116,2.0456 -4.34238,2.0639 -6.46298,3.5589 -7.13248,5.0283 l -0.62927,1.3811 0.53741,1.0042 c 0.29558,0.5522 0.53742,2.1262 0.53742,3.4977 v 2.4937 l 0.98854,1.4199 c 0.54369,0.781 1.127,1.9014 1.29622,2.4899 0.16923,0.5884 0.94542,2.755 1.72487,4.8146 0.77946,2.0595 1.61071,4.5872 1.84722,5.617 1.05426,4.5901 2.89843,10.5214 3.57154,11.4868 0.40465,0.5803 0.73572,1.6943 0.73572,2.4755 0,0.7812 0.37146,1.7286 0.82545,2.1054 0.83841,0.6958 3.45418,5.9799 3.45418,6.9777 0,1.0744 1.63507,3.6808 2.64973,4.2238 l 1.03381,0.5533 1.40571,-0.6405 1.40571,-0.6405 1.5671,-3.3518 c 0.86191,-1.8435 1.5671,-3.8248 1.5671,-4.4029 0,-0.5781 0.73977,-1.7908 1.64393,-2.695 l 1.64392,-1.6439 0.95906,0.5133 0.95907,0.5132 0.28554,2.5334 c 0.15705,1.3933 0.0438,3.1474 -0.25175,3.898 -0.65934,1.6746 -1.49157,8.7356 -1.83172,15.5409 l -0.25402,5.0821 1.31152,2.5786 1.31152,2.5787 -1.03522,2.9454 c -1.80361,5.1316 -5.82339,10.5345 -9.12865,12.2696 -1.68856,0.8864 -2.33982,0.8936 -4.22922,0.046 z m -274.60362,-0.6635 c -1.03176,-1.0317 -1.03185,-1.045 -0.0178,-2.5925 l 0.82281,-1.2558 1.57021,-0.3141 1.57022,-0.314 0.33492,-1.3344 c 0.18421,-0.734 0.77016,-1.4726 1.30211,-1.6415 0.53195,-0.1688 1.89221,-1.2778 3.0228,-2.4645 1.13059,-1.1866 3.01853,-2.8408 4.19543,-3.6759 3.18528,-2.2601 9.5223,-8.4484 10.15024,-9.912 0.30186,-0.7035 1.27101,-2.1653 2.15369,-3.2486 3.12032,-3.8293 6.21739,-7.4662 7.79399,-9.1526 0.87777,-0.9389 1.92967,-2.5036 2.33754,-3.4772 0.40787,-0.9735 1.36444,-2.3537 2.12568,-3.067 l 1.38408,-1.2969 v -1.9744 -1.9744 l 1.06991,-1.3602 c 0.58845,-0.7481 1.06991,-1.7458 1.06991,-2.2172 0,-0.4713 0.48146,-1.2692 1.06991,-1.7731 0.58844,-0.5038 1.0699,-1.2881 1.0699,-1.7429 0,-0.4547 0.56362,-1.6651 1.25249,-2.6896 0.68887,-1.0245 1.69044,-3.0218 2.22571,-4.4384 l 0.97322,-2.5757 -0.48711,-1.9641 -0.48711,-1.9641 -2.13981,-0.3483 -2.13982,-0.3482 -2.13981,0.8251 c -1.1769,0.4538 -2.54149,1.1684 -3.03242,1.588 -0.49093,0.4196 -2.68036,1.2209 -4.86539,1.7807 -3.91808,1.0037 -8.95323,3.3872 -8.95323,4.2382 0,0.2403 -0.76093,0.7022 -1.69097,1.0264 -0.93005,0.3242 -2.47872,1.1903 -3.44151,1.9247 -0.96279,0.7343 -1.89852,1.3352 -2.07939,1.3352 -0.18088,0 -1.64599,0.8425 -3.2558,1.8723 -1.60981,1.0298 -3.26915,1.8723 -3.68741,1.8723 -0.41826,0 -0.92159,0.2607 -1.11852,0.5794 -0.64591,1.0451 -5.80849,4.0202 -8.15091,4.6972 -1.26162,0.3647 -3.42818,1.3606 -4.81458,2.2131 -6.53924,4.0211 -8.84377,4.4613 -13.67594,2.6121 l -2.95864,-1.1322 -2.17102,-2.5747 -2.17102,-2.5747 v -1.8569 c 0,-1.85 1.55607,-5.7282 3.41337,-8.507 1.35526,-2.0277 4.12392,-3.6204 6.29364,-3.6204 1.00315,0 2.40646,-0.4213 3.11846,-0.9362 0.71201,-0.5148 3.02664,-1.899 5.14361,-3.0759 2.11698,-1.1769 5.34672,-3.1629 7.17721,-4.4134 l 3.32816,-2.2736 h 1.82817 1.82816 l 0.29198,-0.7608 c 0.16058,-0.4185 1.17612,-1.1216 2.25676,-1.5624 1.08063,-0.4409 2.79393,-1.4225 3.80732,-2.1814 1.01339,-0.7589 2.26875,-1.3798 2.78968,-1.3798 1.16537,0 1.8967,-1.3124 2.92782,-5.2539 l 0.79474,-3.0379 0.18986,-19.2583 0.18986,-19.2584 0.59955,-1.5545 0.59955,-1.5546 -1.13727,-4.0624 c -0.6255,-2.2344 -1.47636,-4.7015 -1.89081,-5.4824 -0.41445,-0.781 -0.75355,-1.8453 -0.75355,-2.3652 0,-0.5199 -0.3984,-1.3855 -0.88534,-1.9235 l -0.88534,-0.9783 0.88534,-0.9783 c 0.48694,-0.5381 0.88534,-1.5805 0.88534,-2.3166 v -1.3383 l 2.36101,-1.6956 2.36101,-1.6955 4.19217,0.013 c 2.30569,0.01 5.27545,0.261 6.59946,0.5639 l 2.40729,0.5509 2.04315,1.9771 c 1.12372,1.0874 2.68846,3.1251 3.47719,4.5283 l 1.43406,2.5513 0.77798,-0.1466 c 0.42789,-0.081 1.19112,-1.3013 1.69606,-2.7127 1.20616,-3.3713 1.47544,-3.6635 7.4226,-8.0542 2.79513,-2.0636 6.01302,-4.5363 7.15086,-5.495 1.13785,-0.9586 2.81189,-1.9062 3.7201,-2.1056 0.90821,-0.1995 2.44472,-1.1797 3.41447,-2.1783 l 1.76317,-1.8156 v -2.4241 c 0,-1.3333 0.38058,-3.1601 0.84574,-4.0596 l 0.84574,-1.6355 -0.10128,-4.8911 c -0.17646,-8.5219 -0.23966,-9.2577 -0.86103,-10.0248 -0.33451,-0.413 -0.77792,-1.7797 -0.98535,-3.0373 -0.34326,-2.0809 -2.54056,-6.9594 -3.42765,-7.6102 -0.20053,-0.1471 -1.28584,-1.4081 -2.4118,-2.8022 l -2.0472,-2.5347 0.27003,-1.7449 c 0.67413,-4.3561 2.88613,-8.34 5.6385,-10.1553 l 1.43187,-0.9443 h 2.96278 2.96278 l 2.79795,0.9854 2.79795,0.9853 3.0335,2.7593 c 1.66842,1.5177 3.19947,2.7594 3.40232,2.7594 0.37496,0 0.88649,1.2436 2.09042,5.082 0.36913,1.1769 0.9806,2.862 1.35882,3.7447 1.31966,3.0798 1.96406,7.0002 2.19826,13.3738 0.23395,6.3668 1.02867,11.7469 1.9066,12.9074 0.4641,0.6134 3.18694,1.0443 10.86546,1.7193 l 4.27962,0.3762 1.7922,0.9655 c 1.86488,1.0047 6.33639,5.3636 8.62717,8.4099 0.72884,0.9692 1.87118,3.1025 2.53855,4.7406 l 1.2134,2.9784 -0.0164,4.8145 -0.0164,4.8146 -1.71977,3.3002 c -0.94586,1.815 -2.8674,4.5834 -4.27006,6.1519 -1.40267,1.5685 -4.01005,4.7175 -5.79417,6.9977 -1.78413,2.2803 -3.44654,4.1459 -3.69425,4.1459 -0.24771,0 -1.19383,0.7824 -2.10249,1.7386 -3.14016,3.3046 -4.58343,4.6797 -4.91229,4.6803 -0.18157,3e-4 -0.94466,0.9292 -1.69576,2.0642 -0.75109,1.135 -2.72552,3.3617 -4.38762,4.9483 -3.23639,3.0894 -6.69283,7.8226 -6.69283,9.1651 v 0.82 l 1.7386,0.2594 c 0.95623,0.1427 2.29591,0.05 2.97707,-0.2067 0.68116,-0.2564 3.05514,-0.4662 5.27551,-0.4662 h 4.03704 l 4.99898,-1.8723 4.99898,-1.8723 h 2.02944 c 1.11619,0 2.71896,0.3629 3.56171,0.8024 l 1.53227,0.7991 h 4.19273 4.19272 l 1.76435,1.7755 c 0.9704,0.9765 2.60691,2.0994 3.63669,2.4954 1.02979,0.3959 2.29361,1.0787 2.80851,1.5171 l 0.93617,0.7973 v 3.3274 c 0,4.6612 -0.4615,6.4791 -2.08631,8.2185 l -1.40998,1.5093 -17.10897,0.2815 -17.10896,0.2814 -3.4772,0.8219 c -10.28453,2.4309 -13.33514,3.0477 -15.07294,3.0477 -2.14548,0 -5.38692,1.21 -7.32452,2.7341 -0.70663,0.5558 -1.69513,1.0106 -2.19667,1.0106 -0.50155,0 -1.1954,0.5416 -1.5419,1.2036 -0.3465,0.662 -1.34006,2.1666 -2.20791,3.3435 -0.86785,1.1769 -1.58591,2.5707 -1.59568,3.0973 -0.01,0.5266 -0.49923,1.9012 -1.08768,3.0547 -0.58845,1.1534 -1.06991,2.7282 -1.06991,3.4995 v 1.4025 l -1.87233,2.2849 -1.87234,2.2849 v 1.4406 c 0,1.685 -2.0051,5.653 -3.97216,7.8607 -0.75756,0.8502 -1.37738,1.6755 -1.37738,1.834 0,0.1586 -1.35088,1.8807 -3.00196,3.8269 -1.65108,1.9463 -3.32228,4.3053 -3.71377,5.2423 -0.39149,0.937 -1.08043,2.0095 -1.53098,2.3835 -0.45055,0.3739 -0.97461,1.5584 -1.16458,2.6321 l -0.3454,1.9524 -1.48208,1.6048 c -0.81514,0.8827 -1.64523,2.1465 -1.84462,2.8085 -0.1994,0.662 -0.5665,1.2037 -0.81578,1.2037 -0.24927,0 -1.73761,1.3058 -3.30741,2.9019 -2.58753,2.6308 -12.72398,9.937 -13.7864,9.937 -0.24104,0 -0.72073,0.3403 -1.06595,0.7563 -0.34523,0.416 -1.7589,1.2879 -3.14149,1.9377 -1.38259,0.6497 -3.18665,1.7473 -4.00903,2.4391 -0.82237,0.6918 -2.50747,1.5346 -3.74467,1.873 -1.23719,0.3383 -3.60715,1.3077 -5.26657,2.154 -3.53344,1.8023 -3.3577,1.7746 -4.43401,0.6983 z m 49.32807,-93.4679 c 0.37704,-0.2954 2.27707,-1.3379 4.22229,-2.3166 l 3.53676,-1.7794 1.25851,-3.0894 c 0.69218,-1.6992 1.25963,-3.9922 1.26099,-5.0955 l 0.002,-2.0061 h 0.76393 0.76394 l 0.37198,-3.076 c 0.20459,-1.6917 0.555,-3.3167 0.77868,-3.6109 0.22368,-0.2942 0.71593,-2.291 1.09386,-4.4374 0.37795,-2.1463 0.88742,-4.0262 1.13216,-4.1775 0.24474,-0.1512 0.44498,-2.9918 0.44498,-6.3124 v -6.0375 l -1.05086,-0.951 -1.05086,-0.9511 -3.09503,0.3381 c -1.70226,0.186 -4.27338,0.4832 -5.7136,0.6607 l -2.61857,0.3226 -2.1008,-0.6934 c -1.15544,-0.3813 -2.57377,-1.2946 -3.15184,-2.0295 -0.57808,-0.7349 -1.50276,-1.6526 -2.05484,-2.0393 l -1.00378,-0.703 0.0873,23.1345 0.0873,23.1345 0.78712,1.1873 c 1.12696,1.6998 3.45394,1.9341 5.24793,0.5283 z m 38.09861,-35.3212 c 0,-0.3882 0.59157,-1.2203 1.3146,-1.849 0.72303,-0.6286 1.8112,-2.1164 2.41816,-3.3061 0.60696,-1.1898 1.33617,-2.1632 1.62046,-2.1632 0.2843,0 0.87639,-0.7824 1.31576,-1.7386 0.43937,-0.9562 1.00701,-2.0997 1.26142,-2.541 0.25441,-0.4414 0.72221,-1.3112 1.03956,-1.933 l 0.57699,-1.1306 -0.29043,-2.1654 -0.29044,-2.1653 -1.67846,-0.3149 c -2.48431,-0.4661 -6.1243,0.7378 -8.04834,2.6618 l -0.84414,0.8442 0.007,7.0499 c 0.004,3.8774 0.15247,7.5915 0.32988,8.2535 0.34744,1.2965 1.26768,1.6578 1.26768,0.4977 z m 108.0606,126.6062 c -0.44134,-0.1454 -1.34131,-0.5267 -1.99994,-0.8473 l -1.19751,-0.583 -1.89279,-3.6575 c -1.04104,-2.0117 -1.7383,-3.6576 -1.54947,-3.6576 0.18882,0 -5.4e-4,-0.5416 -0.42108,-1.2036 -0.42041,-0.662 -1.07287,-2.6481 -1.44992,-4.4134 -0.37704,-1.7654 -0.88613,-3.725 -1.13131,-4.3548 -0.24517,-0.6298 -0.61414,-2.9167 -0.81994,-5.082 -0.20579,-2.1654 -0.63383,-4.2624 -0.9512,-4.6601 l -0.57703,-0.723 -0.1291,-24.6507 c -0.071,-13.5578 0.0451,-24.9619 0.25802,-25.3423 0.21291,-0.3805 0.16481,-2.7149 -0.1069,-5.1876 l -0.49401,-4.4958 1.10585,-2.3384 c 0.60822,-1.2861 1.22849,-3.4217 1.37837,-4.7457 0.51729,-4.5696 1.53401,-9.3664 2.29943,-10.8485 0.42232,-0.8178 0.63372,-1.7039 0.46979,-1.9691 -0.16393,-0.2653 -0.0318,-0.6469 0.29365,-0.848 l 0.59173,-0.3657 -0.33197,-1.7696 -0.33197,-1.7696 1.57116,-3.6524 c 2.05411,-4.7751 3.18156,-10.1212 3.25225,-15.4214 0.0953,-7.1483 1.53375,-12.6141 4.46952,-16.9838 l 1.70652,-2.54 1.60486,-0.099 c 0.88267,-0.055 2.15051,-0.069 2.81743,-0.033 2.3416,0.1279 5.99844,3.9903 6.00577,6.3434 0.002,0.6223 0.50694,1.7715 1.12221,2.5537 l 1.11869,1.4222 -0.25499,2.7958 c -0.14024,1.5377 -0.41819,3.5181 -0.61766,4.4007 -0.19948,0.8827 -0.58375,3.8351 -0.85394,6.5609 -0.27019,2.7258 -0.86702,5.6826 -1.32628,6.5708 -0.92486,1.7885 -1.87472,7.0829 -2.15488,12.0111 -0.2744,4.827 -1.01548,10.0696 -1.54329,10.9177 -0.25793,0.4145 -0.81776,2.22 -1.24409,4.0122 l -0.77513,3.2586 0.097,6.6869 0.097,6.6869 -0.66,2.4073 c -0.68158,2.486 -1.38191,12.76 -1.86733,27.3939 l -0.27874,8.4031 0.83331,1.6115 c 1.59255,3.0796 4.59921,3.4238 5.7715,0.6605 0.33244,-0.7836 1.01031,-1.9062 1.50636,-2.4946 0.49606,-0.5884 1.20196,-2.0328 1.56866,-3.2097 1.14958,-3.6895 3.62609,-5.6199 4.71451,-3.675 l 0.48805,0.8721 -0.94661,4.2465 c -0.52064,2.3356 -1.27945,4.6514 -1.68625,5.1461 -1.16681,1.4192 -2.5697,4.8243 -2.5697,6.2373 0,0.7091 -0.84585,3.3874 -1.87967,5.9518 -1.03383,2.5644 -2.02961,5.6472 -2.21285,6.8506 -0.18324,1.2035 -0.50368,2.4289 -0.71208,2.7231 -0.2084,0.2942 -0.6936,1.7386 -1.07822,3.2097 -0.38462,1.4712 -0.99075,3.0359 -1.34696,3.4772 -0.35622,0.4414 -0.79366,1.5779 -0.9721,2.5256 -0.17845,0.9477 -0.9367,2.693 -1.685,3.8784 l -1.36056,2.1553 -1.46441,-0.042 c -0.80543,-0.023 -1.82551,-0.1612 -2.26684,-0.3066 z m 451.57833,-3.1256 c -1.57555,-0.731 -3.86247,-1.5918 -5.08206,-1.9127 -1.21958,-0.321 -3.01355,-1.0456 -3.98663,-1.6104 -0.97303,-0.5647 -2.06246,-1.0268 -2.42088,-1.0268 -1.26308,0 -6.59175,-2.967 -9.04922,-5.0386 -1.36777,-1.153 -2.76913,-2.7779 -3.11418,-3.6109 -0.34504,-0.8331 -0.84276,-1.5146 -1.10607,-1.5146 -0.2633,0 -0.88946,-0.9027 -1.39152,-2.0061 -0.50205,-1.1033 -1.60914,-2.9182 -2.46025,-4.0331 -0.85106,-1.1149 -1.77353,-3.0408 -2.04999,-4.2797 -0.27641,-1.2389 -1.21162,-3.6752 -2.07824,-5.4139 -0.86658,-1.7388 -1.5756,-3.4669 -1.5756,-3.8402 0,-0.3734 -0.31707,-0.9969 -0.70454,-1.3857 -0.69084,-0.6932 -3.04094,-5.4333 -4.92553,-9.9349 -0.52356,-1.2504 -1.15603,-2.2735 -1.40559,-2.2735 -0.2495,0 -0.45369,-0.3644 -0.45369,-0.8097 0,-0.4453 -0.23319,-1.2277 -0.51821,-1.7386 -1.11388,-1.9968 -3.76142,-8.8479 -3.76142,-9.7336 0,-0.5146 -0.60733,-1.5911 -1.34963,-2.392 -1.34231,-1.4484 -3.9999,-7.2686 -3.9999,-8.7598 0,-0.4297 -0.51832,-1.2307 -1.15176,-1.7801 -2.05427,-1.7817 -3.14558,-1.2244 -4.69903,2.3996 -0.60696,1.4161 -1.10361,2.9254 -1.10361,3.354 0,0.4287 -0.48146,1.7232 -1.06991,2.8766 -0.58844,1.1535 -1.0699,2.5558 -1.0699,3.1163 0,0.5605 -0.48146,1.6311 -1.06991,2.3792 -0.58845,0.7481 -1.06991,1.7263 -1.06991,2.1738 0,0.4474 -0.30882,1.1317 -0.68629,1.5205 -1.54938,1.5958 -3.18575,4.333 -3.69663,6.1833 l -0.54357,1.9686 -3.82246,3.8835 c -4.29658,4.3653 -6.33165,6.7407 -8.28396,9.6693 -0.73524,1.1028 -1.78306,2.665 -2.32844,3.4714 -0.54544,0.8064 -1.13196,2.1678 -1.30347,3.0253 l -0.31182,1.5591 -3.61891,3.7953 c -1.99046,2.0875 -3.85557,3.7954 -4.14482,3.7954 -0.2892,0 -1.12244,0.5416 -1.85163,1.2036 -5.06526,4.5985 -10.4179,8.4449 -14.3259,10.2946 -1.60823,0.7612 -3.35351,1.7726 -3.87841,2.2477 -0.5249,0.475 -0.95436,0.6765 -0.95436,0.4477 0,-0.2287 -0.30091,-0.183 -0.66869,0.1016 -0.36778,0.2846 -1.79145,0.821 -3.16377,1.1921 l -2.49507,0.6746 -1.91086,-0.6306 c -1.05091,-0.3469 -2.04962,-0.8553 -2.21925,-1.1298 -0.35435,-0.5733 9.33381,-10.1045 10.28154,-10.115 0.65537,-0.01 3.95865,-3.2314 5.79311,-5.6545 0.58845,-0.7772 2.53178,-3.1345 4.31852,-5.2384 1.78675,-2.1039 3.75864,-4.9361 4.38202,-6.2938 0.62338,-1.3577 1.82451,-3.1631 2.6691,-4.0121 2.94224,-2.9575 7.62121,-8.7381 7.62319,-9.4181 0,-0.3766 0.44182,-1.407 0.97939,-2.2896 0.53758,-0.8827 1.15459,-2.3129 1.37125,-3.1782 0.32488,-1.2979 2.1954,-4.0871 5.08345,-7.5802 1.17144,-1.4169 2.65444,-5.2175 2.99119,-7.6658 0.20061,-1.459 0.68613,-2.9194 1.0789,-3.2453 0.39276,-0.326 0.87427,-1.5405 1.06996,-2.6989 0.19574,-1.1584 0.55945,-2.232 0.80826,-2.3858 0.24886,-0.1538 0.7354,-1.6427 1.08124,-3.3086 0.34585,-1.666 0.93077,-3.331 1.29978,-3.7 0.36901,-0.369 0.83565,-1.9125 1.03696,-3.43 l 0.36596,-2.7591 -0.62108,-0.7483 -0.62103,-0.7484 -1.40993,0.3351 c -0.77546,0.1842 -2.53359,1.1302 -3.90703,2.1022 -1.37338,0.9719 -3.41958,2.0201 -4.5471,2.3294 -1.12747,0.3092 -2.77218,1.0444 -3.65486,1.6338 l -1.60486,1.0715 h -2.25541 c -1.24046,0 -3.04592,-0.3795 -4.01216,-0.8476 l -1.75673,-0.851 -1.40596,-2.225 c -0.77328,-1.2237 -1.84966,-3.0674 -2.392,-4.0972 l -0.98602,-1.8724 -0.11694,-5.082 c -0.0643,-2.7951 0.0732,-6.0844 0.30562,-7.3094 l 0.42261,-2.2274 2.62127,-2.7603 c 1.44176,-1.5181 2.70328,-2.9884 2.80337,-3.2671 0.10015,-0.2788 0.88337,-0.8696 1.74047,-1.3128 l 1.55843,-0.8059 3.43895,0.3523 3.43895,0.3524 6.0546,-1.2543 6.0546,-1.2543 3.68503,-2.0256 c 2.02678,-1.114 4.3137,-2.0321 5.08206,-2.04 l 1.39703,-0.014 2.06166,-1.916 c 1.13388,-1.0538 2.63844,-2.766 3.34345,-3.8049 l 1.28181,-1.8888 v -1.9997 -1.9997 l 0.80243,-0.6659 c 0.44133,-0.3663 0.80243,-1.1275 0.80243,-1.6917 0,-0.5641 0.48145,-1.9694 1.0699,-3.1229 l 1.06991,-2.0972 v -4.4494 -4.4494 l 0.93617,-1.3226 0.93617,-1.3227 0.36355,-3.7447 c 0.19997,-2.0596 0.64376,-5.189 0.98619,-6.9544 l 0.62268,-3.2097 -1.98655,-4.2796 -1.98655,-4.2797 0.0673,-3.4556 0.0674,-3.4556 1.28833,-1.9469 c 0.7086,-1.0707 2.43356,-2.7053 3.83326,-3.6325 l 2.54488,-1.6856 h 1.54244 1.54243 l 3.39299,2.0061 c 1.86613,1.1033 4.08325,2.3836 4.92692,2.8451 l 1.53393,0.839 1.32947,2.6382 c 0.73122,1.451 1.46331,2.7585 1.62684,2.9056 0.16348,0.1471 0.88219,1.8322 1.59705,3.7447 l 1.29978,3.4772 0.007,5.3996 0.008,5.3996 -0.63552,1.2873 c -0.34954,0.708 -0.74856,2.1299 -0.88674,3.1596 -0.2517,1.8758 -1.95504,7.1866 -3.43162,10.6991 -0.43288,1.0298 -0.91178,3.8317 -1.06429,6.2264 l -0.27721,4.3541 1.41142,0.9247 1.41137,0.9248 2.00377,-0.029 c 1.10206,-0.016 3.18067,-0.2937 4.61906,-0.6169 l 2.61528,-0.5877 3.28729,1.0939 c 1.80798,0.6017 4.18183,1.8314 5.27528,2.7327 l 1.98799,1.6386 v 3.9946 3.9945 l -1.14608,2.2465 c -1.5052,2.9505 -4.371,5.9371 -7.68065,8.0047 -2.62619,1.6406 -3.42033,1.8515 -11.5015,3.0542 -2.20668,0.3285 -5.53987,0.9671 -7.40712,1.4193 l -3.39493,0.8221 -2.59719,1.8659 c -1.42849,1.0262 -2.76395,2.3934 -2.96777,3.0381 -0.20376,0.6447 -0.93766,1.9171 -1.63091,2.8275 -0.69319,0.9105 -1.2604,2.0075 -1.2604,2.4379 0,0.8892 1.81408,3.1949 5.41324,6.8803 1.35905,1.3916 3.70616,4.1617 5.2158,6.1559 l 2.74479,3.6258 v 1.1921 c 0,0.6557 0.33745,1.4722 0.74995,1.8145 0.41245,0.3424 0.90969,1.2589 1.1049,2.0367 0.19526,0.7779 1.15694,2.24 2.13714,3.2492 0.98025,1.0091 2.50845,3.3118 3.3961,5.1169 0.88764,1.8052 2.5675,4.245 3.73301,5.4219 2.62325,2.6489 9.6458,8.9429 10.62417,9.522 0.39753,0.2353 0.72278,0.7397 0.72278,1.1208 0,0.3811 0.48146,1.1286 1.06991,1.6612 0.58844,0.5325 1.0699,1.2419 1.0699,1.5763 0,0.7301 3.6219,4.235 6.9544,6.7297 3.227,2.4157 3.29312,2.4733 8.94255,7.7872 2.71173,2.5507 5.48011,4.9228 6.15196,5.2715 3.03634,1.5755 7.37385,4.8356 10.35847,7.7854 1.78883,1.768 3.622,3.2145 4.07372,3.2145 0.45177,0 1.43314,0.4813 2.18095,1.0695 l 1.35953,1.0694 -0.2464,0.9367 -0.24634,0.9366 -3.04715,1.4395 c -1.6759,0.7917 -4.49147,2.3321 -6.25682,3.4233 l -3.20972,1.9838 -3.4772,0.769 c -1.91245,0.4229 -5.1623,0.8672 -7.22187,0.9873 l -3.74467,0.2183 -2.86462,-1.3291 z M 362.5419,404.49215 c -3.656,-1.101 -11.88092,-8.2827 -13.60275,-11.8774 -2.22855,-4.6526 -6.28522,-8.0864 -12.2807,-10.3951 -4.34503,-1.6731 -7.28367,-3.4965 -7.28367,-4.5194 0,-0.3543 -0.78236,-1.0729 -1.73859,-1.5968 -2.29301,-1.2563 -3.66855,-3.2048 -3.96626,-5.6183 l -0.24229,-1.9643 2.30488,-2.4869 2.30488,-2.4869 4.01215,-0.3441 c 2.20669,-0.1892 7.38236,-0.4723 11.5015,-0.6291 l 7.48935,-0.2851 2.07331,1.9124 c 1.14033,1.0518 2.4149,1.9124 2.83239,1.9124 1.91067,0 15.91088,14.4467 16.58952,17.1185 0.18683,0.7356 1.14415,2.3251 2.12738,3.5323 l 1.78769,2.1949 v 1.9345 c 0,1.7662 -1.41764,5.3185 -2.92004,7.317 -0.33177,0.4414 -0.92338,1.7654 -1.31467,2.9423 -0.3913,1.1769 -1.08025,2.5611 -1.531,3.076 l -0.81956,0.9361 -2.72559,-0.055 c -1.49907,-0.03 -3.56815,-0.3083 -4.59793,-0.6184 z m 601.28768,-47.2053 c -0.73556,-0.4205 -1.74021,-0.7731 -2.23252,-0.7835 -0.49232,-0.01 -1.61032,-0.6208 -2.48449,-1.3563 -0.87417,-0.7356 -1.86153,-1.3374 -2.19411,-1.3374 -0.33258,0 -0.82661,-0.5837 -1.09783,-1.297 l -0.49317,-1.2971 0.21826,-6.5935 0.21826,-6.5935 0.75557,-1.8724 c 0.4156,-1.0298 1.00207,-2.8352 1.30336,-4.0121 0.30128,-1.1769 1.29367,-4.0657 2.20534,-6.4195 0.91172,-2.3538 1.65852,-5.0295 1.65959,-5.946 v -1.6665 l 1.0699,-1.3602 c 0.58845,-0.7481 1.06991,-1.6461 1.06991,-1.9956 0,-0.3495 0.4499,-1.2745 0.99972,-2.0554 0.54983,-0.781 1.15026,-1.9015 1.33423,-2.4899 l 0.33456,-1.0699 4.56834,-1.451 4.56834,-1.451 1.18551,0.4962 c 2.09456,0.8768 3.59299,2.5377 3.94009,4.3675 0.1861,0.9806 0.5464,2.0499 0.8008,2.3762 l 0.4626,0.5933 -0.8053,2.2825 c -0.443,1.2553 -0.8053,3.0362 -0.8053,3.9574 0,0.9211 -0.2426,2.5158 -0.53916,3.5436 l -0.53918,1.8688 0.5578,4.0957 c 0.74924,5.5015 0.76864,10.6385 0.0574,15.1627 -0.3238,2.0595 -0.72935,4.6935 -0.90129,5.8532 -0.40683,2.7443 -1.05081,3.8889 -2.43494,4.3282 -0.61911,0.1965 -1.97692,0.935 -3.01746,1.6411 l -1.89181,1.2838 -3.26878,-0.019 -3.26883,-0.019 z m -283.42669,-19.4535 c -0.9023,-0.5722 -2.23846,-3.1386 -2.23846,-4.2996 0,-0.4923 0.7124,-1.7286 1.58315,-2.7473 0.87069,-1.0187 1.59287,-2.2439 1.60486,-2.7228 0.0118,-0.4789 0.39768,-1.1827 0.85715,-1.564 0.45947,-0.3814 1.53414,-2.1561 2.3882,-3.9439 0.85399,-1.7878 2.37091,-4.1727 3.37084,-5.2997 0.99999,-1.127 2.37653,-3.1732 3.05908,-4.5471 1.37537,-2.7686 4.80388,-7.5801 5.40132,-7.5801 0.41988,0 5.27336,-7.5969 5.27336,-8.2541 0,-0.2241 0.44872,-1.0464 0.99715,-1.8274 0.54843,-0.781 2.02458,-3.4257 3.28033,-5.8772 1.25575,-2.4515 2.6125,-4.5836 3.015,-4.7381 0.4025,-0.1545 0.73182,-0.552 0.73182,-0.8835 0,-0.3314 0.75739,-2.1258 1.68312,-3.9874 l 1.68318,-3.3847 1.71078,-1.3049 c 2.07851,-1.5854 3.09861,-1.6292 5.36152,-0.2307 l 1.73812,1.0742 1.20423,3.2201 1.20418,3.22 -0.31525,2.2589 c -0.17338,1.2424 -0.83961,3.3378 -1.48048,4.6565 -0.64088,1.3186 -1.2267,3.5375 -1.30192,4.9308 l -0.13668,2.5332 0.96602,0.3067 c 1.27982,0.4061 3.68048,-0.2055 5.33664,-1.3597 0.73556,-0.5126 3.26322,-1.8303 5.61701,-2.9283 l 4.27963,-1.9963 3.56745,-0.2722 3.56744,-0.2721 2.43832,1.1804 c 1.34107,0.6491 3.0457,1.9022 3.78816,2.7845 l 1.34985,1.6043 v 2.0376 c 0,1.1207 -0.35959,2.7271 -0.79911,3.5699 -0.43957,0.8427 -0.80067,2.2376 -0.80243,3.0997 l -0.005,1.5675 -2.50674,2.3344 -2.50679,2.3344 -2.70901,-0.091 c -1.49,-0.05 -3.67197,0.082 -4.84887,0.2947 -3.16473,0.5713 -9.99261,2.8854 -10.94258,3.7086 -0.45449,0.3939 -1.09692,0.8078 -1.42752,0.9198 -1.19803,0.4056 -7.1557,6.3195 -7.1557,7.1031 0,0.4422 -0.33108,0.9966 -0.73572,1.2319 -0.40464,0.2353 -2.92657,2.4612 -5.60428,4.9465 -2.67771,2.4853 -5.25859,4.737 -5.73529,5.0037 l -0.86673,0.4851 -0.54357,-0.5436 -0.54362,-0.5436 1.93086,-2.5878 c 2.23402,-2.9941 7.32657,-8.1931 8.03217,-8.2001 0.26448,0 1.28758,-0.8354 2.27355,-1.8506 l 1.79263,-1.8458 v -2.0593 -2.0592 l -1.47112,-2.2699 -1.47112,-2.2699 -1.20905,-0.3038 -1.2091,-0.3039 -1.73315,1.3363 c -2.21326,1.7064 -11.86114,11.5856 -16.17693,16.5648 -0.58845,0.6789 -2.11189,1.9064 -3.38546,2.7279 l -2.31554,1.4936 -0.96757,2.1611 -0.96752,2.1611 -2.25478,1.2807 c -2.37444,1.3487 -3.56075,1.5543 -4.72171,0.8181 z m 402.45371,-23.0205 c -1.7653,-0.5253 -4.3728,-1.2383 -5.7945,-1.5845 l -2.5847,-0.6294 -2.0076,1.1283 -2.0077,1.1284 -1.2866,-0.1825 c -0.7077,-0.1004 -1.3557,-0.5456 -1.4401,-0.9894 l -0.1536,-0.8068 1.8754,-1.01 c 1.0315,-0.5555 2.0229,-1.4745 2.2031,-2.0424 0.3903,-1.2295 3.656,-4.6957 4.4242,-4.6957 0.6264,0 7.7974,-7.0507 8.9319,-8.782 l 0.768,-1.1722 0.141,-4.0733 0.141,-4.0733 -1.1212,-1.5062 -1.1211,-1.5063 -2.3561,-0.6836 c -1.2958,-0.3761 -3.9208,-0.6776 -5.8332,-0.6701 -1.9125,0.01 -4.7015,0.01 -6.1979,0 l -2.7207,-0.011 -1.5589,1.3552 c -0.8574,0.7454 -2.1608,1.486 -2.8964,1.6459 -0.7355,0.1599 -1.8903,0.5147 -2.5662,0.7886 -0.6758,0.2739 -1.8325,0.4979 -2.5703,0.4979 -0.7379,0 -2.4117,0.4875 -3.7196,1.0833 -1.3078,0.5958 -3.1529,1.2383 -4.1002,1.4278 -0.9473,0.1894 -3.0052,1.0192 -4.5731,1.844 -1.5679,0.8248 -4.5843,2.0109 -6.7032,2.6359 -2.1188,0.6249 -4.3339,1.5673 -4.9223,2.0941 -0.5885,0.5268 -3.3569,1.7256 -6.152,2.6641 -2.7951,0.9385 -5.3107,1.9287 -5.5903,2.2004 -0.2795,0.2718 -0.8449,0.4942 -1.2565,0.4942 -1.1082,0 -4.4881,1.6327 -5.8009,2.8022 l -1.1463,1.0211 -2.3309,0.245 c -1.2821,0.1348 -2.9328,0.4616 -3.6684,0.7263 -1.8883,0.6796 -10.19276,1.033 -11.63516,0.4952 l -1.2037,-0.4488 v -1.0372 -1.0373 l 2.7493,-1.7845 c 1.512,-0.9814 4.46816,-2.8677 6.56916,-4.1917 2.1009,-1.3241 4.9908,-3.3101 6.4219,-4.4134 1.4311,-1.1033 3.0144,-2.0061 3.5185,-2.0061 0.5041,0 2.0944,-1.1492 3.534,-2.5537 1.4396,-1.4046 3.2794,-2.8897 4.0886,-3.3002 0.8091,-0.4105 1.4711,-0.9287 1.4711,-1.1517 0,-0.5552 3.159,-2.0886 4.3029,-2.0886 0.5109,0 2.4226,-1.0996 4.2482,-2.4435 1.8256,-1.3439 4.4399,-2.7642 5.8096,-3.1562 8.6596,-2.4784 12.1669,-3.7698 14.5268,-5.349 2.1165,-1.4164 8.1932,-2.9276 13.3738,-3.326 1.9125,-0.147 8.3891,-0.3797 14.3927,-0.517 l 10.9154,-0.2496 2.2317,1.6026 c 1.2274,0.8815 2.9355,1.7708 3.7957,1.9763 1.5795,0.3773 6.6462,3.8665 6.6462,4.577 0,0.2112 0.8425,1.4878 1.8723,2.8369 1.0298,1.3491 1.8724,2.7795 1.8724,3.1786 0,0.3991 0.4814,1.3377 1.0699,2.0858 0.5884,0.7481 1.0699,2.051 1.0699,2.8953 0,0.8444 0.4045,2.1127 0.8988,2.8185 l 0.8989,1.2833 0.1202,2.4467 0.1203,2.4467 -1.0191,2.3415 c -0.5606,1.2879 -1.0191,2.9959 -1.0191,3.7955 v 1.454 l -1.0699,0.9682 c -0.5885,0.5326 -1.0699,1.3839 -1.0699,1.8918 0,0.9528 -2.727,3.3169 -4.9118,4.2583 -0.6821,0.2938 -1.6013,0.7603 -2.0426,1.0366 -1.811,1.1336 -4.5185,2.175 -5.6549,2.175 -0.6659,0 -2.334,0.4815 -3.7068,1.0699 -2.9839,1.2791 -3.3654,1.2819 -7.4894,0.055 z m -607.94686,-22.6427 -2.37967,-1.2175 -1.20806,-2.1398 c -0.66444,-1.1769 -1.2185,-2.91 -1.23127,-3.8512 l -0.0232,-1.7114 1.80842,-1.3794 1.80841,-1.3793 0.31748,-1.4564 0.31748,-1.4564 1.83333,-1.3374 c 1.00833,-0.7355 2.48824,-2.3718 3.28868,-3.636 1.56788,-2.4765 5.75381,-5.9882 7.15295,-6.0009 2.69251,-0.024 10.57547,-4.4184 12.85557,-7.1657 0.38834,-0.468 1.19552,-0.8508 1.79373,-0.8508 1.96323,0 7.67462,-5.127 9.47596,-8.5063 0.44379,-0.8326 1.48232,-2.7683 2.30785,-4.3017 l 1.50096,-2.7879 -0.16358,-1.965 -0.16358,-1.9649 -2.13981,0.047 -2.13982,0.046 -1.80622,1.5583 c -0.99342,0.857 -2.67852,2.3637 -3.74467,3.3481 -1.06615,0.9844 -2.97853,2.267 -4.24972,2.8502 -1.2712,0.5832 -3.12767,1.6144 -4.12549,2.2916 l -1.81422,1.2311 -3.4951,0.3743 -3.4951,0.3743 -1.95279,-0.6445 c -1.07403,-0.3544 -3.18153,-1.5761 -4.68334,-2.7147 -1.5018,-1.1387 -3.02219,-2.0714 -3.37863,-2.0726 -0.35644,-0.001 -0.89315,-0.9125 -1.1927,-2.0249 -0.29954,-1.1125 -0.90299,-2.4967 -1.34099,-3.076 -1.81663,-2.403 -0.60664,-5.1597 4.0063,-9.1278 2.41426,-2.0767 4.54059,-3.2988 7.86846,-4.5225 0.95623,-0.3516 1.7386,-0.9552 1.7386,-1.3414 0,-0.9969 3.72039,-3.4965 9.62916,-6.4695 l 5.08206,-2.5571 2.11893,0.082 c 1.16541,0.045 3.55905,-0.4028 5.31921,-0.9957 l 3.20028,-1.0781 3.11283,0.3612 3.11284,0.3613 3.69243,1.8191 c 2.03084,1.0004 3.92995,1.819 4.22026,1.819 0.2903,0 1.03179,0.7824 1.64774,1.7386 0.61595,0.9563 1.59865,2.4592 2.18378,3.3398 0.58513,0.8807 1.45234,2.8363 1.92714,4.3458 l 0.86326,2.7445 -0.55114,2.8761 c -0.30314,1.5819 -0.70767,4.055 -0.89897,5.4958 -0.36527,2.7512 -0.4472,2.9849 -2.30687,6.5806 -0.63884,1.2351 -1.16152,2.7051 -1.16152,3.2665 0,0.5614 -0.80739,2.0784 -1.79421,3.3712 -0.98681,1.2928 -1.97814,2.9305 -2.20296,3.6395 -0.22481,0.709 -1.34294,2.6348 -2.48472,4.2796 -1.14178,1.6449 -2.07628,3.1967 -2.07667,3.4486 -10e-4,0.66 -3.10293,4.5029 -5.75145,7.1254 -1.25045,1.2382 -2.27355,2.4863 -2.27355,2.7736 0,0.2872 -0.90274,1.5027 -2.00608,2.701 -1.10334,1.1983 -2.52781,2.8428 -3.1655,3.6546 -0.63768,0.8117 -2.80425,2.3184 -4.81458,3.3482 -2.01033,1.0298 -3.77552,2.0108 -3.92263,2.1801 -0.14711,0.1693 -1.11003,0.7711 -2.13982,1.3374 -1.02978,0.5663 -2.00868,1.213 -2.17531,1.4372 -0.16665,0.2242 -2.32,1.2455 -4.78523,2.2697 l -4.48224,1.8622 -4.04151,0.2851 -4.04151,0.2852 z m 523.9592,-14.0023 c -4.1734,-1.3199 -5.9596,-2.6386 -10.3509,-7.6419 -4.1207,-4.6951 -5.986,-9.3186 -5.9699,-14.7975 0.01,-1.5166 0.014,-4.9241 0.022,-7.5721 l 0.014,-4.8146 0.8823,-2.4073 c 0.4852,-1.324 1.3207,-3.0463 1.8565,-3.8272 0.5358,-0.781 0.9763,-1.6236 0.9788,-1.8724 0,-0.2488 0.7849,-1.3008 1.7386,-2.3378 2.0873,-2.2697 4.1413,-5.1214 4.1413,-5.7496 0,-0.8584 2.9396,-3.2152 5.7835,-4.637 l 2.84136,-1.4205 0.9359,0.297 c 0.5148,0.1634 1.7201,1.1061 2.6786,2.0949 l 1.7425,1.7979 0.4053,2.879 0.4053,2.8791 1.6979,2.4848 1.698,2.4849 v 1.4179 1.4178 l 1.313,1.3131 c 0.7222,0.7222 1.5599,1.3131 1.8615,1.3131 0.3016,0 1.0249,0.934 1.6073,2.0755 l 1.0588,2.0755 -0.307,3.4078 c -0.1688,1.8742 -0.2726,4.0697 -0.2307,4.8788 0.2525,4.8676 -0.089,8.6114 -1.1883,13.0373 -0.5728,2.3055 -3.0142,6.4165 -5.0447,8.4946 l -2.0908,2.1398 -2.2258,0.6687 c -2.686,0.807 -3.4837,0.7968 -6.25476,-0.08 z m -276.03589,-8.8468 c -0.58845,-0.2586 -1.87186,-1.335 -2.85195,-2.392 -0.98014,-1.0569 -2.06588,-1.9217 -2.4128,-1.9217 -0.59583,0 -2.43141,1.5924 -4.00546,3.4747 l -0.7109,0.8502 -1.16144,-0.3623 c -0.63873,-0.1993 -1.7632,-0.959 -2.49877,-1.6883 l -1.33738,-1.326 v -3.1512 -3.1513 l 3.35855,-3.1761 c 1.84719,-1.7469 3.89339,-3.3435 4.5471,-3.5481 0.65371,-0.2045 1.86902,-0.9408 2.70071,-1.6361 l 1.51221,-1.2642 h 2.69023 2.69022 l 1.58956,-1.3375 c 0.87428,-0.7357 2.23306,-1.4902 3.0195,-1.6767 0.78643,-0.1866 1.79097,-0.644 2.2323,-1.0165 2.27553,-1.9207 9.68667,-4.0709 14.09116,-4.0883 l 3.12461,-0.012 1.60004,1.5247 c 1.91883,1.8283 2.82119,3.84 3.29756,7.3513 l 0.355,2.6169 -0.55764,2.0709 c -0.30668,1.139 -1.23435,2.8501 -2.06149,3.8025 -0.82715,0.9524 -1.78322,2.2635 -2.12457,2.9136 -0.3413,0.65 -1.39971,1.5455 -2.35198,1.9899 -2.04598,0.9547 -7.64544,2.4442 -9.19938,2.4471 -0.60016,10e-4 -1.89079,0.4894 -2.86799,1.0852 l -1.77674,1.0833 -3.57279,0.1911 c -1.96505,0.1051 -4.17462,0.332 -4.91018,0.5043 -0.73556,0.1722 -1.81884,0.1016 -2.40729,-0.1571 z m 310.41675,-4.8286 c -1.6862,-0.8373 -3.8111,-2.2676 -4.722,-3.1785 -0.9108,-0.9109 -1.9158,-1.6561 -2.2331,-1.6561 -1.1486,0 -4.1883,-2.7822 -5.1944,-4.7542 l -1.0292,-2.0175 0.3974,-1.83 c 0.2186,-1.0064 0.4655,-3.99 0.5488,-6.6301 l 0.1512,-4.8002 1.2318,-3.2725 1.2318,-3.2725 -0.2683,-2.3799 -0.2682,-2.38 0.8593,-0.7131 0.8593,-0.7132 v -1.6099 c 0,-0.8855 0.507,-2.4304 1.1267,-3.4331 l 1.1267,-1.823 -0.2693,-1.03 -0.2694,-1.03 0.9703,-0.3079 c 0.5336,-0.1694 1.2046,-0.9803 1.4911,-1.8021 l 0.5209,-1.4941 1.7974,-0.8746 c 0.9885,-0.481 2.5196,-1.362 3.4022,-1.9577 l 1.6049,-1.0831 h 2.6116 2.6116 l 1.8092,1.1181 c 0.995,0.615 3.1298,2.6749 4.7439,4.5776 l 2.9349,3.4594 v 1.297 c 0,0.7134 -0.2807,2.934 -0.6238,4.9348 l -0.6238,3.6378 0.964,2.5241 0.9639,2.5241 h 1.4824 1.4824 l 2.144,-2.5608 2.1439,-2.5607 0.3619,-1.9289 0.3619,-1.9289 2.3777,-2.5985 c 2.153,-2.3529 5.5491,-8.3163 5.5491,-9.7441 0,-0.5922 1.9622,-4.286 4.019,-7.5656 1.53,-2.4396 1.9864,-3.955 2.1334,-7.0836 l 0.1206,-2.5671 0.7943,-0.9254 c 0.4369,-0.5089 0.9221,-1.2904 1.0783,-1.7365 0.3845,-1.0979 2.1212,-1.866 6.5128,-2.8806 l 3.692,-0.8529 1.606,0.8012 c 0.8834,0.4406 1.9189,0.8012 2.3012,0.8012 1.7486,0 3.665,1.5386 5.9017,4.7382 l 2.4268,3.4715 0.5403,2.7158 c 0.5291,2.6598 0.648,4.5827 0.4492,7.2629 -0.054,0.7356 0.072,2.0168 0.281,2.8471 l 0.38,1.5097 -0.5305,1.1651 c -0.2918,0.6408 -0.8399,2.1221 -1.218,3.2918 -1.7676,5.4694 -11.2218,15.7942 -14.4624,15.7942 -1.3781,0 -4.6302,1.5875 -6.5754,3.2097 -4.059,3.3852 -6.2252,5.5282 -6.5169,6.4471 -0.1743,0.5493 -1.9985,2.2219 -4.0537,3.7167 -2.0552,1.4948 -4.0024,3.3009 -4.3271,4.0134 -0.3246,0.7126 -1.5187,1.91 -2.6535,2.661 -1.1348,0.751 -2.0632,1.6027 -2.0632,1.8928 0,0.29 -0.301,0.5289 -0.6687,0.5307 -0.3678,0 -1.0759,0.719 -1.5736,1.5937 -0.4977,0.8747 -1.7013,2.0865 -2.6748,2.6929 l -1.7699,1.1026 -1.6048,-0.3236 c -0.8827,-0.1779 -2.5936,-0.4498 -3.802,-0.6042 l -2.1972,-0.2807 -1.0126,1.3304 c -0.5569,0.7317 -1.4675,1.9569 -2.0236,2.7226 l -1.0111,1.3921 -1.3962,-0.031 c -0.7679,-0.017 -2.7759,-0.7163 -4.4621,-1.5536 z m -408.22406,-5.7262 c -0.60685,-0.6068 -0.39388,-2.8316 0.39009,-4.0756 0.41069,-0.6516 0.90969,-2.8699 1.10885,-4.9295 0.19917,-2.0595 0.80222,-4.7075 1.34017,-5.8844 0.53789,-1.1769 1.33936,-2.9824 1.78102,-4.0122 0.44166,-1.0298 1.42051,-3.2249 2.17517,-4.8781 0.75472,-1.6531 1.52371,-3.9534 1.70897,-5.1116 l 0.33669,-2.1059 -1.21696,-2.589 -1.21697,-2.589 0.58358,-4.0683 0.58359,-4.0684 2.497,-2.2656 2.49695,-2.2655 2.7289,-0.8104 c 1.50092,-0.4458 3.4206,-0.8104 4.26604,-0.8104 1.76652,0 6.05637,1.8054 7.63036,3.2113 0.58845,0.5256 1.97623,1.434 3.0839,2.0187 2.88543,1.523 6.27779,4.4036 6.27779,5.3307 0,0.4357 0.96291,1.9424 2.13981,3.348 1.1769,1.4057 2.13982,2.7938 2.13982,3.0848 0,0.2909 0.36109,0.8286 0.80243,1.1949 l 0.80243,0.6659 v 1.6878 c 0,0.9283 0.37243,2.2195 0.82757,2.8694 0.45519,0.6498 0.77707,1.4858 0.71529,1.8576 -0.0617,0.3719 0.0669,1.3123 0.28593,2.0898 l 0.39822,1.4138 -1.2795,2.3309 c -0.70374,1.282 -1.81649,3.2101 -2.47277,4.2845 l -1.19322,1.9536 -1.34113,0.3366 c -0.73759,0.1851 -2.1389,1.1581 -3.11396,2.1621 l -1.77284,1.8256 -3.20292,-0.4528 c -1.7616,-0.249 -4.19259,-0.9576 -5.40212,-1.5747 l -2.1992,-1.1219 h -4.02541 -4.02548 l -2.60821,1.6049 c -1.43454,0.8826 -2.79754,1.6048 -3.02891,1.6048 -0.77253,0 -5.07799,3.8067 -5.07799,4.4897 0,0.3703 -0.60183,1.2387 -1.33739,1.9298 -0.73556,0.691 -1.33738,1.5755 -1.33738,1.9656 0,0.7558 -0.65885,0.9419 -1.24821,0.3525 z"
       id="path1798" />
  </g>
</svg>
