<?xml version="1.0" encoding="UTF-8"?>
<svg xmlns="http://www.w3.org/2000/svg" xmlns:xlink="http://www.w3.org/1999/xlink" width="252pt" height="251pt" viewBox="0 0 252 251" version="1.1">
<g id="surface1">
<path style=" stroke:none;fill-rule:evenodd;fill:rgb(0%,20%,50.196078%);fill-opacity:1;" d="M 166.664062 212.546875 C 168.105469 212.273438 169.332031 213.828125 169.269531 214.289062 C 169.207031 214.746094 169.789062 215.84375 170.953125 215.570312 C 172.117188 215.296875 175.460938 216.089844 173.621094 217.066406 C 171.78125 218.042969 168.074219 218.746094 168.410156 219.875 C 168.746094 221.035156 167.890625 224.148438 169.574219 223.78125 C 171.261719 223.445312 172.914062 224.878906 172.058594 225.550781 C 171.199219 226.253906 170.15625 226.832031 170.554688 228.144531 C 170.953125 229.457031 170.496094 234.890625 169.117188 235.164062 C 167.738281 235.441406 164.488281 235.441406 164.824219 233.546875 C 165.164062 231.65625 167.707031 232.386719 167.828125 230.222656 C 167.953125 228.023438 167.183594 227.046875 165.988281 228.023438 C 164.765625 229 161.761719 229.761719 162.34375 228.601562 C 162.925781 227.441406 166.386719 225.214844 165.652344 224.269531 C 164.886719 223.351562 163.046875 222.070312 161.792969 222.957031 C 160.503906 223.8125 159.769531 224.453125 159.707031 225.488281 C 159.648438 226.527344 157.808594 226.191406 156.980469 225.152344 C 156.183594 224.117188 156.859375 222.863281 158.726562 222.164062 C 160.566406 221.460938 161.148438 220.878906 161.148438 220.878906 C 161.148438 220.878906 158.480469 219.507812 158.359375 218.101562 C 158.238281 216.730469 158.820312 217.066406 159.738281 217.308594 C 160.65625 217.554688 161.238281 217.554688 161.945312 217.554688 C 162.648438 217.554688 163.230469 218.589844 163.230469 218.589844 C 163.230469 218.589844 165.253906 218.074219 163.753906 216.851562 C 162.25 215.628906 162.894531 214.714844 163.628906 214.441406 C 164.394531 214.164062 165.253906 212.824219 166.695312 212.546875 Z M 39.886719 184.253906 C 39.886719 184.253906 40.53125 187.429688 40.164062 188.863281 C 39.828125 190.296875 38.664062 190.695312 38.324219 189.136719 C 37.988281 187.582031 37.867188 184.863281 38.507812 184.34375 C 39.152344 183.824219 39.886719 184.070312 39.886719 184.070312 Z M 42.429688 186.449219 C 42.429688 186.449219 43.535156 186.785156 44.976562 187.761719 C 46.414062 188.738281 46.875 188.679688 46.875 188.679688 C 46.875 188.679688 49.664062 187.121094 49.753906 185.75 C 49.878906 184.375 50.152344 184.132812 51.195312 185.167969 C 52.238281 186.207031 51.960938 187.640625 50.921875 188.28125 C 49.878906 188.921875 48.132812 190.050781 49.417969 190.753906 C 50.707031 191.457031 52.300781 194.660156 50.214844 194.90625 C 48.132812 195.148438 47.550781 193.808594 46.171875 193.988281 C 44.792969 194.171875 43.042969 193.410156 42.1875 194.171875 C 41.328125 194.9375 34.953125 199.238281 33.515625 199.238281 C 32.074219 199.238281 34.28125 197.042969 35.351562 196.433594 C 36.457031 195.789062 41.265625 193.65625 41.265625 192.464844 C 41.265625 191.242188 40.410156 189.808594 41.328125 189.746094 C 42.246094 189.6875 45.558594 190.511719 45.097656 190.023438 C 44.636719 189.5625 42.675781 188.921875 42.09375 187.761719 C 41.511719 186.605469 42.429688 186.449219 42.429688 186.449219 Z M 70.472656 207.664062 C 70.472656 207.664062 67.222656 208.519531 65.660156 210.992188 C 64.097656 213.464844 58.367188 220.085938 57.261719 218.652344 C 56.160156 217.21875 57.507812 213.800781 56.464844 212.425781 C 55.425781 211.050781 52.238281 208.457031 51.902344 206.839844 C 51.5625 205.222656 56.925781 203.023438 56.863281 202.046875 C 56.804688 201.070312 56.988281 200.550781 57.847656 200.550781 C 58.703125 200.550781 59.992188 200.15625 59.867188 200.828125 C 59.746094 201.53125 59.59375 202.71875 58.828125 202.566406 C 58.058594 202.382812 58.058594 202.75 57.386719 203.269531 C 56.679688 203.789062 53.15625 206.71875 53.984375 207.480469 C 54.78125 208.246094 56.191406 208.578125 55.945312 207.757812 C 55.699219 206.960938 56.128906 206.777344 56.863281 206.777344 C 57.632812 206.777344 59.808594 205.34375 60.113281 204.582031 C 60.390625 203.820312 58.828125 203.300781 59.316406 202.964844 C 59.777344 202.628906 60.234375 201.863281 60.605469 202.171875 C 60.941406 202.445312 61.585938 203.484375 62.566406 203.484375 C 63.546875 203.484375 66.917969 203.207031 66.273438 204.398438 C 65.628906 205.621094 61.308594 205.191406 61.585938 206.351562 C 61.859375 207.511719 63.023438 209.679688 61.921875 209.648438 C 60.816406 209.585938 59.652344 209.128906 59.59375 209.832031 C 59.53125 210.535156 59.316406 211.144531 58.671875 210.808594 C 58.03125 210.472656 57.632812 209.648438 57.875 210.535156 C 58.121094 211.386719 58.980469 215.203125 60.082031 214.226562 C 61.1875 213.25 64.128906 209.679688 65.9375 207.359375 C 67.742188 205.039062 68.539062 204.0625 67.683594 203.332031 C 66.824219 202.566406 63.851562 202.566406 62.472656 202.019531 C 61.09375 201.4375 61.15625 200.398438 61.953125 200.1875 C 62.75 199.941406 66.519531 201.039062 68.386719 202.445312 C 70.226562 203.820312 71.453125 205.4375 71.113281 206.289062 C 70.777344 207.144531 70.53125 207.664062 70.53125 207.664062 Z M 81.503906 222.652344 C 81.503906 222.652344 86.007812 221.035156 87.507812 219.476562 C 89.011719 217.921875 89.011719 217.921875 89.011719 217.921875 L 93.117188 217.738281 C 93.117188 217.738281 92.996094 215.265625 91.953125 215.265625 C 90.910156 215.265625 87.90625 215.324219 87.90625 215.324219 C 87.90625 215.324219 87.203125 215.324219 86.007812 214.625 C 84.78125 213.921875 84.109375 214.378906 84.507812 215.082031 C 84.90625 215.785156 87.296875 217.433594 85.027344 218.714844 C 82.757812 219.996094 77.796875 222.558594 74.148438 223.78125 C 70.5 225 69.277344 225.855469 70.316406 225.855469 C 71.359375 225.855469 77.488281 224.878906 78.929688 224.175781 C 80.371094 223.476562 80.371094 223.476562 80.371094 223.476562 C 80.371094 223.476562 81.65625 224.847656 81.535156 226.648438 C 81.410156 228.449219 82.636719 230.34375 84.015625 230.34375 C 85.394531 230.34375 88.304688 231.320312 87.664062 229.578125 C 87.019531 227.839844 87.722656 227.320312 88.304688 227.230469 C 88.886719 227.109375 90.605469 224.972656 89.226562 223.839844 C 87.847656 222.679688 84.414062 222.347656 84.414062 223.78125 C 84.414062 225.214844 83.953125 226.128906 83.25 225.550781 C 82.546875 224.972656 81.441406 222.621094 81.441406 222.621094 Z M 103.78125 232.449219 C 103.78125 232.449219 102.21875 234.402344 100.992188 234.769531 C 99.765625 235.105469 99.367188 237.820312 101.515625 237.027344 C 103.660156 236.234375 103.8125 235.59375 103.875 234.433594 C 103.933594 233.273438 103.75 232.480469 103.75 232.480469 Z M 137.949219 233.027344 C 137.949219 233.027344 137.859375 233.152344 137.707031 233.363281 C 137 234.28125 134.945312 236.8125 132.957031 236.8125 C 130.535156 236.8125 128.789062 235.898438 128.789062 235.898438 C 128.789062 235.898438 132.496094 233.578125 133.414062 233.027344 C 134.335938 232.449219 135.039062 231.074219 133.996094 230.25 C 132.957031 229.457031 131.578125 228.878906 133.660156 228.421875 C 135.742188 227.960938 135.742188 227.960938 135.742188 227.960938 L 135.5 221.277344 C 135.5 221.277344 138.042969 224.148438 139.542969 224.511719 C 141.046875 224.847656 142.792969 225.429688 142.210938 227.046875 C 141.628906 228.664062 139.085938 229.703125 140.464844 231.898438 C 141.84375 234.097656 145.335938 235.804688 147.175781 237.210938 C 149.011719 238.585938 148.675781 239.285156 147.050781 239.867188 C 145.425781 240.445312 143.925781 239.40625 141.382812 236.753906 C 138.839844 234.097656 137.917969 233.058594 137.917969 233.058594 Z M 210.425781 192.128906 C 210.425781 192.128906 209.261719 188.433594 208.984375 189.871094 C 208.707031 191.304688 207.667969 194.296875 206.378906 192.523438 C 205.09375 190.753906 207.144531 186.9375 206.5625 185.261719 C 205.980469 183.582031 209.105469 182.332031 210.851562 182.390625 C 212.601562 182.453125 211.191406 184.132812 212.875 184.984375 C 214.5625 185.839844 215.480469 188.097656 215.601562 189.074219 C 215.726562 190.050781 216.398438 190.632812 216.769531 189.777344 C 217.105469 188.921875 217.351562 187.246094 218.574219 187.582031 C 219.800781 187.917969 219.554688 191.152344 218.699219 190.875 C 217.839844 190.601562 216.03125 190.296875 216.738281 190.695312 C 217.441406 191.089844 218.574219 194.144531 217.59375 194.265625 C 216.613281 194.386719 215.175781 194.324219 215.175781 195.300781 C 215.175781 196.28125 213.734375 198.140625 212.386719 197.378906 C 211.066406 196.613281 210.546875 194.324219 211.925781 194.082031 C 213.304688 193.835938 214.285156 192.464844 214.011719 192.007812 C 213.734375 191.546875 213.242188 190.570312 212.628906 191.761719 C 211.988281 192.984375 210.667969 192.984375 210.667969 192.984375 L 210.484375 192.128906 Z M 207.820312 204.125 C 207.820312 204.125 205.152344 207.574219 202.917969 206.777344 C 200.648438 205.984375 197.003906 200.734375 196.082031 199.117188 C 195.164062 197.5 195.808594 195.945312 196.542969 196.644531 C 197.308594 197.347656 198.808594 199.300781 199.484375 198.996094 C 200.1875 198.722656 202.210938 197.4375 203.191406 198.660156 C 204.171875 199.882812 202.546875 201.53125 201.90625 202.046875 C 201.261719 202.566406 201.445312 203.847656 202.609375 203.484375 C 203.773438 203.148438 205.277344 201.804688 206.195312 202.109375 C 207.113281 202.382812 207.511719 203.941406 207.511719 203.941406 L 207.789062 204.125 Z M 201.445312 208.671875 C 201.445312 208.671875 198.320312 213.402344 197.339844 213.035156 C 196.359375 212.699219 196.421875 210.5625 196.480469 209.402344 C 196.542969 208.246094 196.144531 207.96875 194.734375 208.824219 C 193.355469 209.679688 192.652344 209.160156 193.109375 207.542969 C 193.570312 205.925781 194.488281 205.464844 193.753906 204.152344 C 192.988281 202.839844 192.589844 201.558594 193.570312 201.101562 C 194.550781 200.644531 194.855469 200.707031 196.511719 202.660156 C 198.199219 204.613281 201.414062 208.640625 201.414062 208.640625 Z M 185.695312 215.355469 C 185.695312 216.667969 184.621094 217.738281 183.304688 217.738281 C 181.988281 217.738281 180.914062 216.667969 180.914062 215.355469 C 180.914062 214.042969 181.988281 212.976562 183.304688 212.976562 C 184.621094 212.976562 185.695312 214.042969 185.695312 215.355469 Z M 113.128906 199.148438 L 113.128906 207.269531 C 113.128906 207.695312 113.28125 207.878906 113.617188 207.878906 L 114.539062 207.878906 L 114.539062 208.398438 L 110.09375 208.398438 L 110.09375 207.878906 L 110.953125 207.878906 C 111.289062 207.847656 111.441406 207.664062 111.441406 207.296875 L 111.441406 200.949219 C 110.859375 201.285156 110.339844 201.53125 109.820312 201.683594 L 109.605469 201.285156 C 110.675781 200.707031 111.597656 200.003906 112.363281 199.117188 L 113.128906 199.117188 Z M 118.859375 208.488281 L 118.523438 208.089844 C 120.144531 207.574219 121.15625 206.320312 121.554688 204.398438 C 121.097656 204.734375 120.605469 204.917969 120.144531 204.917969 C 118.675781 204.796875 117.878906 203.910156 117.753906 202.199219 C 117.910156 200.308594 118.828125 199.300781 120.574219 199.148438 C 122.476562 199.269531 123.484375 200.550781 123.546875 202.996094 C 123.363281 205.957031 121.800781 207.785156 118.828125 208.488281 Z M 119.5625 201.925781 C 119.503906 203.511719 119.808594 204.277344 120.542969 204.246094 C 120.882812 204.246094 121.25 204.09375 121.679688 203.789062 C 121.738281 203.175781 121.800781 202.660156 121.800781 202.261719 C 121.800781 200.523438 121.402344 199.667969 120.605469 199.667969 C 119.871094 199.636719 119.53125 200.398438 119.5625 201.925781 Z M 127.011719 203.972656 L 127.164062 199.394531 L 130.257812 199.394531 C 130.535156 199.394531 130.71875 199.300781 130.75 199.117188 L 131.179688 199.117188 L 130.964844 200.828125 L 127.652344 200.828125 L 127.59375 202.597656 C 127.960938 202.476562 128.328125 202.414062 128.726562 202.414062 C 130.625 202.535156 131.636719 203.542969 131.761719 205.40625 C 131.605469 207.359375 130.472656 208.398438 128.359375 208.519531 C 127.164062 208.488281 126.550781 208.121094 126.457031 207.449219 C 126.488281 206.960938 126.734375 206.71875 127.164062 206.71875 C 127.5 206.71875 127.777344 206.933594 128.023438 207.390625 C 128.265625 207.816406 128.542969 208 128.816406 208 C 129.613281 207.9375 130.042969 207.269531 130.105469 206.078125 C 130.074219 204.703125 129.523438 204 128.417969 203.910156 C 128.050781 203.910156 127.683594 204 127.347656 204.183594 L 126.980469 203.972656 Z M 136.722656 203.972656 L 136.511719 203.574219 C 137.492188 202.75 137.949219 202.019531 137.917969 201.375 C 137.890625 200.707031 137.550781 200.339844 136.9375 200.308594 C 136.386719 200.308594 135.957031 200.644531 135.652344 201.316406 L 135.222656 201.132812 C 135.683594 199.851562 136.511719 199.179688 137.707031 199.148438 C 138.808594 199.210938 139.421875 199.757812 139.542969 200.734375 C 139.542969 201.5 139.054688 202.171875 138.074219 202.78125 L 138.132812 202.78125 C 139.421875 202.839844 140.125 203.664062 140.25 205.222656 C 140.09375 207.296875 138.960938 208.398438 136.785156 208.519531 C 135.558594 208.457031 134.886719 208.0625 134.792969 207.390625 C 134.824219 206.933594 135.070312 206.6875 135.558594 206.65625 C 135.835938 206.65625 136.140625 206.871094 136.417969 207.269531 C 136.695312 207.726562 137.03125 207.9375 137.398438 207.9375 C 138.164062 207.878906 138.5625 207.207031 138.59375 205.957031 C 138.5625 204.644531 138.105469 203.941406 137.183594 203.847656 C 137.121094 203.847656 137.03125 203.878906 136.96875 203.910156 C 136.910156 203.941406 136.816406 203.972656 136.753906 203.972656 Z M 23.707031 151.777344 L 23.433594 150.800781 C 25.054688 150.585938 26.617188 150.585938 28.121094 150.863281 C 28.152344 151.226562 28.273438 151.683594 28.425781 152.203125 C 28.519531 152.507812 28.703125 152.996094 28.980469 153.667969 C 29.378906 154.585938 29.683594 155.347656 29.867188 155.988281 C 31 161.148438 29.316406 164.65625 24.78125 166.429688 C 19.847656 167.375 16.382812 165.269531 14.359375 160.109375 C 14.023438 158.980469 13.902344 157.699219 14.023438 156.265625 C 14.054688 155.867188 14.023438 155.621094 13.992188 155.5 C 13.933594 155.316406 13.839844 155.195312 13.6875 155.105469 L 13.503906 154.492188 L 17.640625 153.058594 L 17.914062 153.945312 C 15.710938 155.441406 14.914062 157.300781 15.527344 159.558594 C 16.78125 162.886719 19.449219 164.109375 23.523438 163.160156 C 27.660156 161.605469 29.378906 159.011719 28.609375 155.410156 C 27.90625 153.304688 26.28125 152.082031 23.769531 151.746094 Z M 25.363281 139.171875 L 25.300781 138.804688 C 25.148438 137.644531 24.441406 137.15625 23.15625 137.308594 L 18.804688 137.859375 L 19.785156 145.640625 L 24.230469 145.09375 C 25.453125 144.941406 25.976562 144.269531 25.824219 143.046875 L 25.792969 142.679688 L 26.773438 142.558594 L 27.722656 150.066406 L 26.742188 150.191406 L 26.679688 149.824219 C 26.527344 148.664062 25.851562 148.175781 24.628906 148.328125 L 14.757812 149.550781 C 13.59375 149.703125 13.105469 150.34375 13.226562 151.503906 L 13.289062 151.867188 L 12.308594 151.992188 L 11.359375 144.480469 L 12.339844 144.359375 L 12.398438 144.726562 C 12.492188 146.007812 13.167969 146.558594 14.359375 146.34375 L 18.3125 145.855469 L 17.332031 138.074219 L 13.472656 138.5625 C 12.183594 138.652344 11.632812 139.386719 11.878906 140.695312 L 11.910156 140.878906 L 10.929688 141.003906 L 9.980469 133.492188 L 10.960938 133.371094 L 11.019531 133.828125 C 11.113281 135.050781 11.757812 135.570312 12.980469 135.355469 L 22.851562 134.136719 C 24.136719 134.042969 24.6875 133.339844 24.441406 132.089844 L 24.382812 131.722656 L 24.71875 131.691406 C 24.566406 130.808594 23.984375 130.410156 23.003906 130.472656 L 13.074219 130.53125 C 11.785156 130.472656 11.175781 131.050781 11.234375 132.304688 L 11.234375 132.578125 L 10.253906 132.578125 L 10.222656 125.128906 L 11.203125 125.128906 L 11.203125 125.496094 C 11.203125 126.71875 11.816406 127.328125 13.074219 127.328125 L 22.910156 127.265625 C 24.105469 127.328125 24.71875 126.777344 24.75 125.679688 L 24.414062 125.648438 L 24.441406 125.464844 C 24.566406 124.246094 24.136719 123.605469 23.09375 123.542969 L 11.695312 122.261719 C 11.328125 122.71875 11.082031 123.300781 11.019531 124.03125 L 10.039062 123.941406 L 10.5625 119.179688 L 22.175781 110.753906 L 14.730469 109.929688 C 13.136719 109.5625 12.339844 110.234375 12.371094 111.882812 L 12.339844 112.160156 L 11.359375 112.035156 L 12.03125 105.992188 L 13.011719 106.113281 L 12.980469 106.390625 C 12.769531 107.734375 13.105469 108.402344 14.023438 108.464844 L 27.171875 109.929688 L 27.015625 111.210938 L 13.472656 121.011719 L 22.757812 122.046875 C 24.230469 122.324219 24.996094 121.652344 25.054688 119.972656 L 26.035156 120.09375 L 25.484375 125.039062 L 25.761719 125.039062 L 25.792969 132.488281 L 25.515625 132.488281 L 26.34375 139.109375 L 25.363281 139.230469 Z M 24.472656 97.445312 L 23.0625 102.421875 L 25.636719 104.101562 C 26.3125 104.621094 26.773438 104.773438 27.015625 104.589844 C 27.324219 104.4375 27.628906 103.824219 27.90625 102.820312 L 27.96875 102.542969 L 28.917969 102.820312 L 27.230469 108.863281 L 26.28125 108.585938 L 26.375 108.222656 C 26.710938 107.246094 26.191406 106.296875 24.75 105.382812 L 14.421875 98.269531 L 13.6875 98.363281 L 14.636719 95.003906 L 28.089844 93.875 C 29.652344 93.8125 30.601562 93.234375 30.910156 92.164062 L 31.859375 92.441406 L 29.777344 99.796875 L 28.824219 99.523438 L 29.039062 98.726562 C 29.222656 98.085938 29.191406 97.628906 28.917969 97.355469 C 28.640625 97.082031 28.210938 97.019531 27.570312 97.171875 L 24.441406 97.445312 Z M 23.035156 97.539062 L 16.8125 98.085938 L 21.898438 101.597656 L 23.035156 97.507812 Z M 26.25 71.074219 L 25.394531 70.617188 L 28.273438 65.246094 L 29.132812 65.703125 L 29.039062 65.855469 C 28.273438 67.136719 28.550781 68.054688 29.835938 68.695312 L 35.320312 71.625 C 39 73.667969 39.859375 76.597656 37.867188 80.476562 C 35.660156 84.445312 32.902344 85.605469 29.621094 83.925781 L 23.09375 80.445312 C 22.082031 79.835938 21.347656 80.078125 20.859375 81.148438 L 20.644531 81.542969 L 19.785156 81.085938 L 23.277344 74.585938 L 24.136719 75.042969 L 23.953125 75.378906 C 23.433594 76.355469 23.648438 77.085938 24.628906 77.605469 L 31.15625 81.085938 C 33.542969 82.277344 35.414062 81.667969 36.761719 79.253906 C 38.140625 76.570312 37.496094 74.492188 34.894531 73.058594 L 29.5625 70.21875 C 28.027344 69.335938 26.988281 69.519531 26.40625 70.738281 L 26.21875 71.074219 Z M 33.574219 63.292969 L 40.992188 68.96875 C 42.09375 69.976562 43.105469 69.761719 44.023438 68.386719 L 44.792969 68.96875 L 41.296875 73.484375 L 40.53125 72.90625 L 40.652344 72.753906 C 41.421875 71.777344 41.359375 71.011719 40.5 70.433594 L 31.398438 63.472656 C 30.847656 63.65625 30.328125 64.054688 29.898438 64.632812 L 29.132812 64.054688 L 32.074219 60.269531 L 46.414062 59.046875 L 40.46875 54.5 C 39.304688 53.371094 38.292969 53.523438 37.40625 54.957031 L 37.222656 55.171875 L 36.457031 54.59375 L 40.164062 49.769531 L 40.929688 50.351562 L 40.746094 50.5625 C 39.859375 51.601562 39.796875 52.363281 40.5625 52.851562 L 51.042969 60.878906 L 50.246094 61.886719 Z M 41.664062 49.890625 L 40.960938 49.21875 L 46.199219 43.878906 L 46.90625 44.550781 L 46.660156 44.824219 C 45.800781 45.710938 45.800781 46.566406 46.691406 47.417969 L 53.738281 54.257812 C 54.628906 55.203125 55.484375 55.203125 56.34375 54.226562 L 56.589844 53.953125 L 57.292969 54.621094 L 52.054688 59.964844 L 51.347656 59.292969 L 51.53125 59.109375 C 52.390625 58.222656 52.390625 57.402344 51.503906 56.636719 L 44.394531 49.738281 C 43.503906 48.792969 42.644531 48.792969 41.847656 49.707031 Z M 62.6875 50.195312 L 50.367188 43.96875 C 48.957031 43.117188 47.886719 43.117188 47.152344 43.96875 L 46.996094 44.09375 L 46.382812 43.328125 L 52.757812 38.109375 L 53.371094 38.871094 L 53.097656 39.117188 C 52.328125 39.726562 51.960938 40.246094 51.960938 40.675781 C 51.992188 41.070312 52.390625 41.46875 53.15625 41.832031 L 61.339844 45.921875 L 58.304688 36.613281 C 58 35.757812 57.324219 35.730469 56.28125 36.492188 L 55.855469 36.859375 L 55.242188 36.09375 L 59.898438 32.28125 L 60.511719 33.042969 L 60.449219 33.105469 C 59.46875 33.746094 59.316406 34.996094 59.992188 36.890625 L 63.882812 49.28125 L 62.75 50.226562 Z M 70.625 27.425781 L 66.179688 30.113281 L 69.0625 34.84375 L 72.371094 32.828125 C 73.445312 32.25 73.660156 31.457031 72.953125 30.417969 L 73.75 29.929688 L 76.324219 34.140625 L 75.527344 34.628906 C 75.007812 33.441406 74.117188 33.289062 72.800781 34.234375 L 69.796875 36.035156 L 72.125 39.851562 C 72.585938 40.703125 73.046875 40.917969 73.566406 40.460938 L 76.96875 38.414062 C 78.285156 37.773438 78.621094 36.582031 77.949219 34.875 L 78.746094 34.386719 L 80.03125 36.890625 C 81.257812 36.402344 81.59375 35.578125 81.042969 34.445312 L 77.214844 25.414062 C 76.816406 24.160156 75.988281 23.855469 74.699219 24.464844 L 74.269531 24.648438 L 73.902344 23.765625 C 74.085938 23.703125 74.269531 23.582031 74.453125 23.429688 C 75.464844 22.941406 76.171875 22.605469 76.628906 22.421875 C 78.164062 21.628906 79.328125 21.078125 80.125 20.742188 C 83.15625 19.398438 85.425781 19.09375 86.867188 19.796875 C 87.847656 20.222656 88.550781 20.957031 88.980469 21.964844 C 89.714844 23.824219 89.132812 25.503906 87.296875 27 C 88 27.273438 89.011719 27.792969 90.265625 28.585938 C 91.433594 29.289062 92.351562 29.777344 92.996094 30.082031 C 94.035156 30.632812 95.109375 30.722656 96.210938 30.386719 L 94.863281 27.0625 L 95.753906 26.816406 C 97.101562 29.015625 98.726562 29.839844 100.65625 29.320312 C 102.25 28.832031 102.894531 27.824219 102.617188 26.296875 C 102.3125 25.167969 100.902344 24.3125 98.386719 23.703125 C 95.324219 22.96875 93.546875 21.78125 93.117188 20.101562 C 92.628906 17.628906 93.851562 15.890625 96.703125 14.941406 C 97.53125 14.730469 98.542969 14.636719 99.675781 14.636719 C 100.074219 14.667969 100.289062 14.667969 100.347656 14.667969 C 100.472656 14.636719 100.59375 14.546875 100.746094 14.363281 C 100.6875 14.394531 100.71875 14.332031 100.808594 14.242188 L 101.269531 14.117188 L 102.738281 17.84375 L 101.851562 18.085938 C 100.65625 16.195312 99.09375 15.460938 97.253906 15.890625 C 95.90625 16.316406 95.292969 17.078125 95.476562 18.179688 C 95.691406 19.003906 96.855469 19.675781 99 20.253906 C 100.902344 20.679688 102.3125 21.167969 103.230469 21.75 C 104.394531 22.511719 105.128906 23.460938 105.4375 24.589844 C 105.925781 27.394531 104.671875 29.257812 101.667969 30.203125 C 100.902344 30.417969 99.796875 30.539062 98.417969 30.570312 C 97.960938 30.570312 97.683594 30.570312 97.5625 30.601562 C 97.378906 30.664062 97.253906 30.816406 97.222656 31.089844 L 96.609375 31.242188 L 96.582031 31.152344 L 95.507812 31.609375 C 93.148438 32.675781 91.371094 32.890625 90.175781 32.28125 C 89.777344 32.097656 89.011719 31.640625 87.90625 30.9375 C 86.285156 29.929688 85.089844 29.320312 84.324219 29.074219 L 82.605469 29.777344 L 84.078125 33.257812 C 84.566406 34.386719 85.363281 34.722656 86.5 34.234375 L 87.171875 33.957031 L 87.539062 34.84375 L 80.492188 37.804688 L 80.554688 37.894531 L 68.386719 45.253906 L 67.898438 44.429688 L 68.695312 43.941406 C 69.828125 43.328125 70.074219 42.503906 69.367188 41.496094 L 64.160156 32.953125 C 63.578125 31.882812 62.6875 31.730469 61.523438 32.523438 L 61.277344 32.675781 L 60.789062 31.851562 L 71.941406 25.105469 L 74.054688 28.039062 L 73.261719 28.527344 C 72.25 27.242188 71.390625 26.878906 70.6875 27.488281 Z M 79.390625 22.238281 L 82.175781 28.863281 L 83.035156 28.496094 C 85.886719 27.304688 86.804688 25.625 85.824219 23.429688 C 84.875 21.324219 83.128906 20.742188 80.582031 21.71875 L 79.390625 22.207031 Z M 103.875 14.578125 L 103.71875 13.628906 L 111.105469 12.347656 L 111.257812 13.292969 L 110.890625 13.355469 C 109.664062 13.570312 109.175781 14.273438 109.390625 15.492188 L 111.074219 25.136719 C 111.226562 26.417969 111.964844 26.90625 113.21875 26.632812 L 113.589844 26.574219 L 113.742188 27.519531 L 106.355469 28.800781 L 106.203125 27.855469 L 106.476562 27.792969 C 107.703125 27.578125 108.164062 26.90625 107.917969 25.777344 L 106.234375 16.042969 C 106.082031 14.761719 105.375 14.242188 104.179688 14.515625 L 103.90625 14.578125 Z M 121.738281 12.652344 L 122.476562 23.976562 C 122.445312 25.289062 123.148438 25.839844 124.621094 25.6875 L 125.171875 25.65625 L 125.234375 26.632812 L 116.746094 27.183594 L 116.683594 26.207031 L 117.511719 26.144531 C 118.796875 26.054688 119.378906 25.414062 119.226562 24.191406 L 118.492188 12.867188 L 115.640625 13.050781 C 114.140625 12.804688 113.375 13.84375 113.34375 16.101562 L 112.332031 16.164062 L 112.484375 11.492188 L 113.21875 11.433594 C 113.402344 11.617188 113.589844 11.738281 113.710938 11.800781 C 113.894531 11.859375 114.109375 11.859375 114.355469 11.859375 L 125.601562 11.160156 C 126.089844 11.1875 126.457031 11.003906 126.671875 10.609375 L 127.5 10.546875 L 128.175781 15.15625 L 127.253906 15.21875 C 126.917969 12.960938 126 12.074219 124.496094 12.472656 Z M 139.113281 21.046875 L 138.808594 24.4375 C 138.5625 25.71875 139.207031 26.390625 140.675781 26.449219 L 141.046875 26.480469 L 140.953125 27.457031 L 132.863281 26.753906 L 132.957031 25.777344 L 133.597656 25.839844 C 134.824219 25.960938 135.46875 25.414062 135.5 24.253906 L 135.804688 20.773438 L 131.363281 13.292969 C 131.023438 12.347656 130.351562 11.921875 129.339844 11.953125 L 129.15625 11.921875 L 129.246094 10.945312 L 136.96875 11.617188 L 136.878906 12.59375 L 136.511719 12.5625 C 135.957031 12.5 135.589844 12.59375 135.375 12.746094 C 135.160156 12.988281 135.160156 13.324219 135.375 13.722656 L 138.6875 19.277344 L 141.84375 14.972656 C 142.269531 14.363281 142.425781 13.90625 142.332031 13.570312 C 142.179688 13.234375 141.75 13.019531 141.074219 12.988281 L 140.800781 12.960938 L 140.890625 11.980469 L 146.5 12.472656 L 146.40625 13.449219 C 145.242188 13.292969 144.292969 13.785156 143.589844 14.941406 L 139.054688 21.078125 Z M 152.933594 21.78125 C 154.925781 16.835938 158.664062 15.097656 164.152344 16.53125 C 169.144531 18.484375 171.046875 21.839844 169.820312 26.601562 C 167.828125 31.546875 164.152344 33.226562 158.726562 31.699219 C 153.761719 29.839844 151.832031 26.511719 152.90625 21.78125 Z M 156.644531 21.75 C 155.296875 26.542969 156.246094 29.625 159.554688 31.027344 C 162.527344 31.851562 164.734375 30.328125 166.203125 26.449219 C 167.492188 21.6875 166.542969 18.667969 163.324219 17.355469 C 160.257812 16.5625 158.054688 18.027344 156.644531 21.71875 Z M 178.277344 24.191406 L 175.796875 29.136719 L 178.769531 30.601562 C 180.023438 31.363281 180.914062 31.152344 181.375 29.929688 L 182.199219 30.328125 L 179.996094 34.753906 L 179.167969 34.355469 C 179.78125 33.289062 179.535156 32.523438 178.460938 32.066406 L 175.152344 30.417969 L 173.375 33.988281 C 172.578125 35.332031 172.730469 36.1875 173.835938 36.582031 L 174.265625 36.796875 L 173.835938 37.652344 L 167.554688 34.539062 L 167.980469 33.683594 L 168.320312 33.835938 C 169.175781 34.324219 169.789062 34.113281 170.21875 33.164062 L 174.691406 24.222656 C 175.429688 22.910156 175.304688 22.054688 174.324219 21.65625 L 174.082031 21.535156 L 174.476562 20.742188 L 185.144531 26.054688 L 183.578125 29.167969 L 182.84375 28.800781 C 183.550781 27.425781 183.425781 26.542969 182.476562 26.238281 L 178.339844 24.191406 Z M 191.515625 40.917969 L 189.28125 43.847656 C 188.359375 44.855469 188.542969 45.742188 189.800781 46.535156 L 190.320312 46.929688 L 189.738281 47.695312 L 183.304688 42.871094 L 183.886719 42.109375 L 184.191406 42.320312 C 185.144531 43.117188 185.878906 43.054688 186.398438 42.167969 L 192.804688 33.746094 C 193.539062 32.980469 193.386719 32.28125 192.34375 31.578125 L 191.976562 31.304688 L 192.558594 30.539062 C 193.386719 31 194.429688 31.667969 195.746094 32.585938 C 196.664062 33.195312 197.707031 33.929688 198.839844 34.78125 C 202.089844 37.316406 202.855469 39.910156 201.078125 42.535156 C 199.179688 44.824219 196.664062 44.886719 193.539062 42.6875 C 192.863281 42.167969 192.191406 41.589844 191.515625 40.917969 Z M 196.390625 34.507812 L 192.160156 40.09375 C 192.46875 40.492188 192.863281 40.886719 193.386719 41.253906 C 195.195312 42.535156 196.878906 42.199219 198.410156 40.277344 C 199.761719 38.382812 199.578125 36.738281 197.859375 35.363281 C 197.460938 34.964844 196.972656 34.691406 196.421875 34.507812 Z M 211.4375 48.242188 L 207.726562 44.613281 L 203.835938 48.546875 L 206.59375 51.265625 C 207.421875 52.179688 208.25 52.179688 209.074219 51.234375 L 209.75 51.875 L 206.257812 55.386719 L 205.582031 54.746094 C 206.625 53.953125 206.53125 53.035156 205.308594 52.027344 L 202.792969 49.585938 L 199.667969 52.761719 C 198.933594 53.402344 198.871094 53.921875 199.453125 54.316406 L 202.304688 57.09375 C 203.253906 58.222656 204.511719 58.253906 205.980469 57.1875 L 206.65625 57.828125 L 203.714844 60.390625 L 193.570312 50.441406 L 194.246094 49.738281 L 194.917969 50.378906 C 195.808594 51.328125 196.632812 51.355469 197.460938 50.441406 L 204.480469 43.328125 C 205.398438 42.503906 205.308594 41.621094 204.265625 40.675781 L 204.082031 40.492188 L 204.753906 39.789062 L 214.039062 48.882812 L 211.710938 51.632812 L 211.039062 50.992188 C 212.046875 49.707031 212.171875 48.792969 211.40625 48.242188 Z M 220.78125 59.171875 L 211.742188 66.070312 C 210.640625 66.769531 210.546875 67.65625 211.496094 68.785156 L 211.835938 69.210938 L 211.066406 69.792969 L 205.890625 63.078125 L 206.65625 62.496094 L 207.175781 63.167969 C 207.972656 64.207031 208.832031 64.296875 209.78125 63.503906 L 218.820312 56.605469 L 217.074219 54.347656 C 216.429688 52.972656 215.144531 52.914062 213.242188 54.132812 L 212.628906 53.339844 L 216.613281 50.867188 L 217.074219 51.449219 C 217.042969 51.722656 217.011719 51.90625 217.042969 52.058594 C 217.105469 52.242188 217.195312 52.425781 217.351562 52.640625 L 224.214844 61.550781 C 224.460938 61.980469 224.828125 62.160156 225.285156 62.132812 L 225.808594 62.804688 L 222.316406 65.917969 L 221.761719 65.183594 C 223.449219 63.65625 223.695312 62.375 222.5 61.367188 L 220.8125 59.171875 Z M 221.394531 73.730469 L 218.054688 75.53125 C 216.980469 76.109375 216.738281 76.964844 217.320312 78.035156 L 217.6875 78.675781 L 216.828125 79.132812 L 212.90625 71.929688 L 213.765625 71.472656 L 213.949219 71.808594 C 214.5625 73.089844 215.449219 73.363281 216.554688 72.691406 L 225.195312 68.023438 C 226.390625 67.503906 226.636719 66.648438 225.898438 65.457031 L 225.683594 65.0625 L 226.542969 64.605469 C 226.636719 64.757812 226.757812 64.941406 226.941406 65.121094 C 227.523438 66.070312 227.953125 66.742188 228.167969 67.167969 C 229.117188 68.601562 229.792969 69.730469 230.191406 70.464844 C 231.84375 73.332031 232.367188 75.53125 231.785156 77.027344 C 231.445312 78.035156 230.804688 78.828125 229.824219 79.347656 C 228.015625 80.261719 226.296875 79.863281 224.644531 78.1875 C 224.460938 78.917969 224.03125 79.957031 223.355469 81.300781 C 222.773438 82.519531 222.375 83.46875 222.160156 84.167969 C 221.703125 85.328125 221.730469 86.488281 222.285156 87.648438 L 221.609375 88.015625 C 221.425781 87.679688 221.210938 87.25 220.90625 86.734375 C 219.617188 84.503906 219.21875 82.765625 219.710938 81.511719 C 219.832031 81.085938 220.230469 80.292969 220.84375 79.132812 C 221.671875 77.421875 222.191406 76.171875 222.34375 75.378906 L 221.457031 73.761719 Z M 228.566406 69.824219 L 222.253906 73.242188 L 222.683594 74.035156 C 224.152344 76.722656 225.929688 77.484375 228.015625 76.292969 C 230.035156 75.132812 230.433594 73.332031 229.179688 70.953125 Z M 228.257812 84.625 C 233.40625 83.253906 237.054688 85.207031 239.199219 90.425781 C 240.640625 95.585938 239.046875 99.09375 234.480469 100.988281 C 229.332031 102.359375 225.746094 100.40625 223.753906 95.1875 C 222.285156 90.121094 223.785156 86.582031 228.257812 84.597656 Z M 230.496094 87.558594 C 225.839844 89.328125 223.90625 91.984375 224.765625 95.433594 C 225.898438 98.300781 228.445312 99.15625 232.425781 97.996094 C 237.023438 96.164062 238.863281 93.601562 238.003906 90.273438 C 236.808594 87.375 234.296875 86.457031 230.496094 87.585938 Z M 233.46875 116.613281 L 229.914062 115.941406 C 229.914062 117.226562 230.527344 117.804688 231.753906 117.683594 L 241.773438 117.164062 C 243 117.164062 243.550781 116.460938 243.429688 115.058594 L 243.429688 114.785156 L 244.410156 114.722656 L 245.082031 127.695312 L 241.496094 128.152344 L 241.4375 127.238281 C 243.0625 126.960938 243.765625 126.382812 243.582031 125.464844 L 243.304688 120.308594 L 237.757812 120.582031 L 237.972656 124.460938 C 237.972656 125.679688 238.585938 126.230469 239.8125 126.105469 L 239.875 127.023438 L 234.910156 127.265625 L 234.847656 126.351562 C 236.164062 126.472656 236.6875 125.742188 236.472656 124.152344 L 236.289062 120.644531 L 231.8125 120.886719 C 230.832031 120.886719 230.433594 121.191406 230.589844 121.863281 L 230.804688 125.832031 C 230.742188 127.296875 231.628906 128.152344 233.46875 128.367188 L 233.53125 129.28125 L 229.636719 129.21875 L 228.933594 115.730469 L 228.871094 115.730469 L 226.605469 103.214844 L 227.554688 103.03125 L 227.648438 103.488281 C 227.832031 104.832031 228.503906 105.351562 229.730469 105.078125 L 239.597656 103.308594 C 240.824219 103.09375 241.285156 102.390625 241.007812 101.171875 L 240.914062 100.710938 L 241.867188 100.527344 L 243.304688 108.402344 L 242.355469 108.585938 L 242.234375 107.855469 C 242.019531 106.695312 241.34375 106.238281 240.210938 106.449219 L 230.160156 108.25 C 229.332031 108.34375 228.996094 108.800781 229.210938 109.625 L 229.761719 112.617188 C 229.914062 113.53125 230.925781 114.417969 232.703125 115.273438 C 232.980469 115.394531 233.222656 115.515625 233.347656 115.609375 L 233.5 116.523438 Z M 243.183594 141.675781 L 244.164062 141.765625 L 243.613281 147.808594 L 242.632812 147.71875 L 242.664062 147.535156 C 242.847656 146.070312 242.234375 145.304688 240.824219 145.246094 L 234.601562 144.664062 C 230.40625 144.207031 228.472656 141.828125 228.8125 137.460938 C 229.300781 132.945312 231.386719 130.808594 235.0625 131.082031 L 242.417969 131.753906 C 243.582031 131.90625 244.164062 131.417969 244.226562 130.257812 L 244.257812 129.800781 L 245.238281 129.890625 L 244.5625 137.21875 L 243.582031 137.125 L 243.613281 136.761719 C 243.703125 135.660156 243.214844 135.050781 242.109375 134.957031 L 234.757812 134.289062 C 232.089844 134.105469 230.621094 135.386719 230.28125 138.132812 C 230.066406 141.125 231.445312 142.804688 234.417969 143.140625 L 240.425781 143.6875 C 242.171875 143.902344 243.0625 143.351562 243.121094 141.980469 L 243.152344 141.613281 Z M 226.082031 154.035156 L 239.320312 152.144531 L 230.925781 149.242188 C 229.332031 148.480469 228.351562 148.878906 228.074219 150.464844 L 227.125 150.21875 L 228.535156 145.152344 L 229.484375 145.398438 C 228.839844 146.742188 229.515625 147.625 231.476562 148.054688 L 240.058594 150.984375 C 241.253906 151.503906 241.988281 151.136719 242.292969 149.882812 L 243.246094 150.128906 L 241.894531 154.921875 L 230.621094 156.601562 L 239.476562 163.621094 L 238.128906 168.503906 L 237.175781 168.257812 C 237.757812 166.886719 237.300781 166.183594 235.828125 166.183594 L 226.757812 164.261719 C 225.101562 163.621094 224.152344 164.046875 223.878906 165.574219 L 222.925781 165.328125 L 224.886719 158.21875 L 225.839844 158.460938 L 225.746094 158.828125 C 225.285156 160.046875 225.65625 160.78125 226.851562 161.054688 C 227.21875 161.148438 227.617188 161.238281 228.015625 161.269531 L 236.6875 163.101562 L 225.898438 154.675781 L 226.082031 154.066406 Z M 252.101562 125.679688 C 252.101562 160.261719 238.035156 191.578125 215.265625 214.226562 C 192.527344 236.90625 161.085938 250.914062 126.367188 250.914062 C 91.648438 250.914062 60.207031 236.90625 37.46875 214.226562 C 14.699219 191.546875 0.632812 160.261719 0.632812 125.679688 C 0.632812 91.097656 14.699219 59.78125 37.46875 37.132812 C 60.207031 14.484375 91.648438 0.445312 126.367188 0.445312 C 161.085938 0.445312 192.527344 14.453125 215.265625 37.132812 C 238.003906 59.78125 252.101562 91.097656 252.101562 125.679688 Z M 213.121094 212.058594 C 235.308594 189.960938 249.035156 159.40625 249.035156 125.679688 C 249.035156 91.953125 235.308594 61.398438 213.121094 39.300781 C 190.933594 17.203125 160.257812 3.527344 126.398438 3.527344 C 92.535156 3.527344 61.859375 17.203125 39.644531 39.300781 C 17.457031 61.398438 3.726562 91.953125 3.726562 125.679688 C 3.726562 159.40625 17.457031 189.960938 39.644531 212.089844 C 61.828125 234.1875 92.503906 247.863281 126.367188 247.863281 C 160.230469 247.863281 190.902344 234.1875 213.089844 212.058594 Z M 219.28125 126.472656 C 219.28125 152.082031 208.863281 175.25 192.007812 192.035156 C 175.152344 208.824219 151.894531 219.203125 126.183594 219.203125 C 100.472656 219.203125 77.214844 208.824219 60.359375 192.035156 C 43.503906 175.25 33.085938 152.082031 33.085938 126.472656 C 33.085938 100.863281 43.503906 77.699219 60.359375 60.910156 C 77.214844 44.121094 100.472656 33.746094 126.183594 33.746094 C 151.894531 33.746094 175.152344 44.121094 192.007812 60.910156 C 208.863281 77.699219 219.28125 100.863281 219.28125 126.472656 Z M 190.933594 190.9375 C 207.511719 174.425781 217.75 151.65625 217.75 126.472656 C 217.75 101.292969 207.511719 78.492188 190.933594 62.007812 C 174.355469 45.496094 151.496094 35.300781 126.214844 35.300781 C 100.933594 35.300781 78.039062 45.496094 61.492188 62.007812 C 44.914062 78.523438 34.679688 101.292969 34.679688 126.472656 C 34.679688 151.65625 44.914062 174.457031 61.492188 190.9375 C 78.070312 207.449219 100.933594 217.644531 126.214844 217.644531 C 151.496094 217.644531 174.386719 207.449219 190.933594 190.9375 Z M 185.664062 103.335938 C 185.664062 103.335938 172.699219 89.050781 151.585938 91.035156 C 130.441406 93.019531 124.28125 106.390625 122.289062 114.234375 C 120.300781 122.078125 121.21875 131.753906 114.414062 133.28125 C 107.613281 134.804688 98.695312 131.449219 100.992188 117.621094 C 103.292969 103.796875 110.859375 94.425781 119.042969 89.816406 C 127.226562 85.207031 128.910156 84.445312 128.910156 84.445312 L 128.910156 53.25 L 147.265625 53.25 L 147.265625 80.902344 C 147.265625 80.902344 159.769531 79.375 170.710938 87.496094 C 181.648438 95.644531 185.664062 103.308594 185.664062 103.308594 Z M 67.53125 144.664062 C 67.53125 144.664062 84.8125 159.558594 102.984375 153.730469 C 121.1875 147.902344 124.128906 141.734375 126.273438 134.53125 C 128.417969 127.296875 127.039062 118.875 133.046875 114.875 C 139.054688 110.875 149.226562 113.042969 149.410156 124.550781 C 149.566406 136.058594 141.230469 149.425781 133.84375 155.59375 C 126.429688 161.726562 121.1875 162.367188 121.1875 162.367188 L 121.800781 186.785156 L 129.828125 186.785156 L 129.828125 162.671875 C 129.828125 162.671875 139.238281 154.523438 141.871094 153.457031 C 144.507812 152.386719 160.382812 150.527344 167.953125 137.339844 C 175.519531 124.125 173.34375 110.449219 165.621094 104.160156 C 157.898438 97.875 146.039062 96.46875 146.039062 96.46875 C 146.039062 96.46875 148.828125 92.320312 163.476562 95.097656 C 178.125 97.875 189.554688 104.773438 189.554688 123.359375 C 189.554688 141.949219 179.839844 152.082031 169.054688 159.011719 C 158.269531 165.910156 148.859375 166.855469 148.859375 166.855469 C 148.859375 166.855469 150.851562 186.664062 147.789062 188.984375 C 144.691406 191.273438 143.3125 192.523438 137.917969 192.832031 C 132.527344 193.136719 107.859375 192.371094 107.859375 192.371094 C 107.859375 192.371094 102.15625 190.386719 101.699219 184.070312 C 101.238281 177.78125 100.777344 166.398438 100.777344 166.398438 C 100.777344 166.398438 83.496094 161.484375 75.957031 154.402344 C 68.386719 147.320312 67.621094 144.726562 67.621094 144.726562 Z M 100.074219 80.476562 L 100.074219 53.523438 L 120.542969 53.523438 L 120.542969 84.625 L 107.121094 96.257812 C 107.121094 96.257812 87.355469 94.058594 80.398438 107.886719 C 73.472656 121.710938 77.734375 135.78125 86.652344 141.980469 C 95.570312 148.207031 101.699219 150.402344 101.699219 150.402344 C 101.699219 150.402344 79.601562 155.714844 68.050781 140.851562 C 56.496094 125.984375 57.875 111.457031 64.710938 100.863281 C 71.542969 90.273438 82.757812 84.046875 88.304688 82.671875 C 93.851562 81.300781 100.105469 80.476562 100.105469 80.476562 Z M 119.042969 230.375 C 119.320312 231.746094 119.105469 232.328125 119.105469 232.328125 C 119.105469 232.328125 117.265625 232.449219 116.835938 233.824219 C 116.4375 235.195312 114.570312 239.285156 113.527344 239.285156 C 112.484375 239.285156 110.921875 239.285156 111.320312 238.308594 C 111.71875 237.332031 111.839844 236.507812 110.921875 236.507812 C 110.003906 236.507812 107 236.628906 106.9375 235.988281 C 106.875 235.347656 106.9375 234.3125 106.292969 233.976562 C 105.652344 233.640625 105.773438 233.121094 105.496094 232.234375 C 105.222656 231.378906 105.558594 230.953125 104.515625 230.953125 C 103.476562 230.953125 102.617188 231.59375 102.371094 230.890625 C 102.128906 230.191406 102.769531 229.273438 102.1875 228.816406 C 101.605469 228.359375 102.066406 227.597656 102.710938 227.65625 C 103.351562 227.71875 103.566406 228.878906 104.210938 228.816406 C 104.855469 228.753906 106.417969 229.976562 106.753906 230.554688 C 107.089844 231.136719 109.050781 234.25 108.652344 233.210938 C 108.253906 232.175781 107.734375 231.59375 108.410156 231.535156 C 109.113281 231.472656 110.1875 230.433594 109.328125 230.433594 C 108.46875 230.433594 107.582031 229.792969 107.828125 229.273438 C 108.070312 228.753906 111.074219 227.960938 111.074219 227.960938 C 111.074219 227.960938 110.429688 222.558594 111.257812 222.132812 C 112.054688 221.734375 112.054688 222.191406 112.484375 222.835938 C 112.882812 223.476562 113.464844 223.75 113.773438 224.207031 C 114.046875 224.664062 112.148438 227.839844 113.527344 227.839844 C 114.90625 227.839844 118.734375 228.9375 119.011719 230.3125 Z M 104.457031 223.414062 C 104.457031 223.414062 107.0625 225.246094 106.664062 226.464844 C 106.265625 227.6875 105.160156 228.726562 104.242188 226.464844 C 103.320312 224.207031 104.488281 223.414062 104.488281 223.414062 Z M 111.6875 233.425781 C 111.6875 233.425781 113.773438 233.179688 113.25 232.144531 C 112.730469 231.105469 111.441406 229.671875 112.730469 229.488281 C 114.015625 229.304688 114.996094 229.488281 114.753906 230.921875 C 114.507812 232.355469 113.710938 234.890625 112.667969 234.890625 C 111.625 234.890625 111.6875 233.394531 111.6875 233.394531 Z M 166.359375 214.53125 C 166.359375 214.53125 167.15625 216.089844 166.234375 216.148438 C 165.316406 216.210938 164.488281 215.570312 165.070312 215.171875 C 165.652344 214.777344 166.359375 214.53125 166.359375 214.53125 Z M 166.359375 214.53125 "/>
</g>
</svg>
